<?xml version="1.0" encoding="iso-8859-1"?>
<!-- Generator: Adobe Illustrator 18.0.0, SVG Export Plug-In . SVG Version: 6.00 Build 0)  -->
<!DOCTYPE svg PUBLIC "-//W3C//DTD SVG 1.1//EN" "http://www.w3.org/Graphics/SVG/1.1/DTD/svg11.dtd">
<svg version="1.1" id="Capa_1" xmlns="http://www.w3.org/2000/svg" xmlns:xlink="http://www.w3.org/1999/xlink" x="0px" y="0px"
	 viewBox="0 0 427.364 427.364" style="enable-background:new 0 0 427.364 427.364;" xml:space="preserve">
<g>
	<g>
		<path style="fill:none;" d="M213.682,65.323c-86.434,0-156.754,70.318-156.754,156.752s70.32,156.752,156.754,156.752
			s156.752-70.318,156.752-156.752S300.116,65.323,213.682,65.323z M213.682,365.997c-79.359,0-143.923-64.563-143.923-143.922
			S134.323,78.153,213.682,78.153s143.922,64.563,143.922,143.922S293.042,365.997,213.682,365.997z"/>
		<path style="fill:none;" d="M213.682,102.153c-66.126,0-119.923,53.797-119.923,119.922s53.797,119.922,119.923,119.922
			c66.125,0,119.922-53.797,119.922-119.922S279.807,102.153,213.682,102.153z M288.914,257.149c-1.232,0-2.486-0.191-3.723-0.594
			l-44.67-14.566c-6.1,8.199-15.859,13.523-26.84,13.523c-18.438,0-33.437-15-33.437-33.438c0-7.834,2.715-15.041,7.243-20.746
			l-37.572-53.553c-3.807-5.424-2.494-12.908,2.932-16.715c5.424-3.807,12.909-2.494,16.715,2.932l38.658,55.1
			c1.777-0.295,3.601-0.453,5.461-0.453c17.346,0,31.646,13.279,33.276,30.205l45.673,14.893c6.302,2.055,9.744,8.828,7.689,15.129
			C298.669,253.93,293.968,257.149,288.914,257.149z"/>
		<path style="fill:none;" d="M213.682,212.639c-5.203,0-9.437,4.232-9.437,9.436c0,5.203,4.233,9.438,9.437,9.438
			c5.203,0,9.435-4.234,9.435-9.438C223.118,216.872,218.885,212.639,213.682,212.639z"/>
		<path style="fill:#73D0F4;" d="M69.892,37.547c-12.267,0-23.8,4.777-32.474,13.451c-14.973,14.973-17.426,37.795-7.361,55.34
			l62.711-62.711C85.884,39.661,78.05,37.547,69.892,37.547z"/>
		<path style="fill:#73D0F4;" d="M357.471,37.547c-8.158,0-15.992,2.113-22.877,6.08l62.711,62.711
			c10.065-17.545,7.611-40.367-7.359-55.34C381.272,42.325,369.739,37.547,357.471,37.547z"/>
		<path style="fill:#3D6889;" d="M213.682,78.153c-79.359,0-143.923,64.563-143.923,143.922s64.563,143.922,143.923,143.922
			s143.922-64.563,143.922-143.922S293.042,78.153,213.682,78.153z M213.682,341.997c-66.126,0-119.923-53.797-119.923-119.922
			s53.797-119.922,119.923-119.922c66.125,0,119.922,53.797,119.922,119.922S279.807,341.997,213.682,341.997z"/>
		<path style="fill:#3D6889;" d="M394.434,222.075c0-99.668-81.086-180.752-180.752-180.752
			c-99.668,0-180.754,81.084-180.754,180.752c0,53.789,23.625,102.154,61.033,135.295L70.7,395.575
			c-3.447,5.66-1.652,13.043,4.008,16.49c1.949,1.186,4.104,1.752,6.23,1.752c4.049,0,8-2.051,10.26-5.762l21.859-35.898
			c28.781,19.359,63.406,30.67,100.625,30.67c37.218,0,71.842-11.31,100.623-30.67l21.859,35.898
			c2.26,3.713,6.211,5.762,10.261,5.762c2.126,0,4.28-0.566,6.23-1.752c5.66-3.447,7.455-10.83,4.009-16.49l-23.263-38.205
			C370.809,324.229,394.434,275.864,394.434,222.075z M213.682,378.827c-86.434,0-156.754-70.318-156.754-156.752
			s70.32-156.752,156.754-156.752s156.752,70.318,156.752,156.752S300.116,378.827,213.682,378.827z"/>
		<path style="fill:#3D6889;" d="M292.631,233.737l-45.673-14.893c-1.63-16.926-15.931-30.205-33.276-30.205
			c-1.86,0-3.684,0.158-5.461,0.453l-38.658-55.1c-3.806-5.426-11.291-6.738-16.715-2.932c-5.426,3.807-6.738,11.291-2.932,16.715
			l37.572,53.553c-4.528,5.705-7.243,12.912-7.243,20.746c0,18.438,14.999,33.438,33.437,33.438c10.98,0,20.74-5.324,26.84-13.523
			l44.67,14.566c1.236,0.402,2.49,0.594,3.723,0.594c5.054,0,9.755-3.219,11.406-8.283
			C302.376,242.565,298.933,235.791,292.631,233.737z M213.682,231.512c-5.203,0-9.437-4.234-9.437-9.438
			c0-5.203,4.233-9.436,9.437-9.436c5.203,0,9.435,4.232,9.435,9.436C223.118,227.278,218.885,231.512,213.682,231.512z"/>
		<path style="fill:#3D6889;" d="M119.338,51c2.25-2.252,3.514-5.303,3.514-8.486c0-3.182-1.264-6.234-3.514-8.484
			C106.13,20.823,88.57,13.547,69.892,13.547c-18.679,0-36.237,7.273-49.444,20.48c-27.264,27.266-27.264,71.627,0,98.891
			c2.344,2.344,5.414,3.516,8.484,3.516c3.072,0,6.143-1.172,8.486-3.516L119.338,51z M37.418,50.998
			c8.674-8.674,20.207-13.451,32.474-13.451c8.158,0,15.992,2.113,22.876,6.08l-62.711,62.711
			C19.993,88.793,22.446,65.971,37.418,50.998z"/>
		<path style="fill:#3D6889;" d="M406.917,34.028c-13.208-13.207-30.768-20.48-49.445-20.48c-18.678,0-36.238,7.275-49.445,20.482
			c-2.251,2.25-3.516,5.303-3.516,8.484c0,3.184,1.265,6.234,3.516,8.486l81.919,81.918c2.343,2.344,5.414,3.516,8.485,3.516
			c3.07,0,6.143-1.172,8.485-3.516C434.18,105.655,434.18,61.293,406.917,34.028z M397.305,106.338l-62.711-62.711
			c6.885-3.967,14.719-6.08,22.877-6.08c12.268,0,23.801,4.777,32.475,13.451C404.917,65.971,407.371,88.793,397.305,106.338z"/>
	</g>
</g>
<g>
</g>
<g>
</g>
<g>
</g>
<g>
</g>
<g>
</g>
<g>
</g>
<g>
</g>
<g>
</g>
<g>
</g>
<g>
</g>
<g>
</g>
<g>
</g>
<g>
</g>
<g>
</g>
<g>
</g>
</svg>
