<?xml version="1.0" encoding="iso-8859-1"?>
<!-- Generator: Adobe Illustrator 18.0.0, SVG Export Plug-In . SVG Version: 6.00 Build 0)  -->
<!DOCTYPE svg PUBLIC "-//W3C//DTD SVG 1.1//EN" "http://www.w3.org/Graphics/SVG/1.1/DTD/svg11.dtd">
<svg version="1.1" id="Capa_1" xmlns="http://www.w3.org/2000/svg" xmlns:xlink="http://www.w3.org/1999/xlink" x="0px" y="0px"
	 viewBox="0 0 409.033 409.033" style="enable-background:new 0 0 409.033 409.033;" xml:space="preserve">
<g>
	<g>
		<path style="fill:#3D6889;" d="M203.124,204.523l90.532-87.645c2.356-2.281,3.677-5.428,3.653-8.709
			c-0.024-3.281-1.391-6.408-3.78-8.654L191.147,3.258c-2.398-2.256-5.479-3.33-8.528-3.252c-0.045,0-0.088-0.006-0.134-0.006
			c-6.627,0-12,5.373-12,12v160.932l-67.83-65.656c-4.761-4.607-12.359-4.484-16.968,0.277c-4.609,4.762-4.486,12.359,0.276,16.969
			l82.653,80.004l-83.574,80.908c-4.762,4.609-4.885,12.205-0.275,16.967c2.354,2.432,5.486,3.654,8.623,3.654
			c3.006,0,6.016-1.123,8.346-3.379l68.749-66.555v160.912c0,6.627,5.373,12,12,12c0.074,0,0.146-0.01,0.22-0.012
			c0.075,0.002,0.15,0.012,0.225,0.012c2.947,0,5.901-1.08,8.218-3.258l102.382-96.258c2.391-2.246,3.756-5.375,3.78-8.654
			c0.023-3.281-1.297-6.43-3.654-8.711L203.124,204.523z M194.485,179.482V39.336l73.44,69.049L194.485,179.482z M194.485,369.695
			V229.563l73.439,71.086L194.485,369.695z"/>
		<path style="fill:#3D6889;" d="M277.553,204.52l46.438-44.955c4.762-4.609,4.885-12.207,0.275-16.969
			c-4.61-4.762-12.207-4.885-16.969-0.273L251.954,195.9c-2.335,2.26-3.653,5.371-3.653,8.621s1.318,6.361,3.654,8.623
			l55.344,53.568c2.33,2.254,5.339,3.377,8.345,3.377c3.137,0,6.27-1.223,8.623-3.654c4.609-4.762,4.485-12.359-0.276-16.969
			L277.553,204.52z"/>
	</g>
</g>
<g>
</g>
<g>
</g>
<g>
</g>
<g>
</g>
<g>
</g>
<g>
</g>
<g>
</g>
<g>
</g>
<g>
</g>
<g>
</g>
<g>
</g>
<g>
</g>
<g>
</g>
<g>
</g>
<g>
</g>
</svg>
