<?xml version="1.0" encoding="iso-8859-1"?>
<!-- Generator: Adobe Illustrator 18.0.0, SVG Export Plug-In . SVG Version: 6.00 Build 0)  -->
<!DOCTYPE svg PUBLIC "-//W3C//DTD SVG 1.1//EN" "http://www.w3.org/Graphics/SVG/1.1/DTD/svg11.dtd">
<svg version="1.1" id="Capa_1" xmlns="http://www.w3.org/2000/svg" xmlns:xlink="http://www.w3.org/1999/xlink" x="0px" y="0px"
	 viewBox="0 0 437.578 437.578" style="enable-background:new 0 0 437.578 437.578;" xml:space="preserve">
<g>
	<g>
		<path style="fill:none;" d="M51.743,347.26h334.092V153.392H51.743V347.26z M105.596,212.393
			c0-15.446,12.566-28.013,28.013-28.013H303.97c15.446,0,28.013,12.566,28.013,28.013v34.513c0,15.446-12.566,28.012-28.013,28.012
			H133.608c-15.446,0-28.013-12.566-28.013-28.012V212.393z"/>
		<path style="fill:none;" d="M133.608,250.918H303.97c2.212,0,4.013-1.8,4.013-4.012v-34.513c0-2.212-1.801-4.013-4.013-4.013
			H133.608c-2.212,0-4.013,1.8-4.013,4.013v34.513C129.596,249.118,131.396,250.918,133.608,250.918z"/>
		<rect x="24" y="90.318" style="fill:#73D0F4;" width="389.578" height="39.074"/>
		<path style="fill:#3D6889;" d="M425.578,66.318H12c-6.628,0-12,5.373-12,12v63.074c0,6.627,5.372,12,12,12h15.743V359.26
			c0,6.627,5.372,12,12,12h358.092c6.628,0,12-5.373,12-12V153.392h15.743c6.628,0,12-5.373,12-12V78.318
			C437.578,71.691,432.206,66.318,425.578,66.318z M413.578,129.392H24V90.318h389.578V129.392z M385.835,347.26H51.743V153.392
			h334.092V347.26z"/>
		<path style="fill:#3D6889;" d="M133.608,274.918H303.97c15.446,0,28.013-12.566,28.013-28.012v-34.513
			c0-15.446-12.566-28.013-28.013-28.013H133.608c-15.446,0-28.013,12.566-28.013,28.013v34.513
			C105.596,262.352,118.162,274.918,133.608,274.918z M129.596,212.393c0-2.212,1.801-4.013,4.013-4.013H303.97
			c2.212,0,4.013,1.8,4.013,4.013v34.513c0,2.212-1.801,4.012-4.013,4.012H133.608c-2.212,0-4.013-1.8-4.013-4.012V212.393z"/>
	</g>
</g>
<g>
</g>
<g>
</g>
<g>
</g>
<g>
</g>
<g>
</g>
<g>
</g>
<g>
</g>
<g>
</g>
<g>
</g>
<g>
</g>
<g>
</g>
<g>
</g>
<g>
</g>
<g>
</g>
<g>
</g>
</svg>
