<?xml version="1.0" encoding="iso-8859-1"?>
<!-- Generator: Adobe Illustrator 18.0.0, SVG Export Plug-In . SVG Version: 6.00 Build 0)  -->
<!DOCTYPE svg PUBLIC "-//W3C//DTD SVG 1.1//EN" "http://www.w3.org/Graphics/SVG/1.1/DTD/svg11.dtd">
<svg version="1.1" id="Capa_1" xmlns="http://www.w3.org/2000/svg" xmlns:xlink="http://www.w3.org/1999/xlink" x="0px" y="0px"
	 viewBox="0 0 405.934 405.934" style="enable-background:new 0 0 405.934 405.934;" xml:space="preserve">
<g>
	<g>
		<path style="fill:none;" d="M50.9,371.856c0,5.557,4.52,10.077,10.076,10.077h283.98c5.557,0,10.076-4.521,10.076-10.077V147.959
			H50.9V371.856z M269.168,177.224h56.463c6.627,0,12,5.373,12,12c0,6.628-5.373,12-12,12h-56.463c-6.629,0-12-5.372-12-12
			C257.168,182.597,262.539,177.224,269.168,177.224z M269.168,228.127h56.463c6.627,0,12,5.372,12,12c0,6.628-5.373,12-12,12
			h-56.463c-6.629,0-12-5.372-12-12C257.168,233.499,262.539,228.127,269.168,228.127z M257.168,291.029c0-6.628,5.371-12,12-12
			h56.463c6.627,0,12,5.372,12,12v50.903c0,6.628-5.373,12-12,12h-56.463c-6.629,0-12-5.372-12-12V291.029z M174.734,177.224h56.465
			c6.627,0,12,5.373,12,12c0,6.628-5.373,12-12,12h-56.465c-6.627,0-12-5.372-12-12
			C162.734,182.597,168.107,177.224,174.734,177.224z M174.734,228.127h56.465c6.627,0,12,5.372,12,12c0,6.628-5.373,12-12,12
			h-56.465c-6.627,0-12-5.372-12-12C162.734,233.499,168.107,228.127,174.734,228.127z M174.734,279.029h56.465
			c6.627,0,12,5.372,12,12c0,6.627-5.373,12-12,12h-56.465c-6.627,0-12-5.373-12-12
			C162.734,284.401,168.107,279.029,174.734,279.029z M174.734,329.933h56.465c6.627,0,12,5.373,12,12c0,6.628-5.373,12-12,12
			h-56.465c-6.627,0-12-5.372-12-12C162.734,335.305,168.107,329.933,174.734,329.933z M80.303,177.224h56.465
			c6.627,0,12,5.373,12,12c0,6.628-5.373,12-12,12H80.303c-6.627,0-12-5.372-12-12C68.303,182.597,73.676,177.224,80.303,177.224z
			 M80.303,228.127h56.465c6.627,0,12,5.372,12,12c0,6.628-5.373,12-12,12H80.303c-6.627,0-12-5.372-12-12
			C68.303,233.499,73.676,228.127,80.303,228.127z M80.303,279.029h56.465c6.627,0,12,5.372,12,12c0,6.627-5.373,12-12,12H80.303
			c-6.627,0-12-5.373-12-12C68.303,284.401,73.676,279.029,80.303,279.029z M80.303,329.933h56.465c6.627,0,12,5.373,12,12
			c0,6.628-5.373,12-12,12H80.303c-6.627,0-12-5.372-12-12C68.303,335.305,73.676,329.933,80.303,329.933z"/>
		<rect x="50.9" y="24" style="fill:none;" width="304.133" height="20.152"/>
		<rect x="50.9" y="68.152" style="fill:#73D0F4;" width="304.133" height="55.807"/>
		<rect x="281.166" y="303.029" style="fill:#73D0F4;" width="32.465" height="26.903"/>
		<path style="fill:#3D6889;" d="M367.033,0H38.9c-6.627,0-12,5.373-12,12v359.856c0,18.79,15.287,34.077,34.076,34.077h283.98
			c18.789,0,34.076-15.287,34.076-34.077V12C379.033,5.373,373.66,0,367.033,0z M50.9,24h304.133v20.152H50.9V24z M355.033,123.959
			H50.9V68.152h304.133V123.959z M355.033,371.856c0,5.557-4.52,10.077-10.076,10.077H60.977c-5.557,0-10.076-4.521-10.076-10.077
			V147.959h304.133V371.856z"/>
		<path style="fill:#3D6889;" d="M80.303,201.224h56.465c6.627,0,12-5.372,12-12c0-6.627-5.373-12-12-12H80.303
			c-6.627,0-12,5.373-12,12C68.303,195.851,73.676,201.224,80.303,201.224z"/>
		<path style="fill:#3D6889;" d="M269.168,201.224h56.463c6.627,0,12-5.372,12-12c0-6.627-5.373-12-12-12h-56.463
			c-6.629,0-12,5.373-12,12C257.168,195.851,262.539,201.224,269.168,201.224z"/>
		<path style="fill:#3D6889;" d="M174.734,201.224h56.465c6.627,0,12-5.372,12-12c0-6.627-5.373-12-12-12h-56.465
			c-6.627,0-12,5.373-12,12C162.734,195.851,168.107,201.224,174.734,201.224z"/>
		<path style="fill:#3D6889;" d="M80.303,252.127h56.465c6.627,0,12-5.372,12-12c0-6.628-5.373-12-12-12H80.303
			c-6.627,0-12,5.372-12,12C68.303,246.755,73.676,252.127,80.303,252.127z"/>
		<path style="fill:#3D6889;" d="M269.168,252.127h56.463c6.627,0,12-5.372,12-12c0-6.628-5.373-12-12-12h-56.463
			c-6.629,0-12,5.372-12,12C257.168,246.755,262.539,252.127,269.168,252.127z"/>
		<path style="fill:#3D6889;" d="M174.734,252.127h56.465c6.627,0,12-5.372,12-12c0-6.628-5.373-12-12-12h-56.465
			c-6.627,0-12,5.372-12,12C162.734,246.755,168.107,252.127,174.734,252.127z"/>
		<path style="fill:#3D6889;" d="M80.303,303.029h56.465c6.627,0,12-5.373,12-12c0-6.628-5.373-12-12-12H80.303
			c-6.627,0-12,5.372-12,12C68.303,297.657,73.676,303.029,80.303,303.029z"/>
		<path style="fill:#3D6889;" d="M269.168,353.933h56.463c6.627,0,12-5.372,12-12v-50.903c0-6.628-5.373-12-12-12h-56.463
			c-6.629,0-12,5.372-12,12v50.903C257.168,348.56,262.539,353.933,269.168,353.933z M281.166,303.029h32.465v26.903h-32.465
			V303.029z"/>
		<path style="fill:#3D6889;" d="M174.734,303.029h56.465c6.627,0,12-5.373,12-12c0-6.628-5.373-12-12-12h-56.465
			c-6.627,0-12,5.372-12,12C162.734,297.657,168.107,303.029,174.734,303.029z"/>
		<path style="fill:#3D6889;" d="M80.303,353.933h56.465c6.627,0,12-5.372,12-12c0-6.627-5.373-12-12-12H80.303
			c-6.627,0-12,5.373-12,12C68.303,348.56,73.676,353.933,80.303,353.933z"/>
		<path style="fill:#3D6889;" d="M174.734,353.933h56.465c6.627,0,12-5.372,12-12c0-6.627-5.373-12-12-12h-56.465
			c-6.627,0-12,5.373-12,12C162.734,348.56,168.107,353.933,174.734,353.933z"/>
	</g>
</g>
<g>
</g>
<g>
</g>
<g>
</g>
<g>
</g>
<g>
</g>
<g>
</g>
<g>
</g>
<g>
</g>
<g>
</g>
<g>
</g>
<g>
</g>
<g>
</g>
<g>
</g>
<g>
</g>
<g>
</g>
</svg>
