<?xml version="1.0" encoding="iso-8859-1"?>
<!-- Generator: Adobe Illustrator 18.0.0, SVG Export Plug-In . SVG Version: 6.00 Build 0)  -->
<!DOCTYPE svg PUBLIC "-//W3C//DTD SVG 1.1//EN" "http://www.w3.org/Graphics/SVG/1.1/DTD/svg11.dtd">
<svg version="1.1" id="Capa_1" xmlns="http://www.w3.org/2000/svg" xmlns:xlink="http://www.w3.org/1999/xlink" x="0px" y="0px"
	 viewBox="0 0 402.672 402.672" style="enable-background:new 0 0 402.672 402.672;" xml:space="preserve">
<g>
	<g>
		<path style="fill:none;" d="M330.277,132.44v-26.242H24v190.276h306.277v-26.24c0-5.941,4.347-10.987,10.223-11.867l38.172-5.718
			V150.024l-38.172-5.717C334.625,143.427,330.277,138.381,330.277,132.44z M270.103,223.955c6.627,0,12,5.373,12,12
			c0,6.627-5.373,12-12,12h-29.742v5.758c0,6.627-5.373,12-12,12h-27.613c-0.234,0-0.469-0.007-0.703-0.02
			c-29.924-1.756-54.133-23.854-59.523-52.356H80.66c-6.627,0-12-5.373-12-12c0-6.627,5.373-12,12-12h59.863
			c5.389-28.501,29.598-50.599,59.521-52.357c0.234-0.014,0.469-0.021,0.704-0.021h27.613c6.627,0,12,5.373,12,12v6.66h29.742
			c6.627,0,12,5.373,12,12c0,6.627-5.373,12-12,12h-29.742v44.337H270.103z"/>
		<path style="fill:#73D0F4;" d="M163.393,201.336c0,21.291,16.545,38.963,37.729,40.377h15.239v-80.755h-15.238
			C179.938,162.374,163.393,180.047,163.393,201.336z"/>
		<path style="fill:#3D6889;" d="M392.449,127.819l-38.172-5.716V94.198c0-6.627-5.373-12-12-12H12c-6.627,0-12,5.373-12,12v214.276
			c0,6.627,5.373,12,12,12h330.277c6.627,0,12-5.373,12-12v-27.903l38.172-5.718c5.875-0.88,10.223-5.926,10.223-11.867V139.687
			C402.672,133.746,398.324,128.699,392.449,127.819z M378.672,252.649l-38.172,5.718c-5.876,0.88-10.223,5.926-10.223,11.867v26.24
			H24V106.198h306.277v26.242c0,5.941,4.348,10.987,10.223,11.867l38.172,5.717V252.649z"/>
		<path style="fill:#3D6889;" d="M270.103,223.955h-29.742v-44.337h29.742c6.627,0,12-5.373,12-12c0-6.627-5.373-12-12-12h-29.742
			v-6.66c0-6.627-5.373-12-12-12h-27.613c-0.235,0-0.47,0.007-0.704,0.021c-29.923,1.759-54.132,23.856-59.521,52.357H80.66
			c-6.627,0-12,5.373-12,12c0,6.627,5.373,12,12,12h59.862c5.39,28.503,29.599,50.601,59.523,52.356
			c0.234,0.014,0.469,0.02,0.703,0.02h27.613c6.627,0,12-5.373,12-12v-5.758h29.742c6.627,0,12-5.373,12-12
			C282.103,229.329,276.73,223.955,270.103,223.955z M216.361,241.713h-15.239c-21.184-1.414-37.729-19.086-37.729-40.377
			c0-21.289,16.546-38.962,37.73-40.378h15.238V241.713z"/>
	</g>
</g>
<g>
</g>
<g>
</g>
<g>
</g>
<g>
</g>
<g>
</g>
<g>
</g>
<g>
</g>
<g>
</g>
<g>
</g>
<g>
</g>
<g>
</g>
<g>
</g>
<g>
</g>
<g>
</g>
<g>
</g>
</svg>
