<?xml version="1.0" encoding="iso-8859-1"?>
<!-- Generator: Adobe Illustrator 18.0.0, SVG Export Plug-In . SVG Version: 6.00 Build 0)  -->
<!DOCTYPE svg PUBLIC "-//W3C//DTD SVG 1.1//EN" "http://www.w3.org/Graphics/SVG/1.1/DTD/svg11.dtd">
<svg version="1.1" id="Capa_1" xmlns="http://www.w3.org/2000/svg" xmlns:xlink="http://www.w3.org/1999/xlink" x="0px" y="0px"
	 viewBox="0 0 452.373 452.373" style="enable-background:new 0 0 452.373 452.373;" xml:space="preserve">
<g>
	<g>
		<path style="fill:#73D0F4;" d="M166.38,313.347h10.032c6.628,0,12,5.373,12,12v37.014h75.549v-37.014c0-6.627,5.373-12,12-12
			h10.033l-59.807-43.82L166.38,313.347z"/>
		<path style="fill:#3D6889;" d="M349.127,173.868c-1.223,0-2.448,0.023-3.673,0.066c-6.007-60.509-57.203-107.921-119.267-107.921
			c-62.063,0-113.26,47.413-119.267,107.922c-1.226-0.044-2.452-0.066-3.675-0.066C46.316,173.868,0,220.185,0,277.114
			C0,334.045,46.316,380.36,103.246,380.36c6.628,0,12-5.372,12-12c0-6.627-5.372-12-12-12C59.551,356.36,24,320.811,24,277.114
			s35.551-79.246,79.246-79.246c4.373,0,8.791,0.366,13.135,1.088c3.507,0.583,7.094-0.42,9.79-2.738
			c2.696-2.318,4.226-5.713,4.176-9.269l-0.007-0.433c-0.004-0.216-0.008-0.432-0.008-0.649c0-52.854,43-95.855,95.856-95.855
			c52.855,0,95.855,43.001,95.855,95.855c0,0.204-0.004,0.407-0.007,0.61l-0.007,0.499c-0.043,3.552,1.492,6.939,4.188,9.251
			c2.697,2.311,6.275,3.311,9.783,2.727c4.33-0.721,8.746-1.087,13.127-1.087c43.697,0,79.246,35.55,79.246,79.246
			s-35.549,79.246-79.246,79.246c-6.627,0-12,5.373-12,12c0,6.628,5.373,12,12,12c56.931,0,103.246-46.315,103.246-103.246
			C452.373,220.185,406.058,173.868,349.127,173.868z"/>
		<path style="fill:#3D6889;" d="M168.883,181.607c0-28.45,23.145-51.596,51.596-51.596c6.628,0,12-5.372,12-12
			c0-6.627-5.372-12-12-12c-41.684,0-75.596,33.912-75.596,75.596c0,6.628,5.372,12,12,12
			C163.51,193.607,168.883,188.235,168.883,181.607z"/>
		<path style="fill:#3D6889;" d="M329.328,315.346l-96.049-70.376c-4.222-3.094-9.963-3.094-14.185,0l-96.488,70.697
			c-4.187,3.067-5.928,8.478-4.313,13.411c1.614,4.933,6.216,8.269,11.406,8.269h34.713v37.014c0,6.628,5.373,12,12,12h99.549
			c6.628,0,12-5.372,12-12v-37.014h34.715c0.006,0,0.013,0,0.02,0c6.627,0,12-5.372,12-12
			C334.695,321.172,332.564,317.495,329.328,315.346z M275.961,313.347c-6.627,0-12,5.373-12,12v37.014h-75.549v-37.014
			c0-6.627-5.372-12-12-12H166.38l59.808-43.82l59.807,43.82H275.961z"/>
	</g>
</g>
<g>
</g>
<g>
</g>
<g>
</g>
<g>
</g>
<g>
</g>
<g>
</g>
<g>
</g>
<g>
</g>
<g>
</g>
<g>
</g>
<g>
</g>
<g>
</g>
<g>
</g>
<g>
</g>
<g>
</g>
</svg>
