<?xml version="1.0" encoding="iso-8859-1"?>
<!-- Generator: Adobe Illustrator 18.0.0, SVG Export Plug-In . SVG Version: 6.00 Build 0)  -->
<!DOCTYPE svg PUBLIC "-//W3C//DTD SVG 1.1//EN" "http://www.w3.org/Graphics/SVG/1.1/DTD/svg11.dtd">
<svg version="1.1" id="Capa_1" xmlns="http://www.w3.org/2000/svg" xmlns:xlink="http://www.w3.org/1999/xlink" x="0px" y="0px"
	 viewBox="0 0 403.845 403.845" style="enable-background:new 0 0 403.845 403.845;" xml:space="preserve">
<g>
	<g>
		<path style="fill:none;" d="M213.759,347.002c-9.055,0-16.422,7.367-16.422,16.422c0,9.055,7.367,16.422,16.422,16.422
			c9.055,0,16.421-7.367,16.421-16.422C230.181,354.369,222.814,347.002,213.759,347.002z"/>
		<path style="fill:none;" d="M77.951,347.002c-9.055,0-16.422,7.367-16.422,16.422c0,9.055,7.367,16.422,16.422,16.422
			s16.422-7.367,16.422-16.422C94.373,354.369,87.006,347.002,77.951,347.002z"/>
		<path style="fill:none;" d="M339.77,347.002c-9.055,0-16.422,7.367-16.422,16.422c0,9.055,7.367,16.422,16.422,16.422
			c9.055,0,16.422-7.367,16.422-16.422C356.191,354.369,348.825,347.002,339.77,347.002z"/>
		<path style="fill:#73D0F4;" d="M321.554,213.847c1.917,1.164,4.156,1.393,6.215,1.223V82.478
			c-8.95,30.326-17.002,65.955-16.604,95.055C311.541,204.843,318.556,212.027,321.554,213.847z"/>
		<path style="fill:#73D0F4;" d="M246.912,91.105c0-39.545-17.472-67.104-33.152-67.104c-15.682,0-33.154,27.559-33.154,67.104
			c0,39.547,17.473,67.105,33.154,67.105C229.441,158.211,246.912,130.652,246.912,91.105z"/>
		<path style="fill:#3D6889;" d="M351.77,324.82V12.652c0-0.166-0.004-0.281-0.011-0.371c0.109-4.777-2.65-9.359-7.319-11.332
			c-6.104-2.578-13.143,0.277-15.723,6.381c-1.736,4.107-42.496,101.369-41.548,170.531c0.399,29.131,7.89,48.207,22.264,56.701
			c5.839,3.449,11.782,4.604,17.119,4.604c0.412,0,0.814-0.018,1.219-0.029v85.684c-16.448,5.123-28.422,20.49-28.422,38.604
			c0,22.289,18.133,40.422,40.422,40.422c22.289,0,40.422-18.133,40.422-40.422C380.191,345.31,368.217,329.943,351.77,324.82z
			 M327.77,82.478V215.07c-2.06,0.17-4.298-0.059-6.215-1.223c-2.999-1.82-10.014-9.004-10.388-36.314
			C310.767,148.433,318.819,112.804,327.77,82.478z M339.77,379.845c-9.055,0-16.422-7.367-16.422-16.422
			c0-9.055,7.367-16.422,16.422-16.422c9.055,0,16.422,7.367,16.422,16.422C356.191,372.478,348.825,379.845,339.77,379.845z"/>
		<path style="fill:#3D6889;" d="M117.5,143.179c14.557-14.486,14.8-34.4,14.745-37.498V20.402c0-6.627-5.373-12-12-12
			c-6.628,0-12,5.373-12,12v85.406c0,0.109-0.001,0.127,0.002,0.236c0.002,0.125,0.053,12.553-7.792,20.236
			c-2.72,2.666-6.234,4.547-10.504,5.639V12.002c0-6.627-5.372-12-12-12c-6.627,0-12,5.373-12,12V131.92
			c-4.27-1.092-7.784-2.973-10.504-5.639c-7.845-7.684-7.792-20.111-7.793-20.145c0.003-0.109,0.004-0.219,0.004-0.328V20.402
			c0-6.627-5.373-12-12-12c-6.628,0-12,5.373-12,12v85.277c-0.055,3.098,0.186,23.014,14.745,37.5
			c7.22,7.186,16.458,11.586,27.548,13.18V324.82c-16.448,5.123-28.422,20.49-28.422,38.604c0,22.289,18.133,40.422,40.422,40.422
			s40.422-18.133,40.422-40.422c0-18.113-11.974-33.48-28.422-38.604V156.359C101.041,154.765,110.281,150.363,117.5,143.179z
			 M94.373,363.424c0,9.055-7.367,16.422-16.422,16.422s-16.422-7.367-16.422-16.422c0-9.055,7.367-16.422,16.422-16.422
			S94.373,354.369,94.373,363.424z"/>
		<path style="fill:#3D6889;" d="M270.912,91.105c0-51.086-25.104-91.104-57.152-91.104c-32.049,0-57.154,40.018-57.154,91.104
			c0,44.506,19.055,80.608,45.154,89.17V324.82c-16.448,5.123-28.423,20.49-28.423,38.604c0,22.289,18.133,40.422,40.422,40.422
			c22.289,0,40.421-18.133,40.421-40.422c0-18.113-11.974-33.48-28.421-38.604V180.275
			C251.858,171.713,270.912,135.611,270.912,91.105z M180.605,91.105c0-39.545,17.473-67.104,33.154-67.104
			c15.681,0,33.152,27.559,33.152,67.104c0,39.547-17.472,67.105-33.152,67.105C198.078,158.211,180.605,130.652,180.605,91.105z
			 M230.181,363.424c0,9.055-7.367,16.422-16.421,16.422c-9.055,0-16.422-7.367-16.422-16.422c0-9.055,7.367-16.422,16.422-16.422
			C222.814,347.002,230.181,354.369,230.181,363.424z"/>
	</g>
</g>
<g>
</g>
<g>
</g>
<g>
</g>
<g>
</g>
<g>
</g>
<g>
</g>
<g>
</g>
<g>
</g>
<g>
</g>
<g>
</g>
<g>
</g>
<g>
</g>
<g>
</g>
<g>
</g>
<g>
</g>
</svg>
