<?xml version="1.0" encoding="iso-8859-1"?>
<!-- Generator: Adobe Illustrator 18.0.0, SVG Export Plug-In . SVG Version: 6.00 Build 0)  -->
<!DOCTYPE svg PUBLIC "-//W3C//DTD SVG 1.1//EN" "http://www.w3.org/Graphics/SVG/1.1/DTD/svg11.dtd">
<svg version="1.1" id="Capa_1" xmlns="http://www.w3.org/2000/svg" xmlns:xlink="http://www.w3.org/1999/xlink" x="0px" y="0px"
	 viewBox="0 0 403.221 403.221" style="enable-background:new 0 0 403.221 403.221;" xml:space="preserve">
<g>
	<path style="fill:none;" d="M195.884,44.59h129.669V24H33.078v310.631h20.591V186.805c0-3.182,1.264-6.234,3.515-8.484
		L187.399,48.105C189.65,45.854,192.702,44.59,195.884,44.59z"/>
	<path style="fill:none;" d="M207.885,68.676v118.129c0,6.627-5.374,12-12.001,12H77.669v180.416h292.473V68.59H207.881
		C207.881,68.619,207.885,68.646,207.885,68.676z"/>
	<polygon style="fill:#73D0F4;" points="183.884,85.561 94.64,174.805 183.884,174.805 	"/>
	<path style="fill:#3D6889;" d="M382.143,44.59h-32.59V12c0-6.628-5.373-12-12-12H21.078c-6.627,0-12,5.372-12,12v334.631
		c0,6.627,5.373,12,12,12h32.591v32.59c0,6.627,5.373,12,12,12h316.473c6.629,0,12-5.373,12-12V56.59
		C394.143,49.963,388.772,44.59,382.143,44.59z M57.184,178.32c-2.251,2.25-3.515,5.303-3.515,8.484v147.826H33.078V24h292.475
		v20.59H195.884c-3.183,0-6.234,1.265-8.485,3.516L57.184,178.32z M183.884,85.561v89.244H94.64L183.884,85.561z M370.143,379.221
		H77.669V198.805h118.215c6.627,0,12.001-5.373,12.001-12V68.676c0-0.029-0.004-0.057-0.004-0.086h162.262V379.221z"/>
</g>
<g>
</g>
<g>
</g>
<g>
</g>
<g>
</g>
<g>
</g>
<g>
</g>
<g>
</g>
<g>
</g>
<g>
</g>
<g>
</g>
<g>
</g>
<g>
</g>
<g>
</g>
<g>
</g>
<g>
</g>
</svg>
