<?xml version="1.0" encoding="iso-8859-1"?>
<!-- Generator: Adobe Illustrator 18.0.0, SVG Export Plug-In . SVG Version: 6.00 Build 0)  -->
<!DOCTYPE svg PUBLIC "-//W3C//DTD SVG 1.1//EN" "http://www.w3.org/Graphics/SVG/1.1/DTD/svg11.dtd">
<svg version="1.1" id="Capa_1" xmlns="http://www.w3.org/2000/svg" xmlns:xlink="http://www.w3.org/1999/xlink" x="0px" y="0px"
	 viewBox="0 0 392.276 392.276" style="enable-background:new 0 0 392.276 392.276;" xml:space="preserve">
<path style="fill:#3D6889;" d="M380.276,57.011H12c-6.627,0-12,5.373-12,12v254.255c0,6.627,5.373,12,12,12h368.276
	c6.627,0,12-5.373,12-12V69.011C392.276,62.384,386.904,57.011,380.276,57.011z M24,96.471l57.35,53.085L24,203.836V96.471z
	 M42.629,81.011h307.017L196.138,223.105L42.629,81.011z M368.276,96.47v107.364l-57.35-54.279L368.276,96.47z M24,311.266v-74.385
	l75.001-70.986l88.986,82.369c2.3,2.129,5.226,3.193,8.151,3.193c2.926,0,5.852-1.064,8.151-3.193l88.986-82.369l73.279,69.355
	c0.54,0.512,1.12,0.957,1.722,1.349v74.667H24z"/>
<g>
</g>
<g>
</g>
<g>
</g>
<g>
</g>
<g>
</g>
<g>
</g>
<g>
</g>
<g>
</g>
<g>
</g>
<g>
</g>
<g>
</g>
<g>
</g>
<g>
</g>
<g>
</g>
<g>
</g>
</svg>
