<?xml version="1.0" encoding="iso-8859-1"?>
<!-- Generator: Adobe Illustrator 18.0.0, SVG Export Plug-In . SVG Version: 6.00 Build 0)  -->
<!DOCTYPE svg PUBLIC "-//W3C//DTD SVG 1.1//EN" "http://www.w3.org/Graphics/SVG/1.1/DTD/svg11.dtd">
<svg version="1.1" id="Capa_1" xmlns="http://www.w3.org/2000/svg" xmlns:xlink="http://www.w3.org/1999/xlink" x="0px" y="0px"
	 viewBox="0 0 382.975 382.975" style="enable-background:new 0 0 382.975 382.975;" xml:space="preserve">
<g>
	<g>
		<path style="fill:none;" d="M346.566,24H36.408C29.566,24,24,29.566,24,36.408v310.158c0,6.842,5.566,12.408,12.408,12.408
			h310.158c6.842,0,12.408-5.566,12.408-12.408V36.408C358.975,29.566,353.408,24,346.566,24z M70.09,338.251
			c-1.805,0-3.619-0.406-5.301-1.234c-4.1-2.021-6.697-6.194-6.697-10.766V56.724c0-4.571,2.598-8.745,6.697-10.766
			c4.104-2.021,8.994-1.534,12.617,1.252l175.283,134.764c2.955,2.27,4.686,5.786,4.686,9.513c0,3.727-1.73,7.242-4.686,9.514
			L77.406,335.765C75.268,337.408,72.688,338.251,70.09,338.251z M320.197,201L144.916,335.765
			c-2.182,1.676-4.754,2.487-7.307,2.487c-3.6,0-7.158-1.612-9.521-4.686c-4.039-5.254-3.055-12.788,2.199-16.827l162.908-125.252
			L130.287,66.236c-5.254-4.039-6.238-11.573-2.199-16.827c4.039-5.254,11.574-6.238,16.828-2.199l175.281,134.764
			c2.955,2.271,4.686,5.786,4.686,9.513C324.883,195.213,323.152,198.729,320.197,201z"/>
		<path style="fill:#73D0F4;" d="M82.092,301.889l143.596-110.402L82.092,81.086V301.889z M106.951,238.053l74.113-56.98
			c5.256-4.04,12.787-3.055,16.828,2.199c4.039,5.254,3.055,12.788-2.199,16.827l-74.113,56.98c-2.18,1.677-4.752,2.487-7.305,2.487
			c-3.6,0-7.158-1.612-9.523-4.687C100.713,249.626,101.697,242.093,106.951,238.053z"/>
		<path style="fill:#3D6889;" d="M346.566,0H36.408C16.334,0,0,16.332,0,36.408v310.158c0,20.075,16.334,36.408,36.408,36.408
			h310.158c20.076,0,36.408-16.333,36.408-36.408V36.408C382.975,16.332,366.643,0,346.566,0z M358.975,346.566
			c0,6.842-5.566,12.408-12.408,12.408H36.408c-6.842,0-12.408-5.566-12.408-12.408V36.408C24,29.566,29.566,24,36.408,24h310.158
			c6.842,0,12.408,5.566,12.408,12.408V346.566z"/>
		<path style="fill:#3D6889;" d="M257.375,191.486c0-3.726-1.73-7.242-4.686-9.513L77.406,47.21
			c-3.623-2.786-8.514-3.272-12.617-1.252c-4.1,2.021-6.697,6.194-6.697,10.766v269.527c0,4.571,2.598,8.745,6.697,10.766
			c1.682,0.828,3.496,1.234,5.301,1.234c2.598,0,5.178-0.843,7.316-2.486L252.689,201
			C255.645,198.729,257.375,195.213,257.375,191.486z M82.092,301.889V81.086l143.596,110.4L82.092,301.889z"/>
		<path style="fill:#3D6889;" d="M114.275,259.566c2.553,0,5.125-0.811,7.305-2.487l74.113-56.98
			c5.254-4.039,6.238-11.573,2.199-16.827c-4.041-5.254-11.572-6.239-16.828-2.199l-74.113,56.98
			c-5.254,4.04-6.238,11.573-2.199,16.827C107.117,257.954,110.676,259.566,114.275,259.566z"/>
		<path style="fill:#3D6889;" d="M320.197,181.974L144.916,47.21c-5.254-4.039-12.789-3.055-16.828,2.199
			c-4.039,5.254-3.055,12.788,2.199,16.827l162.908,125.25L130.287,316.738c-5.254,4.039-6.238,11.573-2.199,16.827
			c2.363,3.074,5.922,4.686,9.521,4.686c2.553,0,5.125-0.811,7.307-2.487L320.197,201c2.955-2.271,4.686-5.787,4.686-9.514
			C324.883,187.76,323.152,184.245,320.197,181.974z"/>
	</g>
</g>
<g>
</g>
<g>
</g>
<g>
</g>
<g>
</g>
<g>
</g>
<g>
</g>
<g>
</g>
<g>
</g>
<g>
</g>
<g>
</g>
<g>
</g>
<g>
</g>
<g>
</g>
<g>
</g>
<g>
</g>
</svg>
