<?xml version="1.0" encoding="iso-8859-1"?>
<!-- Generator: Adobe Illustrator 18.0.0, SVG Export Plug-In . SVG Version: 6.00 Build 0)  -->
<!DOCTYPE svg PUBLIC "-//W3C//DTD SVG 1.1//EN" "http://www.w3.org/Graphics/SVG/1.1/DTD/svg11.dtd">
<svg version="1.1" id="Capa_1" xmlns="http://www.w3.org/2000/svg" xmlns:xlink="http://www.w3.org/1999/xlink" x="0px" y="0px"
	 viewBox="0 0 410.924 410.924" style="enable-background:new 0 0 410.924 410.924;" xml:space="preserve">
<g>
	<g>
		<path style="fill:none;" d="M181.531,268.292c1.656,2.113,2.557,4.721,2.557,7.404v77.008l42.748-22.898v-54.109
			c0-2.684,0.9-5.291,2.557-7.404l109.932-140.219H71.6L181.531,268.292z"/>
		<rect x="24" y="50.179" style="fill:#73D0F4;" width="362.924" height="53.895"/>
		<path style="fill:#3D6889;" d="M398.924,26.179H12c-6.627,0-12,5.373-12,12v77.895c0,6.627,5.373,12,12,12h29.104l118.984,151.768
			v92.904c0,4.221,2.217,8.129,5.836,10.297c1.895,1.135,4.027,1.703,6.164,1.703c1.945,0,3.895-0.473,5.666-1.422l66.748-35.754
			c3.9-2.09,6.334-6.154,6.334-10.578v-57.15L369.82,128.073h29.103c6.627,0,12-5.373,12-12V38.179
			C410.924,31.552,405.551,26.179,398.924,26.179z M229.393,268.292c-1.656,2.113-2.557,4.721-2.557,7.404v54.109l-42.748,22.898
			v-77.008c0-2.684-0.9-5.291-2.557-7.404L71.6,128.073h267.725L229.393,268.292z M386.924,104.073H24V50.179h362.924V104.073z"/>
	</g>
</g>
<g>
</g>
<g>
</g>
<g>
</g>
<g>
</g>
<g>
</g>
<g>
</g>
<g>
</g>
<g>
</g>
<g>
</g>
<g>
</g>
<g>
</g>
<g>
</g>
<g>
</g>
<g>
</g>
<g>
</g>
</svg>
