<?xml version="1.0" encoding="iso-8859-1"?>
<!-- Generator: Adobe Illustrator 18.0.0, SVG Export Plug-In . SVG Version: 6.00 Build 0)  -->
<!DOCTYPE svg PUBLIC "-//W3C//DTD SVG 1.1//EN" "http://www.w3.org/Graphics/SVG/1.1/DTD/svg11.dtd">
<svg version="1.1" id="Capa_1" xmlns="http://www.w3.org/2000/svg" xmlns:xlink="http://www.w3.org/1999/xlink" x="0px" y="0px"
	 viewBox="0 0 419.11 419.11" style="enable-background:new 0 0 419.11 419.11;" xml:space="preserve">
<g>
	<g>
		<rect x="65.074" y="24" style="fill:none;" width="25.21" height="15.154"/>
		<rect x="65.074" y="63.154" style="fill:none;" width="25.21" height="331.956"/>
		<path style="fill:#73D0F4;" d="M303.736,137.84l41.826-74.686H114.284v161.098h231.278l-41.826-74.685
			C301.696,145.925,301.695,141.483,303.736,137.84z"/>
		<path style="fill:#3D6889;" d="M327.96,143.704l48.547-86.686c2.081-3.717,2.036-8.257-0.116-11.932
			c-2.154-3.675-6.094-5.933-10.354-5.933H114.284V12c0-6.628-5.372-12-12-12h-49.21c-6.628,0-12,5.372-12,12v395.11
			c0,6.627,5.372,12,12,12h49.21c6.628,0,12-5.373,12-12V248.252h251.753c4.26,0,8.199-2.258,10.354-5.933
			c2.152-3.675,2.197-8.215,0.116-11.932L327.96,143.704z M90.284,395.11h-25.21V63.154h25.21V395.11z M90.284,39.154h-25.21V24
			h25.21V39.154z M114.284,224.252V63.154h231.278l-41.826,74.686c-2.041,3.643-2.04,8.085,0,11.727l41.826,74.685H114.284z"/>
	</g>
</g>
<g>
</g>
<g>
</g>
<g>
</g>
<g>
</g>
<g>
</g>
<g>
</g>
<g>
</g>
<g>
</g>
<g>
</g>
<g>
</g>
<g>
</g>
<g>
</g>
<g>
</g>
<g>
</g>
<g>
</g>
</svg>
