<?xml version="1.0" encoding="iso-8859-1"?>
<!-- Generator: Adobe Illustrator 18.0.0, SVG Export Plug-In . SVG Version: 6.00 Build 0)  -->
<!DOCTYPE svg PUBLIC "-//W3C//DTD SVG 1.1//EN" "http://www.w3.org/Graphics/SVG/1.1/DTD/svg11.dtd">
<svg version="1.1" id="Capa_1" xmlns="http://www.w3.org/2000/svg" xmlns:xlink="http://www.w3.org/1999/xlink" x="0px" y="0px"
	 viewBox="0 0 402.672 402.672" style="enable-background:new 0 0 402.672 402.672;" xml:space="preserve">
<g>
	<path style="fill:none;" d="M330.278,132.44v-26.242H24v190.276h306.278v-26.24c0-5.941,4.348-10.987,10.223-11.867l38.171-5.718
		V150.024l-38.171-5.716C334.626,143.427,330.278,138.381,330.278,132.44z M130.663,264.51c0,6.627-5.372,12-12,12H60.219
		c-6.628,0-12-5.373-12-12v-126.35c0-6.627,5.372-12,12-12h58.444c6.628,0,12,5.373,12,12V264.51z M222.079,264.51
		c0,6.627-5.373,12-12,12h-58.445c-6.627,0-12-5.373-12-12v-126.35c0-6.627,5.373-12,12-12h58.445c6.627,0,12,5.373,12,12V264.51z
		 M313.495,264.51c0,6.627-5.373,12-12,12H243.05c-6.627,0-12-5.373-12-12v-126.35c0-6.627,5.373-12,12-12h58.445
		c6.627,0,12,5.373,12,12V264.51z"/>
	<rect x="72.219" y="150.161" style="fill:#73D0F4;" width="34.444" height="102.35"/>
	<rect x="163.634" y="150.161" style="fill:#73D0F4;" width="34.445" height="102.35"/>
	<rect x="255.05" y="150.161" style="fill:#73D0F4;" width="34.445" height="102.35"/>
	<path style="fill:#3D6889;" d="M392.449,127.82l-38.171-5.717V94.198c0-6.627-5.372-12-12-12H12c-6.628,0-12,5.373-12,12v214.276
		c0,6.627,5.372,12,12,12h330.278c6.628,0,12-5.373,12-12v-27.903l38.171-5.718c5.876-0.88,10.223-5.926,10.223-11.867V139.687
		C402.672,133.746,398.325,128.7,392.449,127.82z M378.672,252.649l-38.171,5.718c-5.875,0.88-10.223,5.926-10.223,11.867v26.24H24
		V106.198h306.278v26.242c0,5.941,4.348,10.987,10.223,11.868l38.171,5.716V252.649z"/>
	<path style="fill:#3D6889;" d="M118.663,126.161H60.219c-6.628,0-12,5.373-12,12v126.35c0,6.627,5.372,12,12,12h58.444
		c6.628,0,12-5.373,12-12v-126.35C130.663,131.534,125.291,126.161,118.663,126.161z M106.663,252.51H72.219v-102.35h34.444V252.51z
		"/>
	<path style="fill:#3D6889;" d="M210.079,126.161h-58.445c-6.627,0-12,5.373-12,12v126.35c0,6.627,5.373,12,12,12h58.445
		c6.627,0,12-5.373,12-12v-126.35C222.079,131.534,216.706,126.161,210.079,126.161z M198.079,252.51h-34.445v-102.35h34.445V252.51
		z"/>
	<path style="fill:#3D6889;" d="M301.495,126.161H243.05c-6.627,0-12,5.373-12,12v126.35c0,6.627,5.373,12,12,12h58.445
		c6.627,0,12-5.373,12-12v-126.35C313.495,131.534,308.122,126.161,301.495,126.161z M289.495,252.51H255.05v-102.35h34.445V252.51z
		"/>
</g>
<g>
</g>
<g>
</g>
<g>
</g>
<g>
</g>
<g>
</g>
<g>
</g>
<g>
</g>
<g>
</g>
<g>
</g>
<g>
</g>
<g>
</g>
<g>
</g>
<g>
</g>
<g>
</g>
<g>
</g>
</svg>
