<?xml version="1.0" encoding="iso-8859-1"?>
<!-- Generator: Adobe Illustrator 18.0.0, SVG Export Plug-In . SVG Version: 6.00 Build 0)  -->
<!DOCTYPE svg PUBLIC "-//W3C//DTD SVG 1.1//EN" "http://www.w3.org/Graphics/SVG/1.1/DTD/svg11.dtd">
<svg version="1.1" id="Capa_1" xmlns="http://www.w3.org/2000/svg" xmlns:xlink="http://www.w3.org/1999/xlink" x="0px" y="0px"
	 viewBox="0 0 431.445 431.445" style="enable-background:new 0 0 431.445 431.445;" xml:space="preserve">
<g>
	<g>
		<path style="fill:none;" d="M328.723,133.983c-4.18-6.988-11.545-11.16-19.703-11.16c-4.117,0-8.176,1.127-11.738,3.258
			l-23.117,13.831c-2.758,1.65-6.535,3.909-58.441,3.909c-51.908,0-55.684-2.259-58.441-3.908l-23.117-13.832
			c-3.563-2.131-7.621-3.258-11.738-3.258c-8.158,0-15.525,4.172-19.705,11.16L27.272,260.09
			c-3.145,5.255-4.055,11.419-2.563,17.358c1.494,5.939,5.209,10.94,10.463,14.084l23.117,13.831
			c3.563,2.131,7.621,3.258,11.738,3.258c8.158,0,15.523-4.171,19.705-11.16l30.07-50.261c2.166-3.621,6.076-5.839,10.297-5.839
			h171.244c4.221,0,8.131,2.218,10.299,5.839l30.07,50.26c4.179,6.988,11.546,11.16,19.704,11.161c4.115,0,8.174-1.127,11.736-3.258
			l23.117-13.831c5.254-3.144,8.971-8.145,10.463-14.084c1.492-5.94,0.584-12.104-2.561-17.358L328.723,133.983z M146.01,232.389
			c-22.346,0-40.527-18.181-40.527-40.527c0-22.345,18.182-40.525,40.527-40.525s40.525,18.18,40.525,40.525
			C186.536,214.208,168.356,232.389,146.01,232.389z M285.434,232.389c-22.346,0-40.525-18.181-40.525-40.527
			c0-22.345,18.18-40.525,40.525-40.525c22.348,0,40.527,18.18,40.527,40.525C325.961,214.208,307.782,232.389,285.434,232.389z"/>
		<path style="fill:#73D0F4;" d="M146.01,175.336c-9.113,0-16.527,7.413-16.527,16.525c0,9.113,7.414,16.527,16.527,16.527
			s16.525-7.414,16.525-16.527C162.536,182.749,155.123,175.336,146.01,175.336z"/>
		<path style="fill:#73D0F4;" d="M285.434,175.336c-9.111,0-16.525,7.413-16.525,16.525c0,9.113,7.414,16.527,16.525,16.527
			c9.113,0,16.527-7.414,16.527-16.527C301.961,182.749,294.547,175.336,285.434,175.336z"/>
		<path style="fill:#3D6889;" d="M424.769,247.768l-75.451-126.106c-8.425-14.087-23.868-22.838-40.298-22.838
			c-8.455,0-16.775,2.304-24.061,6.663l-21.603,12.926c-4.797,0.631-21.354,1.409-47.633,1.409c-26.281,0-42.838-0.778-47.633-1.409
			l-21.604-12.927c-7.285-4.358-15.605-6.662-24.061-6.662c-16.432,0-31.873,8.751-40.301,22.837L6.676,247.768
			c-6.436,10.756-8.297,23.374-5.242,35.53c3.055,12.156,10.662,22.396,21.418,28.829l23.115,13.831
			c7.285,4.358,15.605,6.663,24.061,6.663c16.43,0,31.873-8.752,40.301-22.839l26.576-44.421h157.635l26.578,44.421
			c8.426,14.087,23.868,22.838,40.298,22.839h0.002c8.455,0,16.773-2.305,24.059-6.663l23.115-13.83
			c10.758-6.435,18.363-16.674,21.42-28.83C433.066,271.142,431.204,258.524,424.769,247.768z M406.734,277.449
			c-1.492,5.939-5.209,10.94-10.463,14.084l-23.117,13.831c-3.563,2.131-7.621,3.258-11.736,3.258
			c-8.158-0.001-15.525-4.173-19.704-11.161l-30.07-50.26c-2.168-3.621-6.078-5.839-10.299-5.839H130.1
			c-4.221,0-8.131,2.218-10.297,5.839l-30.07,50.261c-4.182,6.989-11.547,11.16-19.705,11.16c-4.117,0-8.176-1.127-11.738-3.258
			l-23.117-13.831c-5.254-3.144-8.969-8.145-10.463-14.084c-1.492-5.94-0.582-12.104,2.563-17.358l75.449-126.107
			c4.18-6.988,11.547-11.16,19.705-11.16c4.117,0,8.176,1.127,11.738,3.258l23.117,13.832c2.758,1.649,6.533,3.908,58.441,3.908
			c51.906,0,55.684-2.259,58.441-3.909l23.117-13.831c3.563-2.131,7.621-3.258,11.738-3.258c8.158,0,15.523,4.172,19.703,11.16
			l75.45,126.107C407.318,265.345,408.226,271.509,406.734,277.449z"/>
		<path style="fill:#3D6889;" d="M146.01,151.336c-22.346,0-40.527,18.18-40.527,40.525c0,22.347,18.182,40.527,40.527,40.527
			s40.525-18.181,40.525-40.527C186.536,169.516,168.356,151.336,146.01,151.336z M146.01,208.389
			c-9.113,0-16.527-7.414-16.527-16.527c0-9.112,7.414-16.525,16.527-16.525s16.525,7.413,16.525,16.525
			C162.536,200.975,155.123,208.389,146.01,208.389z"/>
		<path style="fill:#3D6889;" d="M285.434,151.336c-22.346,0-40.525,18.18-40.525,40.525c0,22.347,18.18,40.527,40.525,40.527
			c22.348,0,40.527-18.181,40.527-40.527C325.961,169.516,307.782,151.336,285.434,151.336z M285.434,208.389
			c-9.111,0-16.525-7.414-16.525-16.527c0-9.112,7.414-16.525,16.525-16.525c9.113,0,16.527,7.413,16.527,16.525
			C301.961,200.975,294.547,208.389,285.434,208.389z"/>
	</g>
</g>
<g>
</g>
<g>
</g>
<g>
</g>
<g>
</g>
<g>
</g>
<g>
</g>
<g>
</g>
<g>
</g>
<g>
</g>
<g>
</g>
<g>
</g>
<g>
</g>
<g>
</g>
<g>
</g>
<g>
</g>
</svg>
