<?xml version="1.0" encoding="iso-8859-1"?>
<!-- Generator: Adobe Illustrator 18.0.0, SVG Export Plug-In . SVG Version: 6.00 Build 0)  -->
<!DOCTYPE svg PUBLIC "-//W3C//DTD SVG 1.1//EN" "http://www.w3.org/Graphics/SVG/1.1/DTD/svg11.dtd">
<svg version="1.1" id="Capa_1" xmlns="http://www.w3.org/2000/svg" xmlns:xlink="http://www.w3.org/1999/xlink" x="0px" y="0px"
	 viewBox="0 0 445.158 445.158" style="enable-background:new 0 0 445.158 445.158;" xml:space="preserve">
<g>
	<g>
		<path style="fill:none;" d="M171.826,146.993c-16.844,0-30.547,13.703-30.547,30.547c0,16.843,13.703,30.546,30.547,30.546
			c16.844,0,30.549-13.703,30.549-30.546C202.375,160.696,188.67,146.993,171.826,146.993z"/>
		<path style="fill:none;" d="M390.611,61.899c-16.844,0-30.547,13.703-30.547,30.547c0,16.844,13.703,30.547,30.547,30.547
			c16.844,0,30.547-13.703,30.547-30.547C421.158,75.603,407.455,61.899,390.611,61.899z"/>
		<path style="fill:#73D0F4;" d="M54.547,322.165C37.703,322.165,24,335.868,24,352.712c0,16.844,13.703,30.547,30.547,30.547
			c16.844,0,30.547-13.703,30.547-30.547C85.094,335.868,71.391,322.165,54.547,322.165z"/>
		<path style="fill:#73D0F4;" d="M320.359,283.962c0-16.842-13.705-30.545-30.549-30.545c-16.844,0-30.547,13.703-30.547,30.545
			c0,16.844,13.703,30.547,30.547,30.547C306.654,314.509,320.359,300.806,320.359,283.962z"/>
		<path style="fill:#3D6889;" d="M390.611,37.899c-30.076,0-54.547,24.47-54.547,54.547c0,16.583,7.447,31.45,19.164,41.463
			l-51.256,97.383c-4.52-1.216-9.264-1.875-14.162-1.875c-11.705,0-22.553,3.719-31.447,10.019l-39.006-35.183
			c4.459-7.901,7.018-17.012,7.018-26.712c0-30.078-24.471-54.547-54.549-54.547c-30.076,0-54.547,24.47-54.547,54.547
			c0,14.519,5.713,27.72,14.996,37.504L74.17,301.831c-6.094-2.358-12.707-3.666-19.623-3.666C24.469,298.165,0,322.635,0,352.712
			c0,30.077,24.469,54.547,54.547,54.547c30.076,0,54.547-24.47,54.547-54.547c0-14.519-5.713-27.721-14.996-37.505l58.105-86.786
			c6.094,2.358,12.707,3.666,19.623,3.666c11.707,0,22.553-3.719,31.449-10.02l39.004,35.183
			c-4.457,7.901-7.016,17.011-7.016,26.712c0,30.077,24.471,54.547,54.547,54.547c30.078,0,54.549-24.47,54.549-54.547
			c0-16.583-7.449-31.45-19.164-41.462l51.254-97.382c4.52,1.216,9.264,1.876,14.162,1.876c30.078,0,54.547-24.47,54.547-54.547
			C445.158,62.369,420.689,37.899,390.611,37.899z M54.547,383.259C37.703,383.259,24,369.556,24,352.712
			c0-16.844,13.703-30.547,30.547-30.547c16.844,0,30.547,13.703,30.547,30.547C85.094,369.556,71.391,383.259,54.547,383.259z
			 M171.826,208.087c-16.844,0-30.547-13.703-30.547-30.546c0-16.844,13.703-30.547,30.547-30.547
			c16.844,0,30.549,13.703,30.549,30.547C202.375,194.384,188.67,208.087,171.826,208.087z M259.264,283.962
			c0-16.842,13.703-30.545,30.547-30.545c16.844,0,30.549,13.703,30.549,30.545c0,16.844-13.705,30.547-30.549,30.547
			C272.967,314.509,259.264,300.806,259.264,283.962z M390.611,122.993c-16.844,0-30.547-13.703-30.547-30.547
			c0-16.844,13.703-30.547,30.547-30.547c16.844,0,30.547,13.703,30.547,30.547C421.158,109.291,407.455,122.993,390.611,122.993z"
			/>
	</g>
</g>
<g>
</g>
<g>
</g>
<g>
</g>
<g>
</g>
<g>
</g>
<g>
</g>
<g>
</g>
<g>
</g>
<g>
</g>
<g>
</g>
<g>
</g>
<g>
</g>
<g>
</g>
<g>
</g>
<g>
</g>
</svg>
