<?xml version="1.0" encoding="iso-8859-1"?>
<!-- Generator: Adobe Illustrator 18.0.0, SVG Export Plug-In . SVG Version: 6.00 Build 0)  -->
<!DOCTYPE svg PUBLIC "-//W3C//DTD SVG 1.1//EN" "http://www.w3.org/Graphics/SVG/1.1/DTD/svg11.dtd">
<svg version="1.1" id="Capa_1" xmlns="http://www.w3.org/2000/svg" xmlns:xlink="http://www.w3.org/1999/xlink" x="0px" y="0px"
	 viewBox="0 0 417.581 417.581" style="enable-background:new 0 0 417.581 417.581;" xml:space="preserve">
<g>
	<rect x="24" y="343.711" style="fill:none;" width="369.581" height="17.67"/>
	<path style="fill:none;" d="M352.526,56.2H65.056v184.049h287.471V56.2z M312.252,94.135H102.991v119.873c0,6.627-5.373,12-12,12
		c-6.627,0-12-5.373-12-12V82.135c0-6.627,5.373-12,12-12h221.261c6.628,0,12,5.373,12,12
		C324.252,88.762,318.88,94.135,312.252,94.135z"/>
	<path style="fill:#73D0F4;" d="M62.974,264.249l-30.637,55.463h352.906l-30.635-55.463H62.974z M218.27,303.981H90.08
		c-6.628,0-12-5.373-12-12c0-6.627,5.372-12,12-12H218.27c6.628,0,12,5.373,12,12C230.27,298.608,224.897,303.981,218.27,303.981z
		 M275.523,300.465c-2.229,2.23-5.32,3.521-8.479,3.521c-3.16,0-6.25-1.291-8.49-3.521c-2.23-2.229-3.51-5.33-3.51-8.488
		c0-3.16,1.279-6.25,3.51-8.48c2.24-2.23,5.33-3.51,8.49-3.51c3.159,0,6.25,1.279,8.479,3.51c2.239,2.23,3.521,5.32,3.521,8.48
		C279.044,295.135,277.763,298.237,275.523,300.465z M323.013,300.465c-2.229,2.23-5.33,3.521-8.479,3.521
		c-3.16,0-6.25-1.291-8.489-3.521c-2.23-2.229-3.511-5.33-3.511-8.488c0-3.16,1.28-6.25,3.511-8.48
		c2.229-2.23,5.329-3.51,8.489-3.51c3.16,0,6.25,1.279,8.479,3.51c2.24,2.23,3.521,5.33,3.521,8.48
		C326.533,295.135,325.253,298.237,323.013,300.465z"/>
	<path style="fill:#3D6889;" d="M417.561,332.116c0.072-2.129-0.41-4.275-1.477-6.205l-39.705-71.883
		c0.087-0.582,0.146-1.174,0.146-1.779V44.2c0-6.627-5.373-12-12-12H53.056c-6.627,0-12,5.373-12,12v208.049
		c0,0.605,0.06,1.197,0.146,1.779L1.496,325.911c-1.04,1.881-1.532,3.971-1.489,6.049C0.007,331.983,0,332,0,332.022v41.359
		c0,6.627,5.372,12,12,12h393.581c6.627,0,12-5.373,12-12V332.28C417.581,332.221,417.565,332.172,417.561,332.116z M32.337,319.711
		l30.637-55.463h291.635l30.635,55.463H32.337z M65.056,56.2h287.471v184.049H65.056V56.2z M393.581,361.381H24v-17.67h369.581
		V361.381z"/>
	<path style="fill:#3D6889;" d="M312.252,70.135H90.991c-6.627,0-12,5.373-12,12v131.873c0,6.627,5.373,12,12,12
		c6.627,0,12-5.373,12-12V94.135h209.261c6.628,0,12-5.373,12-12C324.252,75.508,318.88,70.135,312.252,70.135z"/>
	<path style="fill:#3D6889;" d="M218.27,279.981H90.08c-6.628,0-12,5.373-12,12c0,6.627,5.372,12,12,12H218.27
		c6.628,0,12-5.373,12-12C230.27,285.354,224.897,279.981,218.27,279.981z"/>
	<path style="fill:#3D6889;" d="M267.044,279.987c-3.16,0-6.25,1.279-8.49,3.51c-2.23,2.23-3.51,5.32-3.51,8.48
		c0,3.158,1.279,6.26,3.51,8.488c2.24,2.23,5.33,3.521,8.49,3.521c3.159,0,6.25-1.291,8.479-3.521
		c2.239-2.229,3.521-5.33,3.521-8.488c0-3.16-1.281-6.25-3.521-8.48C273.294,281.266,270.203,279.987,267.044,279.987z"/>
	<path style="fill:#3D6889;" d="M314.533,279.987c-3.16,0-6.26,1.279-8.489,3.51c-2.23,2.23-3.511,5.32-3.511,8.48
		c0,3.158,1.28,6.26,3.511,8.488c2.239,2.23,5.329,3.521,8.489,3.521c3.149,0,6.25-1.291,8.479-3.521
		c2.24-2.229,3.521-5.33,3.521-8.488c0-3.15-1.28-6.25-3.521-8.48C320.783,281.266,317.693,279.987,314.533,279.987z"/>
</g>
<g>
</g>
<g>
</g>
<g>
</g>
<g>
</g>
<g>
</g>
<g>
</g>
<g>
</g>
<g>
</g>
<g>
</g>
<g>
</g>
<g>
</g>
<g>
</g>
<g>
</g>
<g>
</g>
<g>
</g>
</svg>
