<?xml version="1.0" encoding="iso-8859-1"?>
<!-- Generator: Adobe Illustrator 18.0.0, SVG Export Plug-In . SVG Version: 6.00 Build 0)  -->
<!DOCTYPE svg PUBLIC "-//W3C//DTD SVG 1.1//EN" "http://www.w3.org/Graphics/SVG/1.1/DTD/svg11.dtd">
<svg version="1.1" id="Capa_1" xmlns="http://www.w3.org/2000/svg" xmlns:xlink="http://www.w3.org/1999/xlink" x="0px" y="0px"
	 viewBox="0 0 440.655 440.655" style="enable-background:new 0 0 440.655 440.655;" xml:space="preserve">
<g>
	<g>
		<path style="fill:none;" d="M157.188,112.889v126.716c14.938,1.73,43.541,5.763,77.32,14.139
			c54.668,13.557,99.432,32.445,133.477,56.286V41.782C333.938,65.653,289.15,84.663,234.43,98.434
			C200.744,106.91,172.19,111.076,157.188,112.889z"/>
		<path style="fill:none;" d="M24.008,177.155c0.438,27.784,17.565,51.295,40.572,58.791V116.329
			C40.822,123.88,23.555,148.419,24.008,177.155z"/>
		<polygon style="fill:#73D0F4;" points="133.188,113.933 88.58,113.925 88.58,238.447 133.188,238.447 		"/>
		<path style="fill:#73D0F4;" d="M212.063,376.623l-31.844-109.486c-19.674-3.236-33.066-4.478-35.533-4.69h-22.607l37.728,129.709
			c0.041,0.115,0.08,0.231,0.117,0.349c4.475,14.005,19.59,22.004,33.682,17.833c14.098-4.171,22.424-19.108,18.563-33.298
			C212.131,376.901,212.096,376.763,212.063,376.623z"/>
		<path style="fill:#3D6889;" d="M422.19,131.273c-8.498-8.223-19.004-13.376-30.204-14.956V17.178c0-4.71-2.756-8.985-7.047-10.929
			c-4.291-1.946-9.32-1.199-12.863,1.905c-73.577,64.494-208.06,80.006-226.097,81.821c-0.262-0.018-0.521-0.04-0.789-0.04
			l-65.174-0.011h-0.002c-0.186,0-0.371,0.004-0.555,0.012c-0.109-0.001-0.219-0.001-0.328-0.001l-0.352,0.002
			C34.598,90.684-0.738,129.98,0.012,177.532c0.355,22.612,8.756,43.846,23.656,59.792c15.145,16.206,35.236,25.131,56.574,25.131
			c0.393,0,16.842-0.009,16.842-0.009l39.867,137.063c0.102,0.352,0.219,0.695,0.352,1.031c4.193,12.489,12.891,22.747,24.561,28.94
			c7.494,3.977,15.688,5.998,23.957,5.997c4.881,0,9.791-0.705,14.594-2.126c12.941-3.829,23.68-12.432,30.24-24.224
			c6.428-11.555,8.145-24.908,4.859-37.682c-0.064-0.304-0.139-0.607-0.227-0.908l-28.641-98.474
			c50.137,10.453,119.525,31.35,165.429,71.588c2.232,1.956,5.057,2.975,7.912,2.975c1.678,0,3.365-0.351,4.951-1.07
			c4.291-1.945,7.047-6.22,7.047-10.93v-99.499c27.815-3.864,49.146-29.618,48.661-60.345
			C440.387,158.234,433.66,142.375,422.19,131.273z M193.606,410.337c-14.092,4.172-29.207-3.827-33.682-17.833
			c-0.037-0.118-0.076-0.234-0.117-0.349l-37.728-129.709h22.607c2.467,0.213,15.859,1.454,35.533,4.69l31.844,109.486
			c0.033,0.14,0.068,0.278,0.105,0.416C216.029,391.229,207.703,406.166,193.606,410.337z M88.58,113.925l44.607,0.008v124.514
			H88.58V113.925z M64.58,235.946c-23.008-7.496-40.135-31.007-40.572-58.791c-0.453-28.736,16.815-53.275,40.572-60.826V235.946z
			 M367.984,310.03c-34.045-23.841-78.809-42.729-133.477-56.286c-33.779-8.376-62.383-12.409-77.32-14.139V112.889
			c15.002-1.813,43.557-5.979,77.242-14.454c54.721-13.771,99.508-32.781,133.555-56.652V310.03z M391.985,210.72v-69.956
			c4.947,1.32,9.589,3.958,13.513,7.754c6.926,6.705,10.992,16.416,11.152,26.641C416.922,192.389,406.295,207.004,391.985,210.72z"
			/>
	</g>
</g>
<g>
</g>
<g>
</g>
<g>
</g>
<g>
</g>
<g>
</g>
<g>
</g>
<g>
</g>
<g>
</g>
<g>
</g>
<g>
</g>
<g>
</g>
<g>
</g>
<g>
</g>
<g>
</g>
<g>
</g>
</svg>
