<?xml version="1.0" encoding="iso-8859-1"?>
<!-- Generator: Adobe Illustrator 18.0.0, SVG Export Plug-In . SVG Version: 6.00 Build 0)  -->
<!DOCTYPE svg PUBLIC "-//W3C//DTD SVG 1.1//EN" "http://www.w3.org/Graphics/SVG/1.1/DTD/svg11.dtd">
<svg version="1.1" id="Capa_1" xmlns="http://www.w3.org/2000/svg" xmlns:xlink="http://www.w3.org/1999/xlink" x="0px" y="0px"
	 viewBox="0 0 410.588 410.588" style="enable-background:new 0 0 410.588 410.588;" xml:space="preserve">
<path style="fill:#3D6889;" d="M398.588,43.079H118.859c-6.628,0-12,5.373-12,12v42.6H64.809c-6.628,0-12,5.373-12,12v40.707H12
	c-6.627,0-12,5.372-12,12v193.123c0,6.627,5.373,12,12,12h279.731c6.627,0,12-5.373,12-12v-40.707h40.807c6.627,0,12-5.372,12-12
	v-42.6h42.051c6.627,0,12-5.372,12-12V55.079C410.588,48.452,405.215,43.079,398.588,43.079z M261.1,174.386L151.865,275.499
	L42.629,174.386H261.1z M24,189.845l36.453,33.742L24,258.089V189.845z M279.731,343.509H24v-52.665
	c0.618-0.397,1.21-0.854,1.764-1.378l52.342-49.539l65.607,60.73c2.301,2.13,5.227,3.194,8.152,3.194
	c2.926,0,5.852-1.065,8.15-3.194l65.61-60.73l53.26,50.408c0.272,0.258,0.555,0.498,0.846,0.726V343.509z M279.731,258.09
	l-36.455-34.503l36.455-33.742V258.09z M332.538,290.802h-28.807V162.386c0-6.628-5.373-12-12-12H76.809v-28.707h255.729V290.802z
	 M386.588,236.202h-30.051V109.679c0-6.627-5.373-12-12-12H130.859v-30.6h255.729V236.202z"/>
<g>
</g>
<g>
</g>
<g>
</g>
<g>
</g>
<g>
</g>
<g>
</g>
<g>
</g>
<g>
</g>
<g>
</g>
<g>
</g>
<g>
</g>
<g>
</g>
<g>
</g>
<g>
</g>
<g>
</g>
</svg>
