<?xml version="1.0" encoding="iso-8859-1"?>
<!-- Generator: Adobe Illustrator 18.0.0, SVG Export Plug-In . SVG Version: 6.00 Build 0)  -->
<!DOCTYPE svg PUBLIC "-//W3C//DTD SVG 1.1//EN" "http://www.w3.org/Graphics/SVG/1.1/DTD/svg11.dtd">
<svg version="1.1" id="Capa_1" xmlns="http://www.w3.org/2000/svg" xmlns:xlink="http://www.w3.org/1999/xlink" x="0px" y="0px"
	 viewBox="0 0 423.698 423.698" style="enable-background:new 0 0 423.698 423.698;" xml:space="preserve">
<g>
	<path style="fill:none;" d="M220,172.123c-2.3,2.129-5.226,3.193-8.151,3.193c-2.926,0-5.851-1.064-8.151-3.193l-78.073-72.268
		L60.79,161.22c-0.133,0.126-0.275,0.235-0.413,0.355v64.145h302.944v-64.11l-65.247-61.754L220,172.123z"/>
	<polygon style="fill:none;" points="344.693,24 79.007,24 211.849,146.965 	"/>
	<polygon style="fill:none;" points="60.377,39.459 60.377,128.563 107.973,83.516 	"/>
	<polygon style="fill:none;" points="363.321,128.563 363.321,39.46 315.726,83.517 	"/>
	<path style="fill:#73D0F4;" d="M260.093,328.867v-32.96h-96.488v32.96c0,6.627-5.372,12-12,12h-23.193l83.437,56.351l83.436-56.351
		h-23.192C265.466,340.867,260.093,335.494,260.093,328.867z"/>
	<path style="fill:#3D6889;" d="M375.321,0H48.377c-6.627,0-12,5.372-12,12v225.72c0,6.627,5.373,12,12,12h326.943
		c6.628,0,12-5.373,12-12V12C387.321,5.372,381.949,0,375.321,0z M344.693,24L211.849,146.965L79.007,24H344.693z M60.377,39.459
		l47.596,44.057l-47.596,45.048V39.459z M363.321,225.72H60.377v-64.145c0.137-0.119,0.279-0.229,0.413-0.355l64.835-61.364
		l78.073,72.268c2.3,2.129,5.225,3.193,8.151,3.193c2.925,0,5.852-1.064,8.151-3.193l78.074-72.268l65.247,61.754V225.72z
		 M363.321,128.563l-47.596-45.047l47.596-44.057V128.563z"/>
	<path style="fill:#3D6889;" d="M334.494,316.867h-50.401v-32.96c0-6.627-5.372-12-12-12H151.605c-6.627,0-12,5.373-12,12v32.96
		H89.204c-5.275,0-9.931,3.444-11.475,8.488c-1.544,5.044,0.387,10.504,4.758,13.456l122.645,82.831
		c2.029,1.37,4.373,2.056,6.716,2.056c2.344,0,4.687-0.685,6.716-2.056l122.645-82.831c4.371-2.952,6.302-8.412,4.758-13.456
		C344.425,320.311,339.769,316.867,334.494,316.867z M211.849,397.218l-83.437-56.351h23.193c6.628,0,12-5.373,12-12v-32.96h96.488
		v32.96c0,6.627,5.373,12,12,12h23.192L211.849,397.218z"/>
</g>
<g>
</g>
<g>
</g>
<g>
</g>
<g>
</g>
<g>
</g>
<g>
</g>
<g>
</g>
<g>
</g>
<g>
</g>
<g>
</g>
<g>
</g>
<g>
</g>
<g>
</g>
<g>
</g>
<g>
</g>
</svg>
