<?xml version="1.0" encoding="iso-8859-1"?>
<!-- Generator: Adobe Illustrator 18.0.0, SVG Export Plug-In . SVG Version: 6.00 Build 0)  -->
<!DOCTYPE svg PUBLIC "-//W3C//DTD SVG 1.1//EN" "http://www.w3.org/Graphics/SVG/1.1/DTD/svg11.dtd">
<svg version="1.1" id="Capa_1" xmlns="http://www.w3.org/2000/svg" xmlns:xlink="http://www.w3.org/1999/xlink" x="0px" y="0px"
	 viewBox="0 0 410.828 410.828" style="enable-background:new 0 0 410.828 410.828;" xml:space="preserve">
<g>
	<g>
		<g>
			<path style="fill:none;" d="M205.414,232.864c-42.447,0-76.981,34.533-76.981,76.981c0,42.448,34.534,76.982,76.981,76.982
				c42.447,0,76.982-34.534,76.982-76.982C282.395,267.397,247.861,232.864,205.414,232.864z M205.414,272.164
				c-20.777,0-37.682,16.904-37.682,37.682c0,6.628-5.373,12-12,12c-6.627,0-12-5.372-12-12c0-34.011,27.67-61.682,61.682-61.682
				c6.627,0,12,5.373,12,12C217.414,266.792,212.041,272.164,205.414,272.164z"/>
			<polygon style="fill:none;" points="156.119,170.453 237.664,170.453 195.805,114.494 195.799,114.485 128.113,24 42.66,24 
				152.21,170.453 			"/>
			<polygon style="fill:#73D0F4;" points="220.4,107.306 251.553,148.952 261.738,162.568 367.83,24 282.714,24 			"/>
			<path style="fill:#73D0F4;" d="M254.708,194.453h-98.589c-3.895,0-7.064,3.168-7.064,7.063v0.284
				c0,3.895,3.169,7.064,7.064,7.064h98.589c3.896,0,7.064-3.169,7.064-7.064v-0.284
				C261.772,197.621,258.603,194.453,254.708,194.453z"/>
			<path style="fill:#3D6889;" d="M205.414,248.164c-34.012,0-61.682,27.671-61.682,61.682c0,6.628,5.373,12,12,12
				c6.627,0,12-5.372,12-12c0-20.777,16.904-37.682,37.682-37.682c6.627,0,12-5.372,12-12
				C217.414,253.537,212.041,248.164,205.414,248.164z"/>
		</g>
		<path style="fill:#3D6889;" d="M402.89,6.687C400.868,2.592,396.697,0,392.13,0H276.705c-3.782,0-7.344,1.783-9.609,4.812
			l-61.681,82.461L143.732,4.812C141.466,1.783,137.905,0,134.123,0H18.698c-4.543,0-8.695,2.565-10.729,6.626
			c-2.034,4.063-1.601,8.924,1.12,12.562l122.323,163.529c-3.983,5.223-6.356,11.737-6.356,18.799v0.284
			c0,12.622,7.57,23.502,18.406,28.357c-23.735,18.494-39.029,47.338-39.029,79.688c0,55.683,45.3,100.982,100.981,100.982
			c55.682,0,100.981-45.3,100.981-100.982c0-32.352-15.295-61.194-39.029-79.688c10.835-4.855,18.406-15.735,18.406-28.357v-0.284
			c0-7.902-2.971-15.12-7.849-20.608L401.659,19.295C404.435,15.669,404.912,10.781,402.89,6.687z M261.772,201.8
			c0,3.895-3.169,7.064-7.064,7.064h-98.589c-3.895,0-7.064-3.169-7.064-7.064v-0.284c0-3.895,3.169-7.063,7.064-7.063h98.589
			c3.896,0,7.064,3.168,7.064,7.063V201.8z M261.738,162.568l-10.185-13.616L220.4,107.306L282.714,24h85.115L261.738,162.568z
			 M42.66,24h85.453l67.687,90.485c0.002,0.003,0.004,0.006,0.006,0.009l41.858,55.959h-81.545h-3.908L42.66,24z M282.395,309.846
			c0,42.448-34.534,76.982-76.982,76.982c-42.447,0-76.981-34.534-76.981-76.982c0-42.448,34.534-76.981,76.981-76.981
			C247.861,232.864,282.395,267.397,282.395,309.846z"/>
	</g>
</g>
<g>
</g>
<g>
</g>
<g>
</g>
<g>
</g>
<g>
</g>
<g>
</g>
<g>
</g>
<g>
</g>
<g>
</g>
<g>
</g>
<g>
</g>
<g>
</g>
<g>
</g>
<g>
</g>
<g>
</g>
</svg>
