<?xml version="1.0" encoding="iso-8859-1"?>
<!-- Generator: Adobe Illustrator 18.0.0, SVG Export Plug-In . SVG Version: 6.00 Build 0)  -->
<!DOCTYPE svg PUBLIC "-//W3C//DTD SVG 1.1//EN" "http://www.w3.org/Graphics/SVG/1.1/DTD/svg11.dtd">
<svg version="1.1" id="Capa_1" xmlns="http://www.w3.org/2000/svg" xmlns:xlink="http://www.w3.org/1999/xlink" x="0px" y="0px"
	 viewBox="0 0 440.119 440.119" style="enable-background:new 0 0 440.119 440.119;" xml:space="preserve">
<g>
	<g>
		<path style="fill:none;" d="M220.061,306.422c29.085,0,53.852-17.964,56.125-39.915H163.934
			C166.207,288.458,190.975,306.422,220.061,306.422z"/>
		<path style="fill:none;" d="M276.375,212.968h-35c-6.627,0-12-5.373-12-12c0-6.627,5.373-12,12-12h35v-29.916h-35
			c-6.627,0-12-5.373-12-12c0-6.628,5.373-12,12-12h35v-29.917h-35c-6.627,0-12-5.373-12-12c0-6.627,5.373-12,12-12h35V67.201
			c0-23.417-25.79-43.201-56.316-43.201c-30.525,0-56.314,19.784-56.314,43.201v13.934h35c6.627,0,12,5.373,12,12
			c0,6.627-5.373,12-12,12h-35v29.917h35c6.627,0,12,5.372,12,12c0,6.627-5.373,12-12,12h-35v29.916h35c6.627,0,12,5.373,12,12
			c0,6.627-5.373,12-12,12h-35v29.539h112.631V212.968z"/>
		<path style="fill:#73D0F4;" d="M220.059,372.517c-30.525,0-56.314,19.783-56.314,43.2v0.402h112.631v-0.402
			C276.375,392.3,250.585,372.517,220.059,372.517z"/>
		<path style="fill:#3D6889;" d="M164.161,311.21c15.163,12.389,35.015,19.212,55.899,19.212c20.884,0,40.736-6.823,55.898-19.212
			c15.517-12.679,24.416-30.17,24.416-47.989V67.201c0-17.819-8.9-35.311-24.417-47.989C260.796,6.823,240.943,0,220.059,0
			c-20.885,0-40.737,6.823-55.898,19.212c-15.517,12.679-24.416,30.17-24.416,47.989v196.02
			C139.744,281.039,148.645,298.53,164.161,311.21z M220.061,306.422c-29.086,0-53.854-17.964-56.127-39.915h112.252
			C273.912,288.458,249.145,306.422,220.061,306.422z M163.744,212.968h35c6.627,0,12-5.373,12-12c0-6.627-5.373-12-12-12h-35
			v-29.916h35c6.627,0,12-5.373,12-12c0-6.628-5.373-12-12-12h-35v-29.917h35c6.627,0,12-5.373,12-12c0-6.627-5.373-12-12-12h-35
			V67.201c0-23.417,25.789-43.201,56.314-43.201c30.526,0,56.316,19.784,56.316,43.201v13.934h-35c-6.627,0-12,5.373-12,12
			c0,6.627,5.373,12,12,12h35v29.917h-35c-6.627,0-12,5.372-12,12c0,6.627,5.373,12,12,12h35v29.916h-35c-6.627,0-12,5.373-12,12
			c0,6.627,5.373,12,12,12h35v29.539H163.744V212.968z"/>
		<path style="fill:#3D6889;" d="M328.426,160.113c-6.627,0-12,5.372-12,12v103.894c0,17.687-9.358,34.942-26.352,48.586
			c-18.007,14.458-42.133,22.923-67.934,23.836c-0.333,0.012-3.825,0.012-4.159,0c-25.802-0.913-49.928-9.377-67.935-23.836
			c-16.993-13.645-26.352-30.899-26.352-48.586V172.113c0-6.628-5.372-12-12-12c-6.627,0-12,5.372-12,12v103.894
			c0,25.108,12.547,49.01,35.326,67.301c10.366,8.323,22.328,14.998,35.302,19.868c-2.127,1.423-4.186,2.938-6.161,4.553
			c-15.517,12.679-24.416,30.17-24.416,47.988v12.402c0,6.627,5.373,12,12,12h136.631c6.627,0,12-5.373,12-12v-12.402
			c0-17.819-8.9-35.31-24.417-47.988c-1.975-1.614-4.035-3.129-6.163-4.552c12.976-4.87,24.939-11.546,35.305-19.869
			c22.781-18.291,35.326-42.192,35.326-67.301V172.113C340.426,165.485,335.054,160.113,328.426,160.113z M276.375,416.119H163.744
			v-0.402c0-23.417,25.789-43.2,56.314-43.2c30.526,0,56.316,19.783,56.316,43.2V416.119z"/>
	</g>
</g>
<g>
</g>
<g>
</g>
<g>
</g>
<g>
</g>
<g>
</g>
<g>
</g>
<g>
</g>
<g>
</g>
<g>
</g>
<g>
</g>
<g>
</g>
<g>
</g>
<g>
</g>
<g>
</g>
<g>
</g>
</svg>
