<?xml version="1.0" encoding="iso-8859-1"?>
<!-- Generator: Adobe Illustrator 18.0.0, SVG Export Plug-In . SVG Version: 6.00 Build 0)  -->
<!DOCTYPE svg PUBLIC "-//W3C//DTD SVG 1.1//EN" "http://www.w3.org/Graphics/SVG/1.1/DTD/svg11.dtd">
<svg version="1.1" id="Capa_1" xmlns="http://www.w3.org/2000/svg" xmlns:xlink="http://www.w3.org/1999/xlink" x="0px" y="0px"
	 viewBox="0 0 425.389 425.389" style="enable-background:new 0 0 425.389 425.389;" xml:space="preserve">
<g>
	<g>
		<path style="fill:#73D0F4;" d="M261.066,212.695c0-26.674-21.699-48.374-48.373-48.374c-26.672,0-48.373,21.7-48.373,48.374
			c0,26.673,21.701,48.373,48.373,48.373C239.367,261.068,261.066,239.368,261.066,212.695z"/>
		<path style="fill:#73D0F4;" d="M366.525,316.567h34.864V281.7C384.341,286.068,370.892,299.517,366.525,316.567z"/>
		<path style="fill:none;" d="M366.525,316.567h34.864V281.7C384.341,286.068,370.892,299.517,366.525,316.567z"/>
		<path style="fill:#73D0F4;" d="M58.867,108.822H24v34.865C41.049,139.319,54.498,125.871,58.867,108.822z"/>
		<path style="fill:#73D0F4;" d="M24,281.7v34.867h34.865C54.498,299.517,41.049,286.068,24,281.7z"/>
		<path style="fill:#73D0F4;" d="M401.389,143.687v-34.865h-34.866C370.89,125.871,384.339,139.319,401.389,143.687z"/>
		<path style="fill:none;" d="M342.025,108.822H83.361c-5.08,30.308-29.053,54.279-59.361,59.359v89.024
			c30.309,5.082,54.279,29.054,59.361,59.362h258.666c5.082-30.309,29.053-54.28,59.361-59.362v-89.024
			C371.08,163.101,347.108,139.129,342.025,108.822z"/>
		<path style="fill:none;" d="M401.389,143.687v-34.865h-34.866C370.89,125.871,384.339,139.319,401.389,143.687z"/>
		<path style="fill:#3D6889;" d="M413.389,84.822H12c-6.629,0-12,5.372-12,12v231.745c0,6.627,5.371,12,12,12h401.389
			c6.627,0,12-5.373,12-12V96.822C425.389,90.194,420.016,84.822,413.389,84.822z M24,316.567V281.7
			c17.049,4.368,30.498,17.817,34.865,34.867H24z M58.867,108.822C54.498,125.871,41.049,139.319,24,143.687v-34.865H58.867z
			 M401.389,316.567h-34.865c4.367-17.05,17.816-30.499,34.865-34.867V316.567z M401.389,257.205
			c-30.309,5.082-54.279,29.054-59.361,59.362H83.361C78.279,286.258,54.309,262.286,24,257.205v-89.024
			c30.309-5.08,54.281-29.051,59.361-59.359h258.664c5.082,30.308,29.055,54.279,59.363,59.359V257.205z M401.389,143.687
			c-17.051-4.368-30.5-17.816-34.867-34.865h34.867V143.687z"/>
		<path style="fill:#3D6889;" d="M212.693,140.321c-39.906,0-72.373,32.467-72.373,72.374c0,39.906,32.467,72.373,72.373,72.373
			c39.906,0,72.373-32.467,72.373-72.373C285.066,172.788,252.6,140.321,212.693,140.321z M164.32,212.695
			c0-26.674,21.701-48.374,48.373-48.374c26.674,0,48.373,21.7,48.373,48.374c0,26.673-21.699,48.373-48.373,48.373
			C186.021,261.068,164.32,239.368,164.32,212.695z"/>
	</g>
</g>
<g>
</g>
<g>
</g>
<g>
</g>
<g>
</g>
<g>
</g>
<g>
</g>
<g>
</g>
<g>
</g>
<g>
</g>
<g>
</g>
<g>
</g>
<g>
</g>
<g>
</g>
<g>
</g>
<g>
</g>
</svg>
