<?xml version="1.0" encoding="iso-8859-1"?>
<!-- Generator: Adobe Illustrator 18.0.0, SVG Export Plug-In . SVG Version: 6.00 Build 0)  -->
<!DOCTYPE svg PUBLIC "-//W3C//DTD SVG 1.1//EN" "http://www.w3.org/Graphics/SVG/1.1/DTD/svg11.dtd">
<svg version="1.1" id="Capa_1" xmlns="http://www.w3.org/2000/svg" xmlns:xlink="http://www.w3.org/1999/xlink" x="0px" y="0px"
	 viewBox="0 0 443.171 443.171" style="enable-background:new 0 0 443.171 443.171;" xml:space="preserve">
<g>
	<path style="fill:none;" d="M351.912,285.253c-13.801,0-28.105,6.391-39.25,17.534c-19.809,19.811-23.432,48.422-8.074,63.779
		c7.818,7.817,17.658,9.459,24.533,9.459c13.801,0,28.105-6.39,39.248-17.531c19.811-19.813,23.434-48.425,8.074-63.782
		C368.625,286.893,358.789,285.253,351.912,285.253z"/>
	<path style="fill:none;" d="M113.94,328.398c-13.8,0-28.105,6.392-39.248,17.534c-19.81,19.811-23.432,48.423-8.074,63.78
		c7.817,7.817,17.656,9.458,24.532,9.458c13.8,0,28.105-6.39,39.249-17.532c9.909-9.91,16.056-22.254,17.306-34.758
		c1.16-11.603-2.118-21.91-9.231-29.023C130.655,330.04,120.817,328.398,113.94,328.398z"/>
	<polygon style="fill:#73D0F4;" points="171.932,197.746 385.903,102.666 385.903,30.484 171.932,125.782 	"/>
	<path style="fill:#3D6889;" d="M409.903,11.782c-0.027-1.561-0.361-3.144-1.037-4.662c-2.697-6.054-9.789-8.775-15.846-6.08
		L155.049,107.028c-4.408,1.963-7.038,6.257-7.105,10.783c-0.01,0.723-0.012,196.835-0.012,196.835
		c-9.616-6.65-21.373-10.248-33.992-10.248c-20.117,0-40.609,8.953-56.22,24.563c-29.166,29.169-32.788,73.007-8.073,97.722
		c10.633,10.633,25.372,16.487,41.503,16.487c20.118,0,40.608-8.952,56.219-24.561c13.817-13.816,22.417-31.34,24.217-49.34
		c0.28-2.803,0.397-5.561,0.347-8.278c0.006-0.167,0-136.982,0-136.982l213.971-95.079v142.571
		c-9.615-6.65-21.371-10.248-33.99-10.248c-20.117,0-40.609,8.953-56.221,24.564c-29.168,29.169-32.789,73.007-8.072,97.721
		c10.633,10.633,25.371,16.488,41.502,16.488c20.117,0,40.609-8.952,56.219-24.561c16.285-16.287,24.689-37.145,24.563-56.695
		C409.957,318.302,409.916,12.542,409.903,11.782z M147.704,366.881c-1.25,12.504-7.396,24.848-17.306,34.758
		c-11.144,11.143-25.449,17.532-39.249,17.532c-6.876,0-16.715-1.641-24.532-9.458c-15.357-15.357-11.735-43.97,8.074-63.78
		c11.143-11.143,25.448-17.534,39.248-17.534c6.877,0,16.715,1.642,24.533,9.459C145.586,344.971,148.865,355.278,147.704,366.881z
		 M385.903,102.666l-213.971,95.08v-71.964l213.971-95.298V102.666z M368.369,358.494c-11.143,11.142-25.447,17.531-39.248,17.531
		c-6.875,0-16.715-1.642-24.533-9.459c-15.357-15.357-11.734-43.969,8.074-63.779c11.145-11.144,25.449-17.534,39.25-17.534
		c6.877,0,16.713,1.641,24.531,9.459C391.803,310.069,388.18,338.681,368.369,358.494z"/>
</g>
<g>
</g>
<g>
</g>
<g>
</g>
<g>
</g>
<g>
</g>
<g>
</g>
<g>
</g>
<g>
</g>
<g>
</g>
<g>
</g>
<g>
</g>
<g>
</g>
<g>
</g>
<g>
</g>
<g>
</g>
</svg>
