<?xml version="1.0" encoding="iso-8859-1"?>
<!-- Generator: Adobe Illustrator 18.0.0, SVG Export Plug-In . SVG Version: 6.00 Build 0)  -->
<!DOCTYPE svg PUBLIC "-//W3C//DTD SVG 1.1//EN" "http://www.w3.org/Graphics/SVG/1.1/DTD/svg11.dtd">
<svg version="1.1" id="Capa_1" xmlns="http://www.w3.org/2000/svg" xmlns:xlink="http://www.w3.org/1999/xlink" x="0px" y="0px"
	 viewBox="0 0 382.975 382.975" style="enable-background:new 0 0 382.975 382.975;" xml:space="preserve">
<g>
	<g>
		<path style="fill:none;" d="M346.566,24H36.408C29.566,24,24,29.566,24,36.408v310.158c0,6.842,5.566,12.408,12.408,12.408
			h310.158c6.842,0,12.408-5.566,12.408-12.408V36.408C358.975,29.566,353.408,24,346.566,24z M267.531,201L92.25,335.765
			c-2.138,1.644-4.718,2.486-7.316,2.486c-1.805,0-3.619-0.406-5.301-1.234c-4.101-2.021-6.697-6.194-6.697-10.766V56.724
			c0-4.571,2.597-8.745,6.697-10.766c4.103-2.02,8.993-1.534,12.617,1.252l175.281,134.764c2.954,2.27,4.686,5.786,4.686,9.513
			C272.217,195.213,270.485,198.729,267.531,201z M310.039,326.251c0,6.628-5.373,12-12,12c-6.627,0-12-5.372-12-12V56.724
			c0-6.628,5.373-12,12-12c6.627,0,12,5.372,12,12V326.251z"/>
		<path style="fill:#73D0F4;" d="M96.936,301.889l143.594-110.402L96.936,81.087V301.889z M121.793,238.053l74.113-56.98
			c5.255-4.04,12.787-3.055,16.828,2.199c4.039,5.254,3.055,12.788-2.199,16.827l-74.113,56.98
			c-2.181,1.677-4.753,2.487-7.306,2.487c-3.6,0-7.158-1.612-9.522-4.686C115.555,249.626,116.539,242.093,121.793,238.053z"/>
		<path style="fill:#3D6889;" d="M346.566,0H36.408C16.333,0,0,16.332,0,36.408v310.158c0,20.075,16.333,36.408,36.408,36.408
			h310.158c20.075,0,36.408-16.333,36.408-36.408V36.408C382.975,16.332,366.642,0,346.566,0z M358.975,346.566
			c0,6.842-5.566,12.408-12.408,12.408H36.408c-6.842,0-12.408-5.566-12.408-12.408V36.408C24,29.566,29.566,24,36.408,24h310.158
			c6.842,0,12.408,5.566,12.408,12.408V346.566z"/>
		<path style="fill:#3D6889;" d="M267.531,181.974L92.25,47.21c-3.624-2.786-8.515-3.272-12.617-1.252
			c-4.101,2.021-6.697,6.194-6.697,10.766v269.527c0,4.571,2.597,8.745,6.697,10.766c1.682,0.828,3.496,1.234,5.301,1.234
			c2.599,0,5.179-0.843,7.316-2.486L267.531,201c2.954-2.271,4.686-5.787,4.686-9.514
			C272.217,187.76,270.485,184.244,267.531,181.974z M96.936,301.889V81.087l143.594,110.399L96.936,301.889z"/>
		<path style="fill:#3D6889;" d="M129.116,259.566c2.553,0,5.125-0.81,7.306-2.487l74.113-56.98
			c5.254-4.039,6.238-11.573,2.199-16.827c-4.041-5.254-11.573-6.239-16.828-2.199l-74.113,56.98
			c-5.254,4.04-6.238,11.573-2.199,16.827C121.958,257.954,125.517,259.566,129.116,259.566z"/>
		<path style="fill:#3D6889;" d="M298.039,44.724c-6.627,0-12,5.372-12,12v269.527c0,6.628,5.373,12,12,12c6.627,0,12-5.372,12-12
			V56.724C310.039,50.096,304.666,44.724,298.039,44.724z"/>
	</g>
</g>
<g>
</g>
<g>
</g>
<g>
</g>
<g>
</g>
<g>
</g>
<g>
</g>
<g>
</g>
<g>
</g>
<g>
</g>
<g>
</g>
<g>
</g>
<g>
</g>
<g>
</g>
<g>
</g>
<g>
</g>
</svg>
