<?xml version="1.0" encoding="iso-8859-1"?>
<!-- Generator: Adobe Illustrator 18.0.0, SVG Export Plug-In . SVG Version: 6.00 Build 0)  -->
<!DOCTYPE svg PUBLIC "-//W3C//DTD SVG 1.1//EN" "http://www.w3.org/Graphics/SVG/1.1/DTD/svg11.dtd">
<svg version="1.1" id="Capa_1" xmlns="http://www.w3.org/2000/svg" xmlns:xlink="http://www.w3.org/1999/xlink" x="0px" y="0px"
	 viewBox="0 0 394.663 394.663" style="enable-background:new 0 0 394.663 394.663;" xml:space="preserve">
<g>
	<g>
		<path style="fill:none;" d="M36.283,278.653c0.887-0.815,1.793-1.629,2.723-2.444c17.693-15.522,39.596-27.849,65.1-36.638
			c31.291-10.785,68.168-16.253,109.609-16.253c7.842,0,15.928,0.196,24.164,0.587v-73.771
			C195.589,150.466,76.997,162.219,36.283,278.653z"/>
		<polygon style="fill:#73D0F4;" points="261.878,138.393 261.878,236.633 261.878,290.032 365.476,188.989 261.878,87.946 		"/>
		<path style="fill:#3D6889;" d="M391.042,180.398L258.257,50.889c-3.457-3.369-8.596-4.343-13.041-2.467
			c-4.447,1.875-7.338,6.231-7.338,11.058v66.654c-22.635,0.183-76.309,3.755-126.793,30.523
			c-29.379,15.577-53.473,36.708-71.611,62.807C17.777,250.679,4.517,289.2,0.06,333.953c-0.621,6.237,3.652,11.942,9.824,13.042
			c0.717,0.128,1.428,0.189,2.133,0.189c5.363,0,10.19-3.588,11.578-8.952c0.063-0.226,6.494-22.845,32.561-45.127
			c35.039-29.954,89.521-45.787,157.559-45.787c7.82,0,15.92,0.221,24.164,0.63v70.551c0,4.826,2.891,9.184,7.338,11.058
			c1.506,0.634,3.088,0.942,4.658,0.942c3.072,0,6.096-1.18,8.383-3.41l132.785-129.51c2.315-2.258,3.621-5.355,3.621-8.59
			C394.663,185.755,393.357,182.657,391.042,180.398z M237.878,223.905c-8.236-0.391-16.322-0.587-24.164-0.587
			c-41.441,0-78.318,5.468-109.609,16.253c-25.504,8.789-47.406,21.116-65.1,36.638c-0.93,0.815-1.836,1.629-2.723,2.444
			c40.715-116.434,159.307-128.187,201.596-128.52V223.905z M261.878,290.032v-53.398v-98.24V87.946l103.598,101.043
			L261.878,290.032z"/>
	</g>
</g>
<g>
</g>
<g>
</g>
<g>
</g>
<g>
</g>
<g>
</g>
<g>
</g>
<g>
</g>
<g>
</g>
<g>
</g>
<g>
</g>
<g>
</g>
<g>
</g>
<g>
</g>
<g>
</g>
<g>
</g>
</svg>
