<?xml version="1.0" encoding="iso-8859-1"?>
<!-- Generator: Adobe Illustrator 18.0.0, SVG Export Plug-In . SVG Version: 6.00 Build 0)  -->
<!DOCTYPE svg PUBLIC "-//W3C//DTD SVG 1.1//EN" "http://www.w3.org/Graphics/SVG/1.1/DTD/svg11.dtd">
<svg version="1.1" id="Capa_1" xmlns="http://www.w3.org/2000/svg" xmlns:xlink="http://www.w3.org/1999/xlink" x="0px" y="0px"
	 viewBox="0 0 396.994 396.994" style="enable-background:new 0 0 396.994 396.994;" xml:space="preserve">
<g>
	<g>
		<path style="fill:none;" d="M198.496,79.429c-36,0-65.533,28.156-67.775,63.602h135.555
			C264.032,107.585,234.498,79.429,198.496,79.429z"/>
		<path style="fill:none;" d="M349.145,167.03H47.85c-13.15,0-23.85,10.697-23.85,23.85v156.707c0,13.15,10.699,23.85,23.85,23.85
			h301.295c13.15,0,23.85-10.699,23.85-23.85V190.88C372.994,177.728,362.295,167.03,349.145,167.03z M231.783,286.878v37.877
			c0,6.627-5.372,12-12,12h-42.572c-6.628,0-12-5.373-12-12v-37.877c-10.598-9.434-16.764-22.982-16.764-37.379
			c0-27.598,22.452-50.049,50.05-50.049s50.05,22.451,50.05,50.049C248.547,263.896,242.381,277.444,231.783,286.878z"/>
		<path style="fill:#73D0F4;" d="M198.497,223.45c-14.364,0-26.05,11.686-26.05,26.049c0,8.664,4.293,16.74,11.484,21.601
			c3.301,2.232,5.279,5.957,5.279,9.941v31.713h18.572v-31.713c0-3.984,1.979-7.709,5.279-9.941
			c7.191-4.861,11.484-12.938,11.484-21.601C224.547,235.136,212.861,223.45,198.497,223.45z"/>
		<path style="fill:#73D0F4;" d="M198.496,55.429c49.24,0,89.557,38.912,91.826,87.602h29.892
			c-2.289-65.164-56.005-117.473-121.718-117.473c-65.711,0-119.427,52.309-121.716,117.473h29.892
			C108.941,94.341,149.258,55.429,198.496,55.429z"/>
		<path style="fill:#3D6889;" d="M349.145,143.03h-4.914c-2.3-78.4-66.787-141.473-145.734-141.473
			C119.55,1.558,55.063,64.63,52.764,143.03H47.85C21.465,143.03,0,164.495,0,190.88v156.707c0,26.385,21.465,47.85,47.85,47.85
			h301.295c26.385,0,47.85-21.465,47.85-47.85V190.88C396.994,164.495,375.529,143.03,349.145,143.03z M198.496,25.558
			c65.713,0,119.429,52.309,121.718,117.473h-29.892c-2.27-48.689-42.586-87.602-91.826-87.602
			c-49.238,0-89.555,38.912-91.824,87.602H76.78C79.069,77.866,132.785,25.558,198.496,25.558z M266.275,143.03H130.721
			c2.242-35.445,31.775-63.602,67.775-63.602C234.498,79.429,264.032,107.585,266.275,143.03z M372.994,347.587
			c0,13.15-10.699,23.85-23.85,23.85H47.85c-13.15,0-23.85-10.699-23.85-23.85V190.88c0-13.152,10.699-23.85,23.85-23.85h301.295
			c13.15,0,23.85,10.697,23.85,23.85V347.587z"/>
		<path style="fill:#3D6889;" d="M198.497,199.45c-27.598,0-50.05,22.451-50.05,50.049c0,14.396,6.166,27.945,16.764,37.379v37.877
			c0,6.627,5.372,12,12,12h42.572c6.628,0,12-5.373,12-12v-37.877c10.598-9.434,16.764-22.982,16.764-37.379
			C248.547,221.901,226.095,199.45,198.497,199.45z M213.063,271.101c-3.301,2.232-5.279,5.957-5.279,9.941v31.713h-18.572v-31.713
			c0-3.984-1.979-7.709-5.279-9.941c-7.191-4.861-11.484-12.938-11.484-21.601c0-14.363,11.686-26.049,26.05-26.049
			s26.05,11.686,26.05,26.049C224.547,258.163,220.254,266.239,213.063,271.101z"/>
	</g>
</g>
<g>
</g>
<g>
</g>
<g>
</g>
<g>
</g>
<g>
</g>
<g>
</g>
<g>
</g>
<g>
</g>
<g>
</g>
<g>
</g>
<g>
</g>
<g>
</g>
<g>
</g>
<g>
</g>
<g>
</g>
</svg>
