<?xml version="1.0" encoding="iso-8859-1"?>
<!-- Generator: Adobe Illustrator 18.0.0, SVG Export Plug-In . SVG Version: 6.00 Build 0)  -->
<!DOCTYPE svg PUBLIC "-//W3C//DTD SVG 1.1//EN" "http://www.w3.org/Graphics/SVG/1.1/DTD/svg11.dtd">
<svg version="1.1" id="Capa_1" xmlns="http://www.w3.org/2000/svg" xmlns:xlink="http://www.w3.org/1999/xlink" x="0px" y="0px"
	 viewBox="0 0 391.654 391.654" style="enable-background:new 0 0 391.654 391.654;" xml:space="preserve">
<g>
	<g>
		<path style="fill:none;" d="M177.04,155.064c0,6.627-5.373,12-12,12H33.975v200.59h323.704V24H177.04V155.064z"/>
		<polygon style="fill:#73D0F4;" points="153.04,40.971 50.946,143.064 153.04,143.064 		"/>
		<path style="fill:#3D6889;" d="M369.679,0H165.04c-3.183,0-6.235,1.264-8.485,3.514L13.49,146.58
			c-2.25,2.25-3.515,5.303-3.515,8.484v224.59c0,6.627,5.373,12,12,12h347.704c6.627,0,12-5.373,12-12V12
			C381.679,5.371,376.306,0,369.679,0z M153.04,40.971v102.094H50.946L153.04,40.971z M357.679,367.654H33.975v-200.59H165.04
			c6.627,0,12-5.373,12-12V24h180.639V367.654z"/>
	</g>
</g>
<g>
</g>
<g>
</g>
<g>
</g>
<g>
</g>
<g>
</g>
<g>
</g>
<g>
</g>
<g>
</g>
<g>
</g>
<g>
</g>
<g>
</g>
<g>
</g>
<g>
</g>
<g>
</g>
<g>
</g>
</svg>
