<?xml version="1.0" encoding="iso-8859-1"?>
<!-- Generator: Adobe Illustrator 18.0.0, SVG Export Plug-In . SVG Version: 6.00 Build 0)  -->
<!DOCTYPE svg PUBLIC "-//W3C//DTD SVG 1.1//EN" "http://www.w3.org/Graphics/SVG/1.1/DTD/svg11.dtd">
<svg version="1.1" id="Capa_1" xmlns="http://www.w3.org/2000/svg" xmlns:xlink="http://www.w3.org/1999/xlink" x="0px" y="0px"
	 viewBox="0 0 448.033 448.033" style="enable-background:new 0 0 448.033 448.033;" xml:space="preserve">
<g>
	<path style="fill:none;" d="M282.889,151.125c0-6.899-2.805-16.048-7.695-25.103c-13.484-24.963-36.494-56.812-53.428-79.143
		c-5.572,44.046-31.699,66.788-45.682,78.957c-2.535,2.207-5.664,4.93-6.611,6.121c-2.873,6.093-4.328,12.539-4.328,19.168
		c0,28.093,26.41,50.949,58.873,50.949C256.48,202.074,282.889,179.218,282.889,151.125z"/>
	<path style="fill:none;" d="M203.07,227.405c-2.297,3.903-5.582,9.97-8.939,17.771h59.773c-3.357-7.797-6.641-13.862-8.941-17.771
		H203.07z"/>
	<path style="fill:#73D0F4;" d="M265.897,286.854c-0.938-6.235-2.207-12.147-3.676-17.678h-76.406
		c-1.469,5.53-2.738,11.442-3.678,17.678c-7.074,47.048,7.012,91.23,41.881,131.481
		C258.885,378.084,272.973,333.901,265.897,286.854z"/>
	<path style="fill:#3D6889;" d="M282.693,253.673c-0.014-0.048-0.029-0.095-0.045-0.143c-5.484-17.148-12.264-30.244-16.689-37.802
		c24.467-13.043,40.93-37.111,40.93-64.604c0-11.071-3.658-23.696-10.58-36.509C272.113,69.825,221.236,7.08,219.082,4.431
		c-3.365-4.14-9.061-5.561-13.977-3.485c-4.916,2.075-7.871,7.146-7.254,12.446c6.533,56-21.045,80-37.523,94.34
		c-5.646,4.914-9.773,8.506-12.094,13.024c-0.117,0.223-0.229,0.449-0.334,0.678c-4.482,9.401-6.756,19.389-6.756,29.691
		c0,27.493,16.463,51.561,40.932,64.604c-4.422,7.552-11.195,20.634-16.678,37.762c-0.023,0.072-0.047,0.143-0.068,0.217
		c-2.725,8.547-5.129,18.087-6.754,28.462c-6.305,40.253-1.725,100.918,55.9,161.333c0.137,0.143,0.275,0.282,0.42,0.419
		l0.855,0.814c2.316,2.199,5.289,3.299,8.264,3.299c2.971,0,5.939-1.097,8.254-3.289l0.859-0.814c0.146-0.14,0.289-0.282,0.43-0.429
		c57.625-60.415,62.205-121.08,55.9-161.333C287.832,271.78,285.424,262.229,282.693,253.673z M182.137,286.854
		c0.939-6.235,2.209-12.147,3.678-17.678h76.406c1.469,5.53,2.738,11.442,3.676,17.678c7.076,47.048-7.012,91.23-41.879,131.481
		C189.148,378.084,175.063,333.901,182.137,286.854z M194.131,245.176c3.357-7.801,6.643-13.867,8.939-17.771h41.893
		c2.301,3.908,5.584,9.974,8.941,17.771H194.131z M165.145,151.125c0-6.628,1.455-13.075,4.328-19.168
		c0.947-1.191,4.076-3.915,6.611-6.121c13.982-12.169,40.109-34.91,45.682-78.957c16.934,22.331,39.943,54.179,53.428,79.143
		c4.891,9.055,7.695,18.204,7.695,25.103c0,28.093-26.408,50.949-58.871,50.949C191.555,202.074,165.145,179.218,165.145,151.125z"
		/>
</g>
<g>
</g>
<g>
</g>
<g>
</g>
<g>
</g>
<g>
</g>
<g>
</g>
<g>
</g>
<g>
</g>
<g>
</g>
<g>
</g>
<g>
</g>
<g>
</g>
<g>
</g>
<g>
</g>
<g>
</g>
</svg>
