<?xml version="1.0" encoding="iso-8859-1"?>
<!-- Generator: Adobe Illustrator 18.0.0, SVG Export Plug-In . SVG Version: 6.00 Build 0)  -->
<!DOCTYPE svg PUBLIC "-//W3C//DTD SVG 1.1//EN" "http://www.w3.org/Graphics/SVG/1.1/DTD/svg11.dtd">
<svg version="1.1" id="Capa_1" xmlns="http://www.w3.org/2000/svg" xmlns:xlink="http://www.w3.org/1999/xlink" x="0px" y="0px"
	 viewBox="0 0 395.188 395.188" style="enable-background:new 0 0 395.188 395.188;" xml:space="preserve">
<g>
	<g>
		<path style="fill:none;" d="M197.594,122.367c-45.268,0-82.096,36.828-82.096,82.096c0,45.269,36.828,82.097,82.096,82.097
			c45.27,0,82.098-36.828,82.098-82.097C279.691,159.195,242.863,122.367,197.594,122.367z M197.594,165.482
			c-21.494,0-38.98,17.486-38.98,38.98c0,6.627-5.373,12-12,12c-6.627,0-12-5.373-12-12c0-34.728,28.252-62.98,62.98-62.98
			c6.627,0,12,5.373,12,12C209.594,160.109,204.221,165.482,197.594,165.482z"/>
		<path style="fill:none;" d="M100.115,162.594c16.272-37.739,53.838-64.228,97.479-64.228c43.627,0,81.184,26.471,97.463,64.192
			h76.131v-27.472h-61.322c-2.836,0-5.578-1.004-7.744-2.834l-65.242-55.116h-78.57l-65.24,55.116
			c-2.166,1.83-4.91,2.834-7.744,2.834H24v27.472h75.416C99.652,162.559,99.883,162.582,100.115,162.594z"/>
		<path style="fill:#73D0F4;" d="M303.691,204.462c0,58.502-47.596,106.097-106.098,106.097S91.498,262.964,91.498,204.462
			c0-6.102,0.523-12.081,1.518-17.903H24V318.05h347.188V186.559h-69.016C303.166,192.381,303.691,198.361,303.691,204.462z"/>
		<path style="fill:#3D6889;" d="M197.594,141.482c-34.729,0-62.98,28.253-62.98,62.98c0,6.627,5.373,12,12,12
			c6.627,0,12-5.373,12-12c0-21.494,17.486-38.98,38.98-38.98c6.627,0,12-5.373,12-12
			C209.594,146.855,204.221,141.482,197.594,141.482z"/>
		<path style="fill:#3D6889;" d="M383.188,111.087h-68.932L249.014,55.97c-2.166-1.829-4.908-2.833-7.744-2.833h-87.352
			c-2.834,0-5.578,1.004-7.744,2.833l-65.24,55.117H12c-6.627,0-12,5.372-12,12V330.05c0,6.627,5.373,12,12,12h371.188
			c6.627,0,12-5.373,12-12V123.087C395.188,116.46,389.814,111.087,383.188,111.087z M371.188,318.05H24V186.559h69.016
			c-0.994,5.822-1.518,11.802-1.518,17.903c0,58.502,47.594,106.097,106.096,106.097s106.098-47.595,106.098-106.097
			c0-6.102-0.525-12.081-1.52-17.903h69.016V318.05z M197.594,286.559c-45.268,0-82.096-36.828-82.096-82.097
			c0-45.268,36.828-82.096,82.096-82.096c45.27,0,82.098,36.828,82.098,82.096C279.691,249.731,242.863,286.559,197.594,286.559z
			 M24,135.087h61.324c2.834,0,5.578-1.004,7.744-2.834l65.24-55.116h78.57l65.242,55.116c2.166,1.83,4.908,2.834,7.744,2.834
			h61.322v27.472h-76.131c-16.279-37.722-53.836-64.192-97.463-64.192c-43.641,0-81.207,26.488-97.479,64.228
			c-0.232-0.013-0.463-0.035-0.699-0.035H24V135.087z"/>
	</g>
</g>
<g>
</g>
<g>
</g>
<g>
</g>
<g>
</g>
<g>
</g>
<g>
</g>
<g>
</g>
<g>
</g>
<g>
</g>
<g>
</g>
<g>
</g>
<g>
</g>
<g>
</g>
<g>
</g>
<g>
</g>
</svg>
