<?xml version="1.0" encoding="iso-8859-1"?>
<!-- Generator: Adobe Illustrator 18.0.0, SVG Export Plug-In . SVG Version: 6.00 Build 0)  -->
<!DOCTYPE svg PUBLIC "-//W3C//DTD SVG 1.1//EN" "http://www.w3.org/Graphics/SVG/1.1/DTD/svg11.dtd">
<svg version="1.1" id="Capa_1" xmlns="http://www.w3.org/2000/svg" xmlns:xlink="http://www.w3.org/1999/xlink" x="0px" y="0px"
	 viewBox="0 0 403.68 403.68" style="enable-background:new 0 0 403.68 403.68;" xml:space="preserve">
<g>
	<g>
		<path style="fill:none;" d="M258.239,142.08c8.662,0,15.711-7.049,15.711-15.711c0-8.664-7.049-15.711-15.711-15.711
			c-8.662,0-15.711,7.047-15.711,15.711C242.529,135.031,249.577,142.08,258.239,142.08z"/>
		<path style="fill:none;" d="M280.15,248.476l-42.689-47.541l-27.92,28.184c-2.52,2.541-6.039,3.826-9.602,3.508
			c-3.563-0.32-6.797-2.215-8.82-5.164l-60.572-88.293l-45.468,38.498v122.545h233.522v-47.754h-29.521
			C285.673,252.459,282.427,251.012,280.15,248.476z"/>
		<path style="fill:none;" d="M40.507,379.68h322.667V24H40.507V379.68z M61.079,54.689c0-6.627,5.372-12,12-12h257.522
			c6.627,0,12,5.373,12,12v257.523c0,6.627-5.373,12-12,12H73.079c-6.628,0-12-5.373-12-12V54.689z"/>
		<path style="fill:#73D0F4;" d="M134.525,109.537c3.363,0.451,6.379,2.307,8.299,5.105l59.876,87.279l26.664-26.916
			c2.324-2.346,5.465-3.641,8.818-3.551c3.305,0.082,6.428,1.521,8.635,3.979l47.613,53.025h24.17V66.689H85.079v79.531
			l40.096-33.949C127.763,110.08,131.163,109.084,134.525,109.537z M258.239,86.658c21.897,0,39.711,17.814,39.711,39.711
			s-17.814,39.711-39.711,39.711s-39.711-17.814-39.711-39.711S236.343,86.658,258.239,86.658z"/>
		<path style="fill:#3D6889;" d="M375.173,0H28.507c-6.627,0-12,5.373-12,12v379.68c0,6.627,5.373,12,12,12h346.667
			c6.627,0,12-5.373,12-12V12C387.173,5.373,381.8,0,375.173,0z M363.173,379.68H40.507V24h322.667V379.68z"/>
		<path style="fill:#3D6889;" d="M73.079,324.213h257.522c6.627,0,12-5.373,12-12V54.689c0-6.627-5.373-12-12-12H73.079
			c-6.628,0-12,5.373-12,12v257.523C61.079,318.84,66.451,324.213,73.079,324.213z M318.601,300.213H85.079V177.668l45.468-38.498
			l60.572,88.293c2.023,2.949,5.258,4.844,8.82,5.164c3.563,0.318,7.082-0.967,9.602-3.508l27.92-28.184l42.689,47.541
			c2.277,2.535,5.523,3.982,8.93,3.982h29.521V300.213z M85.079,66.689h233.522v161.77h-24.17l-47.613-53.025
			c-2.207-2.457-5.33-3.896-8.635-3.979c-3.354-0.09-6.494,1.205-8.818,3.551L202.7,201.922l-59.876-87.279
			c-1.92-2.799-4.936-4.654-8.299-5.105c-3.362-0.453-6.762,0.543-9.351,2.734l-40.096,33.949V66.689z"/>
		<path style="fill:#3D6889;" d="M258.239,166.08c21.897,0,39.711-17.814,39.711-39.711s-17.814-39.711-39.711-39.711
			s-39.711,17.814-39.711,39.711S236.343,166.08,258.239,166.08z M258.239,110.658c8.662,0,15.711,7.047,15.711,15.711
			c0,8.662-7.049,15.711-15.711,15.711c-8.662,0-15.711-7.049-15.711-15.711C242.529,117.705,249.577,110.658,258.239,110.658z"/>
	</g>
</g>
<g>
</g>
<g>
</g>
<g>
</g>
<g>
</g>
<g>
</g>
<g>
</g>
<g>
</g>
<g>
</g>
<g>
</g>
<g>
</g>
<g>
</g>
<g>
</g>
<g>
</g>
<g>
</g>
<g>
</g>
</svg>
