<?xml version="1.0" encoding="iso-8859-1"?>
<!-- Generator: Adobe Illustrator 18.0.0, SVG Export Plug-In . SVG Version: 6.00 Build 0)  -->
<!DOCTYPE svg PUBLIC "-//W3C//DTD SVG 1.1//EN" "http://www.w3.org/Graphics/SVG/1.1/DTD/svg11.dtd">
<svg version="1.1" id="Capa_1" xmlns="http://www.w3.org/2000/svg" xmlns:xlink="http://www.w3.org/1999/xlink" x="0px" y="0px"
	 viewBox="0 0 388.543 388.543" style="enable-background:new 0 0 388.543 388.543;" xml:space="preserve">
<g>
	<g>
		<path style="fill:none;" d="M152.595,258.4c-9.523,0-19.439,4.455-27.207,12.224c-13.631,13.633-16.34,33.107-6.038,43.409
			c5.112,5.112,11.634,6.186,16.204,6.186c9.521,0,19.439-4.455,27.207-12.223c6.917-6.917,11.204-15.493,12.069-24.149
			c0.775-7.755-1.367-14.595-6.032-19.259C163.685,259.474,157.163,258.4,152.595,258.4z"/>
		<path style="fill:none;" d="M351.758,24H36.786C29.736,24,24,29.736,24,36.786v314.971c0,7.05,5.736,12.786,12.786,12.786h314.971
			c7.051,0,12.785-5.736,12.785-12.786V36.786C364.543,29.736,358.808,24,351.758,24z M61.615,72.566h53.584c6.627,0,12,5.373,12,12
			c0,6.628-5.373,12-12,12H61.615c-6.627,0-12-5.372-12-12C49.615,77.939,54.987,72.566,61.615,72.566z M49.615,141.784
			c0-6.627,5.373-12,12-12h53.584c6.627,0,12,5.373,12,12c0,6.628-5.373,12-12,12H61.615
			C54.987,153.784,49.615,148.412,49.615,141.784z M198.984,279.369c0,0.124-0.055,4.666-0.273,6.865
			c-1.414,14.153-8.154,27.908-18.979,38.732c-12.237,12.235-28.338,19.252-44.178,19.252c-12.871,0-24.652-4.692-33.174-13.215
			c-19.659-19.66-16.951-54.358,6.037-77.35c12.234-12.236,28.337-19.254,44.178-19.254c8.07,0,15.711,1.847,22.389,5.324V102.548
			c0,0,0.016-2.431,0.041-2.203c0.248-4.335,2.836-8.383,7.078-10.271L282.496,45.36c3.711-1.653,8.008-1.316,11.416,0.897
			c3.408,2.213,5.465,6.001,5.465,10.064v70.554c0,4.743-2.793,9.041-7.127,10.967l-93.266,41.441V279.369z M326.929,315.977
			h-53.586c-6.627,0-12-5.373-12-12c0-6.627,5.373-12,12-12h53.586c6.627,0,12,5.373,12,12
			C338.929,310.603,333.556,315.977,326.929,315.977z M326.929,258.759h-53.586c-6.627,0-12-5.373-12-12c0-6.627,5.373-12,12-12
			h53.586c6.627,0,12,5.373,12,12C338.929,253.386,333.556,258.759,326.929,258.759z"/>
		<polygon style="fill:#73D0F4;" points="198.984,153.021 275.377,119.077 275.377,74.804 198.984,108.827 		"/>
		<path style="fill:#3D6889;" d="M299.377,126.876V56.322c0-4.063-2.057-7.852-5.465-10.064c-3.408-2.213-7.705-2.551-11.416-0.897
			L182.103,90.073c-4.242,1.889-6.83,5.937-7.078,10.271c-0.025-0.228-0.041,2.203-0.041,2.203v137.177
			c-6.678-3.477-14.319-5.324-22.389-5.324c-15.841,0-31.943,7.018-44.178,19.254c-22.988,22.991-25.696,57.69-6.037,77.35
			c8.521,8.522,20.303,13.215,33.174,13.215c15.84,0,31.941-7.017,44.178-19.252c10.824-10.824,17.564-24.579,18.979-38.732
			c0.219-2.199,0.273-6.741,0.273-6.865V179.284l93.266-41.441C296.584,135.917,299.377,131.619,299.377,126.876z M174.83,283.847
			c-0.865,8.656-5.152,17.232-12.069,24.149c-7.768,7.768-17.686,12.223-27.207,12.223c-4.57,0-11.092-1.073-16.204-6.186
			c-10.302-10.303-7.593-29.776,6.038-43.409c7.768-7.768,17.684-12.224,27.207-12.224c4.568,0,11.09,1.073,16.203,6.188
			C173.463,269.252,175.605,276.092,174.83,283.847z M275.377,119.077l-76.393,33.944v-44.194l76.393-34.023V119.077z"/>
		<path style="fill:#3D6889;" d="M351.758,0H36.786C16.502,0,0,16.502,0,36.786v314.971c0,20.284,16.502,36.786,36.786,36.786
			h314.971c20.283,0,36.785-16.502,36.785-36.786V36.786C388.543,16.502,372.041,0,351.758,0z M364.543,351.757
			c0,7.05-5.734,12.786-12.785,12.786H36.786c-7.05,0-12.786-5.736-12.786-12.786V36.786C24,29.736,29.736,24,36.786,24h314.971
			c7.051,0,12.785,5.736,12.785,12.786V351.757z"/>
		<path style="fill:#3D6889;" d="M61.615,96.566h53.584c6.627,0,12-5.372,12-12c0-6.627-5.373-12-12-12H61.615
			c-6.627,0-12,5.373-12,12C49.615,91.194,54.987,96.566,61.615,96.566z"/>
		<path style="fill:#3D6889;" d="M127.198,141.784c0-6.627-5.373-12-12-12H61.615c-6.627,0-12,5.373-12,12c0,6.628,5.373,12,12,12
			h53.584C121.825,153.784,127.198,148.412,127.198,141.784z"/>
		<path style="fill:#3D6889;" d="M326.929,234.759h-53.586c-6.627,0-12,5.373-12,12c0,6.627,5.373,12,12,12h53.586
			c6.627,0,12-5.373,12-12C338.929,240.132,333.556,234.759,326.929,234.759z"/>
		<path style="fill:#3D6889;" d="M326.929,291.977h-53.586c-6.627,0-12,5.373-12,12c0,6.627,5.373,12,12,12h53.586
			c6.627,0,12-5.373,12-12C338.929,297.35,333.556,291.977,326.929,291.977z"/>
	</g>
</g>
<g>
</g>
<g>
</g>
<g>
</g>
<g>
</g>
<g>
</g>
<g>
</g>
<g>
</g>
<g>
</g>
<g>
</g>
<g>
</g>
<g>
</g>
<g>
</g>
<g>
</g>
<g>
</g>
<g>
</g>
</svg>
