<?xml version="1.0" encoding="iso-8859-1"?>
<!-- Generator: Adobe Illustrator 18.0.0, SVG Export Plug-In . SVG Version: 6.00 Build 0)  -->
<!DOCTYPE svg PUBLIC "-//W3C//DTD SVG 1.1//EN" "http://www.w3.org/Graphics/SVG/1.1/DTD/svg11.dtd">
<svg version="1.1" id="Capa_1" xmlns="http://www.w3.org/2000/svg" xmlns:xlink="http://www.w3.org/1999/xlink" x="0px" y="0px"
	 viewBox="0 0 436.871 436.871" style="enable-background:new 0 0 436.871 436.871;" xml:space="preserve">
<g>
	<path style="fill:none;" d="M363.832,205.941c-6.461-87.674-80.871-157.65-169.688-157.65C100.326,48.291,24,124.618,24,218.436
		c0,89.787,69.9,163.552,158.145,169.725v-56.753c-57.02-6.014-101.6-54.384-101.6-112.971c0-62.64,50.961-113.601,113.6-113.601
		c29.553,0,57.543,11.29,78.818,31.79c19.287,18.586,31.221,42.958,34.1,69.315H363.832z"/>
	<polygon style="fill:#73D0F4;" points="270.549,229.941 333.719,296.331 396.889,229.941 	"/>
	<path style="fill:#3D6889;" d="M435.898,213.212c-1.891-4.411-6.229-7.271-11.027-7.271h-36.99
		c-3.035-47.915-23.443-92.516-57.992-126.307C293.4,43.946,245.193,24.291,194.145,24.291C87.094,24.291,0,111.384,0,218.436
		C0,325.487,87.094,412.58,194.145,412.58c6.627,0,12-5.373,12-12v-80.543c0-6.627-5.373-12-12-12c-49.406,0-89.6-40.194-89.6-89.6
		c0-49.406,40.193-89.601,89.6-89.601c45.291,0,82.688,33.21,88.744,77.105h-40.322c-4.799,0-9.137,2.859-11.029,7.271
		c-1.891,4.411-0.973,9.524,2.336,13.001l91.152,95.798c2.264,2.381,5.406,3.728,8.693,3.728c3.285,0,6.428-1.348,8.693-3.728
		l91.152-95.798C436.873,222.737,437.791,217.623,435.898,213.212z M270.549,229.941h126.34l-63.17,66.39L270.549,229.941z
		 M272.963,136.626c-21.275-20.5-49.266-31.79-78.818-31.79c-62.639,0-113.6,50.961-113.6,113.601
		c0,58.587,44.58,106.957,101.6,112.971v56.753C93.9,381.988,24,308.222,24,218.436c0-93.818,76.326-170.145,170.145-170.145
		c88.816,0,163.227,69.977,169.688,157.65h-56.77C304.184,179.585,292.25,155.213,272.963,136.626z"/>
</g>
<g>
</g>
<g>
</g>
<g>
</g>
<g>
</g>
<g>
</g>
<g>
</g>
<g>
</g>
<g>
</g>
<g>
</g>
<g>
</g>
<g>
</g>
<g>
</g>
<g>
</g>
<g>
</g>
<g>
</g>
</svg>
