<?xml version="1.0" encoding="iso-8859-1"?>
<!-- Generator: Adobe Illustrator 18.0.0, SVG Export Plug-In . SVG Version: 6.00 Build 0)  -->
<!DOCTYPE svg PUBLIC "-//W3C//DTD SVG 1.1//EN" "http://www.w3.org/Graphics/SVG/1.1/DTD/svg11.dtd">
<svg version="1.1" id="Capa_1" xmlns="http://www.w3.org/2000/svg" xmlns:xlink="http://www.w3.org/1999/xlink" x="0px" y="0px"
	 viewBox="0 0 432.149 432.149" style="enable-background:new 0 0 432.149 432.149;" xml:space="preserve">
<g>
	<g>
		<path style="fill:none;" d="M150.396,301.272c30.959,0,56.145-31.063,56.145-69.244c0-38.18-25.188-69.242-56.146-69.242
			c-30.957,0-56.144,31.063-56.144,69.242C94.25,270.21,119.437,301.272,150.396,301.272z"/>
		<path style="fill:none;" d="M383.874,57.571c-15.654-15.654-36.467-24.275-58.605-24.275c-22.139,0-42.953,8.621-58.605,24.274
			c-15.656,15.655-24.277,36.47-24.277,58.608s8.621,42.951,24.277,58.605c15.652,15.656,36.467,24.277,58.605,24.277
			c22.139,0,42.951-8.621,58.605-24.277c15.654-15.654,24.275-36.467,24.275-58.605C408.149,94.038,399.528,73.225,383.874,57.571z
			 M358.94,127.71h-70.152c-6.627,0-12-5.371-12-12c0-6.627,5.373-12,12-12h70.152c6.627,0,12,5.373,12,12
			C370.94,122.338,365.567,127.71,358.94,127.71z"/>
		<path style="fill:#73D0F4;" d="M241.339,351.661c-24.133-17.018-56.431-26.389-90.943-26.389
			c-34.513,0-66.812,9.371-90.946,26.389c-18.67,13.164-30.489,29.596-34.195,47.193H70.25v-21.432c0-6.627,5.373-12,12-12
			c6.627,0,12,5.373,12,12v21.432h112.29v-21.432c0-6.627,5.373-12,11.999-12c6.627,0,12,5.373,12,12v21.432h44.994
			C271.829,381.256,260.009,364.825,241.339,351.661z"/>
		<path style="fill:#3D6889;" d="M400.845,40.6c-20.188-20.187-47.027-31.305-75.576-31.305c-28.551,0-55.391,11.117-75.576,31.305
			c-20.188,20.188-31.307,47.027-31.307,75.578c0,28.549,11.119,55.389,31.307,75.576c20.186,20.188,47.025,31.307,75.576,31.307
			c28.549,0,55.389-11.119,75.576-31.307s31.305-47.027,31.305-75.576C432.149,87.627,421.032,60.788,400.845,40.6z
			 M383.874,174.784c-15.654,15.656-36.467,24.277-58.605,24.277c-22.139,0-42.953-8.621-58.605-24.277
			c-15.656-15.654-24.277-36.467-24.277-58.605s8.621-42.953,24.277-58.608c15.652-15.653,36.467-24.274,58.605-24.274
			c22.139,0,42.951,8.621,58.605,24.275s24.275,36.467,24.275,58.607C408.149,138.317,399.528,159.129,383.874,174.784z"/>
		<path style="fill:#3D6889;" d="M358.94,103.71h-70.152c-6.627,0-12,5.373-12,12c0,6.629,5.373,12,12,12h70.152
			c6.627,0,12-5.371,12-12C370.94,109.083,365.567,103.71,358.94,103.71z"/>
		<path style="fill:#3D6889;" d="M255.169,332.045c-16.381-11.551-35.838-20.074-57.011-25.188
			c19.638-17.01,32.382-44.221,32.382-74.83c0-51.414-35.953-93.242-80.146-93.242c-44.191,0-80.144,41.828-80.144,93.242
			c0,30.609,12.744,57.82,32.383,74.83c-21.174,5.113-40.631,13.637-57.013,25.188C16.201,352.788,0,380.776,0,410.854
			c0,6.627,5.373,12,12,12h276.788c6.629,0,12-5.373,12-12C300.788,380.776,284.587,352.788,255.169,332.045z M94.25,232.028
			c0-38.18,25.187-69.242,56.144-69.242c30.959,0,56.146,31.063,56.146,69.242c0,38.182-25.186,69.244-56.145,69.244
			C119.437,301.272,94.25,270.21,94.25,232.028z M230.54,398.854v-21.432c0-6.627-5.373-12-12-12c-6.626,0-11.999,5.373-11.999,12
			v21.432H94.25v-21.432c0-6.627-5.373-12-12-12c-6.627,0-12,5.373-12,12v21.432H25.255c3.706-17.598,15.525-34.029,34.195-47.193
			c24.134-17.018,56.433-26.389,90.946-26.389c34.512,0,66.81,9.371,90.943,26.389c18.67,13.164,30.49,29.596,34.195,47.193H230.54z
			"/>
	</g>
</g>
<g>
</g>
<g>
</g>
<g>
</g>
<g>
</g>
<g>
</g>
<g>
</g>
<g>
</g>
<g>
</g>
<g>
</g>
<g>
</g>
<g>
</g>
<g>
</g>
<g>
</g>
<g>
</g>
<g>
</g>
</svg>
