<?xml version="1.0" encoding="iso-8859-1"?>
<!-- Generator: Adobe Illustrator 18.0.0, SVG Export Plug-In . SVG Version: 6.00 Build 0)  -->
<!DOCTYPE svg PUBLIC "-//W3C//DTD SVG 1.1//EN" "http://www.w3.org/Graphics/SVG/1.1/DTD/svg11.dtd">
<svg version="1.1" id="Capa_1" xmlns="http://www.w3.org/2000/svg" xmlns:xlink="http://www.w3.org/1999/xlink" x="0px" y="0px"
	 viewBox="0 0 403.723 403.723" style="enable-background:new 0 0 403.723 403.723;" xml:space="preserve">
<g>
	<path style="fill:none;" d="M86.738,313.788H73.965v15.97h255.793V73.966H73.965v15.97h12.773c6.627,0,12,5.373,12,12v65.666
		c0,6.628-5.373,12-12,12H73.965v44.52h12.773c6.627,0,12,5.373,12,12v65.667C98.738,308.415,93.365,313.788,86.738,313.788z
		 M129.662,202.016c0-18.305,6.046-35.223,16.244-48.865l-33.476-33.475c-4.687-4.687-4.687-12.284,0-16.971
		c4.687-4.686,12.284-4.687,16.971,0l33.528,33.526c13.579-10.039,30.357-15.988,48.503-15.988c18.226,0,35.073,5.997,48.685,16.116
		l33.655-33.654c4.688-4.686,12.285-4.686,16.971,0c4.687,4.687,4.687,12.284,0,16.971l-33.655,33.654
		c10.12,13.611,16.118,30.46,16.118,48.686c0,18.146-5.95,34.925-15.99,48.505l33.527,33.527c4.687,4.687,4.687,12.284,0,16.971
		c-2.343,2.343-5.414,3.515-8.485,3.515c-3.071,0-6.143-1.172-8.485-3.515l-33.476-33.476
		c-13.642,10.198-30.561,16.244-48.864,16.244c-18.225,0-35.072-5.998-48.683-16.116l-33.349,33.348
		c-2.343,2.343-5.415,3.515-8.485,3.515c-3.071,0-6.143-1.172-8.485-3.515c-4.687-4.686-4.687-12.284,0-16.971l33.349-33.348
		C135.66,237.089,129.662,220.24,129.662,202.016z"/>
	<rect x="24" y="179.601" style="fill:none;" width="25.965" height="44.52"/>
	<path style="fill:none;" d="M364.75,24H38.973C30.717,24,24,30.717,24,38.973v50.963h25.965v-27.97c0-6.628,5.373-12,12-12h279.793
		c6.627,0,12,5.372,12,12v279.792c0,6.627-5.373,12-12,12H61.965c-6.627,0-12-5.373-12-12v-27.97H24v50.962
		c0,8.256,6.717,14.973,14.973,14.973H364.75c8.256,0,14.973-6.717,14.973-14.973V38.973C379.723,30.717,373.006,24,364.75,24z"/>
	<rect x="24" y="113.936" style="fill:#73D0F4;" width="50.738" height="41.666"/>
	<path style="fill:#73D0F4;" d="M61.965,289.786c0.014,0,0.025,0.002,0.039,0.002h12.734v-41.667H24v41.667h37.926
		C61.939,289.788,61.951,289.786,61.965,289.786z"/>
	<path style="fill:#73D0F4;" d="M211.433,259.787c31.856,0,57.773-25.916,57.773-57.772c0-31.856-25.917-57.772-57.773-57.772
		c-31.855,0-57.771,25.916-57.771,57.772C153.662,233.871,179.578,259.787,211.433,259.787z"/>
	<path style="fill:#3D6889;" d="M364.75,0H38.973C17.482,0,0,17.483,0,38.973v62.963v65.666v68.52v65.667v62.962
		c0,21.49,17.482,38.973,38.973,38.973H364.75c21.49,0,38.973-17.483,38.973-38.973V38.973C403.723,17.483,386.24,0,364.75,0z
		 M24,113.936h50.738v41.666H24V113.936z M86.738,224.121H73.965v-44.52h12.773c6.627,0,12-5.372,12-12v-65.666
		c0-6.627-5.373-12-12-12H73.965v-15.97h255.793v255.792H73.965v-15.97h12.773c6.627,0,12-5.372,12-12v-65.667
		C98.738,229.494,93.365,224.121,86.738,224.121z M24,179.602h25.965v44.52H24V179.602z M24,248.121h50.738v41.667H62.004
		c-0.014,0-0.025-0.002-0.039-0.002c-0.014,0-0.025,0.002-0.039,0.002H24V248.121z M379.723,364.75
		c0,8.256-6.717,14.973-14.973,14.973H38.973c-8.256,0-14.973-6.717-14.973-14.973v-50.962h25.965v27.97c0,6.627,5.373,12,12,12
		h279.793c6.627,0,12-5.373,12-12V61.966c0-6.628-5.373-12-12-12H61.965c-6.627,0-12,5.372-12,12v27.97H24V38.973
		C24,30.717,30.717,24,38.973,24H364.75c8.256,0,14.973,6.717,14.973,14.973V364.75z"/>
	<path style="fill:#3D6889;" d="M112.431,301.018c2.343,2.343,5.414,3.515,8.485,3.515c3.07,0,6.143-1.172,8.485-3.515
		l33.349-33.348c13.61,10.118,30.458,16.116,48.683,16.116c18.304,0,35.223-6.046,48.864-16.244l33.476,33.476
		c2.343,2.343,5.414,3.515,8.485,3.515c3.071,0,6.143-1.172,8.485-3.515c4.687-4.686,4.687-12.284,0-16.971l-33.527-33.527
		c10.04-13.58,15.99-30.358,15.99-48.505c0-18.226-5.998-35.074-16.118-48.686l33.655-33.654c4.687-4.687,4.687-12.284,0-16.971
		c-4.686-4.686-12.283-4.686-16.971,0l-33.655,33.654c-13.611-10.119-30.459-16.116-48.685-16.116
		c-18.146,0-34.924,5.949-48.503,15.988l-33.528-33.526c-4.687-4.687-12.284-4.686-16.971,0c-4.687,4.687-4.687,12.284,0,16.971
		l33.476,33.475c-10.198,13.642-16.244,30.561-16.244,48.865c0,18.225,5.998,35.073,16.117,48.685l-33.349,33.348
		C107.744,288.734,107.744,296.332,112.431,301.018z M211.433,144.243c31.856,0,57.773,25.916,57.773,57.772
		c0,31.855-25.917,57.772-57.773,57.772c-31.855,0-57.771-25.916-57.771-57.772C153.662,170.159,179.578,144.243,211.433,144.243z"
		/>
</g>
<g>
</g>
<g>
</g>
<g>
</g>
<g>
</g>
<g>
</g>
<g>
</g>
<g>
</g>
<g>
</g>
<g>
</g>
<g>
</g>
<g>
</g>
<g>
</g>
<g>
</g>
<g>
</g>
<g>
</g>
</svg>
