<?xml version="1.0" encoding="iso-8859-1"?>
<!-- Generator: Adobe Illustrator 18.0.0, SVG Export Plug-In . SVG Version: 6.00 Build 0)  -->
<!DOCTYPE svg PUBLIC "-//W3C//DTD SVG 1.1//EN" "http://www.w3.org/Graphics/SVG/1.1/DTD/svg11.dtd">
<svg version="1.1" id="Capa_1" xmlns="http://www.w3.org/2000/svg" xmlns:xlink="http://www.w3.org/1999/xlink" x="0px" y="0px"
	 viewBox="0 0 405.676 405.676" style="enable-background:new 0 0 405.676 405.676;" xml:space="preserve">
<g>
	<g>
		<path style="fill:none;" d="M202.837,132.068c-20.169,0-33.348,8.068-35.536,46.028h71.074
			C236.187,140.137,223.008,132.068,202.837,132.068z"/>
		<path style="fill:none;" d="M202.512,68.311c-74.356,0-134.849,60.494-134.849,134.851c0,74.356,60.493,134.85,134.849,134.85
			c74.358,0,134.852-60.493,134.852-134.85C337.365,128.806,276.87,68.311,202.512,68.311z M283.551,276.557c0,6.627-5.373,12-12,12
			H134.125c-6.628,0-12-5.373-12-12v-86.46c0-6.627,5.373-12,12-12h9.13c0.911-18.77,4.115-32.418,10.074-43.286
			c9.729-17.745,26.386-26.742,49.508-26.742s39.779,8.997,49.509,26.742c5.96,10.869,9.164,24.517,10.075,43.286h9.13
			c6.627,0,12,5.373,12,12V276.557z"/>
		<rect x="146.125" y="202.097" style="fill:#73D0F4;" width="113.426" height="62.46"/>
		<path style="fill:#3D6889;" d="M323.247,306.273c23.751-27.769,38.118-63.792,38.118-103.111
			c0-39.485-14.485-75.648-38.416-103.464l79.211-79.213c4.686-4.687,4.686-12.284,0-16.971c-4.687-4.686-12.284-4.686-16.971,0
			l-79.211,79.213c-27.816-23.931-63.98-38.416-103.466-38.416c-39.319,0-75.342,14.367-103.111,38.118L20.487,3.515
			c-4.686-4.687-12.285-4.686-16.971,0c-4.686,4.686-4.686,12.284,0,16.971l78.86,78.861
			c-24.109,27.861-38.712,64.165-38.712,103.815c0,39.484,14.485,75.646,38.415,103.463L3.516,385.19
			c-4.687,4.687-4.686,12.284,0,16.971c2.343,2.343,5.414,3.515,8.485,3.515s6.142-1.172,8.485-3.515l78.562-78.565
			c27.816,23.931,63.979,38.416,103.463,38.416c39.651,0,75.955-14.603,103.817-38.713l78.859,78.862
			c2.343,2.343,5.414,3.515,8.485,3.515c3.071,0,6.142-1.172,8.485-3.515c4.686-4.686,4.687-12.284,0-16.971L323.247,306.273z
			 M202.512,338.012c-74.356,0-134.849-60.493-134.849-134.85c0-74.356,60.493-134.851,134.849-134.851
			c74.358,0,134.852,60.494,134.852,134.851C337.365,277.518,276.87,338.012,202.512,338.012z"/>
		<path style="fill:#3D6889;" d="M271.551,178.097h-9.13c-0.912-18.77-4.116-32.417-10.075-43.286
			c-9.729-17.745-26.387-26.742-49.509-26.742s-39.779,8.997-49.508,26.742c-5.959,10.868-9.163,24.516-10.074,43.286h-9.13
			c-6.628,0-12,5.373-12,12v86.46c0,6.627,5.373,12,12,12h137.426c6.627,0,12-5.373,12-12v-86.46
			C283.551,183.47,278.179,178.097,271.551,178.097z M259.551,264.557H146.125v-62.46h113.426V264.557z M202.837,132.068
			c20.17,0,33.35,8.068,35.538,46.028h-71.074C169.49,140.137,182.668,132.068,202.837,132.068z"/>
	</g>
</g>
<g>
</g>
<g>
</g>
<g>
</g>
<g>
</g>
<g>
</g>
<g>
</g>
<g>
</g>
<g>
</g>
<g>
</g>
<g>
</g>
<g>
</g>
<g>
</g>
<g>
</g>
<g>
</g>
<g>
</g>
</svg>
