<?xml version="1.0" encoding="iso-8859-1"?>
<!-- Generator: Adobe Illustrator 19.0.0, SVG Export Plug-In . SVG Version: 6.00 Build 0)  -->
<svg version="1.1" id="Capa_1" xmlns="http://www.w3.org/2000/svg" xmlns:xlink="http://www.w3.org/1999/xlink" x="0px" y="0px"
	 viewBox="0 0 378.276 378.276" style="enable-background:new 0 0 378.276 378.276;" xml:space="preserve">
<g>
	<g>
		<path style="fill:none;" d="M189.143,150.798c-21.565,0-39.108,17.543-39.108,39.109c0,21.564,17.544,39.107,39.108,39.107
			s39.109-17.543,39.109-39.107C228.252,168.341,210.707,150.798,189.143,150.798z"/>
		<path style="fill:none;" d="M189.144,114.896c-41.362,0-75.012,33.65-75.012,75.012c0,41.359,33.649,75.01,75.012,75.01
			c41.36,0,75.011-33.65,75.011-75.01C264.154,148.546,230.504,114.896,189.144,114.896z M189.143,253.015
			c-34.798,0-63.108-28.311-63.108-63.107c0-34.799,28.31-63.109,63.108-63.109c34.799,0,63.109,28.31,63.109,63.109
			C252.252,224.705,223.941,253.015,189.143,253.015z"/>
		<path style="fill:#73D0F4;" d="M189.143,57.523c-72.996,0-132.383,59.387-132.383,132.383s59.386,132.383,132.383,132.383
			s132.384-59.387,132.384-132.383S262.14,57.523,189.143,57.523z M189.144,288.917c-54.595,0-99.012-44.416-99.012-99.01
			c0-54.596,44.417-99.012,99.012-99.012s99.011,44.416,99.011,99.012C288.154,244.501,243.738,288.917,189.144,288.917z"/>
		<path style="fill:#3D6889;" d="M366.281,177.906H345.07c-0.966-12.674-3.451-24.928-7.271-36.586l19.59-8.113
			c6.123-2.537,9.03-9.557,6.494-15.68s-9.556-9.033-15.679-6.494l-19.625,8.129c-5.684-11.16-12.674-21.545-20.758-30.963
			l15.061-15.063c4.687-4.688,4.687-12.285,0-16.971c-4.686-4.688-12.284-4.688-16.971,0l-15.063,15.063
			c-9.42-8.082-19.807-15.07-30.963-20.754l8.131-19.63c2.536-6.123-0.371-13.143-6.494-15.679
			c-6.123-2.537-13.143,0.371-15.679,6.494l-8.124,19.613c-11.662-3.82-23.918-6.32-36.599-7.285
			c0.005-0.139,0.021-0.274,0.021-0.414V12.767c0-6.627-5.372-12-12-12c-6.627,0-12,5.373-12,12v20.807
			c0,0.139,0.017,0.271,0.021,0.408c-12.689,0.967-24.959,3.453-36.626,7.281c-0.05-0.132-0.087-0.266-0.142-0.396l-7.955-19.207
			c-2.536-6.123-9.557-9.031-15.678-6.495c-6.123,2.536-9.031,9.556-6.495,15.679l7.954,19.207c0.06,0.143,0.129,0.279,0.193,0.42
			c-11.16,5.688-21.551,12.678-30.973,20.766L72.37,56.166c-4.687-4.687-12.285-4.687-16.971,0c-4.687,4.687-4.687,12.284,0,16.97
			l15.059,15.059c-8.084,9.422-15.07,19.809-20.756,30.967l-19.625-8.129c-6.123-2.535-13.144,0.373-15.679,6.496
			c-2.536,6.123,0.372,13.143,6.495,15.678l19.59,8.115c-3.818,11.656-6.305,23.912-7.272,36.586H12c-6.627,0-12,5.373-12,12
			s5.373,12,12,12h21.211c0.967,12.676,3.455,24.93,7.278,36.584l-19.597,8.115c-6.123,2.537-9.03,9.557-6.494,15.68
			c1.914,4.621,6.382,7.41,11.092,7.41c1.529,0,3.085-0.293,4.586-0.916l19.637-8.133c5.688,11.154,12.67,21.543,20.754,30.961
			l-15.068,15.068c-4.687,4.688-4.687,12.285,0,16.971c2.343,2.344,5.414,3.516,8.484,3.516c3.072,0,6.143-1.172,8.486-3.516
			l15.072-15.072c9.42,8.084,19.797,15.082,30.955,20.766l-8.131,19.629c-2.536,6.123,0.371,13.143,6.494,15.678
			c1.502,0.623,3.057,0.916,4.588,0.916c4.709,0,9.177-2.789,11.091-7.41l8.118-19.602c11.656,3.818,23.908,6.311,36.582,7.277
			v19.68c0,6.627,5.373,12,12,12s12-5.373,12-12v-19.68c12.674-0.967,24.93-3.449,36.584-7.273l8.118,19.598
			c1.914,4.621,6.382,7.41,11.091,7.41c1.53,0,3.086-0.295,4.588-0.916c6.123-2.537,9.03-9.557,6.494-15.68l-8.133-19.633
			c11.154-5.688,21.54-12.674,30.958-20.758l15.07,15.07c2.343,2.344,5.414,3.516,8.485,3.516s6.142-1.172,8.485-3.516
			c4.687-4.686,4.687-12.283,0-16.971l-15.057-15.059c8.082-9.418,15.068-19.807,20.754-30.965l19.625,8.131
			c1.502,0.621,3.057,0.916,4.588,0.916c4.709,0,9.177-2.789,11.091-7.41c2.536-6.123-0.371-13.143-6.494-15.68l-19.591-8.115
			c3.819-11.658,6.305-23.914,7.271-36.588h21.211c6.627,0,12-5.373,12-12C378.281,183.279,372.908,177.906,366.281,177.906z
			 M189.143,322.289c-72.996,0-132.383-59.387-132.383-132.383S116.146,57.523,189.143,57.523s132.384,59.387,132.384,132.383
			S262.14,322.289,189.143,322.289z"/>
		<path style="fill:#3D6889;" d="M189.144,90.896c-54.595,0-99.012,44.416-99.012,99.012c0,54.594,44.417,99.01,99.012,99.01
			s99.011-44.416,99.011-99.01C288.154,135.312,243.738,90.896,189.144,90.896z M189.144,264.917
			c-41.362,0-75.012-33.65-75.012-75.01c0-41.361,33.649-75.012,75.012-75.012c41.36,0,75.011,33.65,75.011,75.012
			C264.154,231.267,230.504,264.917,189.144,264.917z"/>
		<path style="fill:#3D6889;" d="M189.143,126.798c-34.798,0-63.108,28.31-63.108,63.109c0,34.797,28.31,63.107,63.108,63.107
			c34.799,0,63.109-28.311,63.109-63.107C252.252,155.109,223.941,126.798,189.143,126.798z M189.143,229.015
			c-21.565,0-39.108-17.543-39.108-39.107c0-21.566,17.544-39.109,39.108-39.109s39.109,17.543,39.109,39.109
			C228.252,211.472,210.707,229.015,189.143,229.015z"/>
	</g>
</g>
<g>
</g>
<g>
</g>
<g>
</g>
<g>
</g>
<g>
</g>
<g>
</g>
<g>
</g>
<g>
</g>
<g>
</g>
<g>
</g>
<g>
</g>
<g>
</g>
<g>
</g>
<g>
</g>
<g>
</g>
</svg>
