<?xml version="1.0" encoding="iso-8859-1"?>
<!-- Generator: Adobe Illustrator 18.0.0, SVG Export Plug-In . SVG Version: 6.00 Build 0)  -->
<!DOCTYPE svg PUBLIC "-//W3C//DTD SVG 1.1//EN" "http://www.w3.org/Graphics/SVG/1.1/DTD/svg11.dtd">
<svg version="1.1" id="Capa_1" xmlns="http://www.w3.org/2000/svg" xmlns:xlink="http://www.w3.org/1999/xlink" x="0px" y="0px"
	 viewBox="0 0 420.545 420.545" style="enable-background:new 0 0 420.545 420.545;" xml:space="preserve">
<g>
	<g>
		<path style="fill:none;" d="M302.747,114.797c9.795,9.251,22.611,14.346,36.09,14.346c28.988,0,52.57-23.584,52.57-52.572
			c0-28.987-23.582-52.57-52.57-52.57c-27.531,0-50.566,21.487-52.445,48.917c-0.082,1.21-0.125,2.441-0.125,3.653
			C286.267,91.183,292.12,104.758,302.747,114.797z"/>
		<path style="fill:none;" d="M275.448,119.454c-5.846-8.666-9.881-18.467-11.828-28.747L136.708,152.52
			c7.246,7.488,12.984,16.438,16.711,26.37L275.448,119.454z"/>
		<path style="fill:none;" d="M136.71,258.906l128.879,62.77c3.088-10.128,8.229-19.362,14.928-27.237l-127.096-61.903
			C149.692,242.468,143.954,251.418,136.71,258.906z"/>
		<path style="fill:none;" d="M338.837,291.404c-28.986,0-52.57,23.583-52.57,52.57c0,28.987,23.584,52.57,52.57,52.57
			c28.988,0,52.57-23.583,52.57-52.57C391.407,314.987,367.825,291.404,338.837,291.404z"/>
		<path style="fill:#73D0F4;" d="M134.28,205.713c0-28.987-23.584-52.57-52.572-52.57c-28.986,0-52.57,23.583-52.57,52.57
			s23.584,52.57,52.57,52.57C110.696,258.283,134.28,234.7,134.28,205.713z"/>
		<path style="fill:#3D6889;" d="M338.837,267.404c-13.861,0-26.863,3.722-38.092,10.19l-142.527-69.418
			c0.025-0.819,0.063-1.638,0.063-2.464c0-0.826-0.037-1.645-0.063-2.465l134.547-65.532c13.227,9.989,29.293,15.427,46.072,15.427
			c42.221,0,76.57-34.35,76.57-76.572c0-42.221-34.35-76.57-76.57-76.57c-37.689,0-69.592,27.663-75.563,64.18l-148.662,72.405
			c-9.975-4.767-21.133-7.442-32.904-7.442c-42.221,0-76.57,34.35-76.57,76.57c0,42.222,34.35,76.57,76.57,76.57
			c11.774,0,22.93-2.676,32.904-7.442l147.727,71.949c1.488,40.92,35.223,73.755,76.498,73.755c42.221,0,76.57-34.349,76.57-76.57
			C415.407,301.754,381.058,267.404,338.837,267.404z M286.392,72.917C288.271,45.487,311.306,24,338.837,24
			c28.988,0,52.57,23.583,52.57,52.57c0,28.988-23.582,52.572-52.57,52.572c-13.479,0-26.295-5.095-36.09-14.346
			c-10.627-10.039-16.48-23.614-16.48-38.227C286.267,75.358,286.31,74.127,286.392,72.917z M263.62,90.707
			c1.947,10.28,5.982,20.081,11.828,28.747L153.419,178.89c-3.727-9.932-9.465-18.882-16.711-26.37L263.62,90.707z M29.138,205.713
			c0-28.987,23.584-52.57,52.57-52.57c28.988,0,52.572,23.583,52.572,52.57s-23.584,52.57-52.572,52.57
			C52.722,258.283,29.138,234.7,29.138,205.713z M265.589,321.677l-128.879-62.77c7.244-7.488,12.982-16.439,16.711-26.37
			l127.096,61.903C273.817,302.315,268.677,311.549,265.589,321.677z M338.837,396.545c-28.986,0-52.57-23.583-52.57-52.57
			c0-28.987,23.584-52.57,52.57-52.57c28.988,0,52.57,23.583,52.57,52.57C391.407,372.962,367.825,396.545,338.837,396.545z"/>
	</g>
</g>
<g>
</g>
<g>
</g>
<g>
</g>
<g>
</g>
<g>
</g>
<g>
</g>
<g>
</g>
<g>
</g>
<g>
</g>
<g>
</g>
<g>
</g>
<g>
</g>
<g>
</g>
<g>
</g>
<g>
</g>
</svg>
