<?xml version="1.0" encoding="iso-8859-1"?>
<!-- Generator: Adobe Illustrator 18.0.0, SVG Export Plug-In . SVG Version: 6.00 Build 0)  -->
<!DOCTYPE svg PUBLIC "-//W3C//DTD SVG 1.1//EN" "http://www.w3.org/Graphics/SVG/1.1/DTD/svg11.dtd">
<svg version="1.1" id="Capa_1" xmlns="http://www.w3.org/2000/svg" xmlns:xlink="http://www.w3.org/1999/xlink" x="0px" y="0px"
	 viewBox="0 0 423.461 423.461" style="enable-background:new 0 0 423.461 423.461;" xml:space="preserve">
<g>
	<g>
		<path style="fill:none;" d="M211.731,38.742c-32.939,48.967-102.578,54.895-133.994,54.92l9.627,149.222
			c5.664,60.716,28.699,105.539,68.465,133.222c25.869,18.009,50.234,22.435,55.873,23.254c5.707-0.855,30.883-5.512,56.871-23.914
			c39.191-27.748,61.91-72.349,67.527-132.562l9.625-149.222C314.309,93.637,244.672,87.709,211.731,38.742z M298.27,121.583
			c4.416,0,7.142-0.214,7.17-0.216c3.477-0.277,6.902,0.967,9.385,3.412c2.48,2.443,3.787,5.846,3.564,9.32l-6.764,104.834
			c-0.008,0.113-0.017,0.225-0.027,0.336c-5.229,56.391-31.457,85.721-52.539,100.396c-23.111,16.09-45.209,18.449-46.139,18.541
			c-0.395,0.04-0.793,0.059-1.189,0.059s-0.793-0.019-1.188-0.059c-0.93-0.092-23.027-2.451-46.141-18.541
			c-21.082-14.676-47.311-44.006-52.541-100.396c-0.01-0.111-0.018-0.223-0.025-0.336L105.074,134.1
			c-0.225-3.482,1.078-6.891,3.568-9.335c2.49-2.444,5.926-3.682,9.398-3.396c0.01,0,2.732,0.214,7.15,0.214
			c18.758-0.001,63.635-3.593,75.205-36.864c1.678-4.824,6.227-8.059,11.334-8.059c5.109,0,9.656,3.234,11.334,8.059
			C234.635,117.99,279.514,121.583,298.27,121.583z"/>
		<path style="fill:#73D0F4;" d="M211.731,113.092c-21.75,26.811-60.482,31.84-81.869,32.427l5.914,91.7
			c7.768,82.951,66.313,95.444,75.955,96.942c9.643-1.498,68.189-13.989,75.955-96.942l5.916-91.7
			C272.213,144.932,233.481,139.902,211.731,113.092z"/>
		<path style="fill:#3D6889;" d="M366.959,72.712c-2.484-2.444-5.912-3.688-9.389-3.407c-0.045,0.004-4.48,0.357-11.648,0.357
			c-30.498,0-103.521-6.004-122.857-61.604C221.387,3.234,216.84,0,211.731,0c-5.107,0-9.656,3.234-11.334,8.059
			c-19.336,55.6-92.359,61.604-122.857,61.604c-7.17,0-11.602-0.354-11.635-0.355c-3.478-0.288-6.908,0.951-9.398,3.396
			c-2.49,2.446-3.793,5.853-3.568,9.335L63.424,244.6c0.008,0.112,0.016,0.223,0.027,0.336
			c7.873,84.913,47.123,128.91,78.664,150.867c34.447,23.979,67.055,27.461,68.426,27.598c0.396,0.041,0.793,0.061,1.189,0.061
			s0.795-0.02,1.189-0.061c1.371-0.137,33.98-3.619,68.426-27.598c31.541-21.957,70.793-65.954,78.666-150.867
			c0.01-0.113,0.02-0.224,0.025-0.336l10.486-162.563C370.748,78.559,369.443,75.156,366.959,72.712z M336.1,242.884
			c-5.617,60.213-28.336,104.813-67.527,132.562c-25.988,18.402-51.164,23.059-56.871,23.914
			c-5.639-0.818-30.004-5.245-55.873-23.254c-39.766-27.683-62.801-72.506-68.465-133.222L77.736,93.662
			c31.416-0.025,101.055-5.953,133.994-54.92c32.941,48.967,102.578,54.895,133.994,54.92L336.1,242.884z"/>
		<path style="fill:#3D6889;" d="M211.731,76.66c-5.107,0-9.656,3.234-11.334,8.059c-11.57,33.271-56.447,36.863-75.205,36.864
			c-4.418,0-7.141-0.214-7.15-0.214c-3.473-0.286-6.908,0.951-9.398,3.396c-2.49,2.444-3.793,5.853-3.568,9.335l6.762,104.834
			c0.008,0.113,0.016,0.225,0.025,0.336c5.23,56.391,31.459,85.721,52.541,100.396c23.113,16.09,45.211,18.449,46.141,18.541
			c0.395,0.04,0.791,0.059,1.188,0.059s0.795-0.019,1.189-0.059c0.93-0.092,23.027-2.451,46.139-18.541
			c21.082-14.676,47.311-44.006,52.539-100.396c0.01-0.111,0.02-0.223,0.027-0.336l6.764-104.834
			c0.223-3.475-1.084-6.877-3.564-9.32c-2.482-2.445-5.908-3.689-9.385-3.412c-0.027,0.002-2.754,0.216-7.17,0.216
			c-18.756,0-63.635-3.593-75.205-36.864C221.387,79.895,216.84,76.66,211.731,76.66z M287.686,237.219
			c-7.766,82.953-66.313,95.444-75.955,96.942c-9.643-1.498-68.188-13.991-75.955-96.942l-5.914-91.7
			c21.387-0.587,60.119-5.616,81.869-32.427c21.75,26.811,60.482,31.84,81.871,32.427L287.686,237.219z"/>
	</g>
</g>
<g>
</g>
<g>
</g>
<g>
</g>
<g>
</g>
<g>
</g>
<g>
</g>
<g>
</g>
<g>
</g>
<g>
</g>
<g>
</g>
<g>
</g>
<g>
</g>
<g>
</g>
<g>
</g>
<g>
</g>
</svg>
