<?xml version="1.0" encoding="iso-8859-1"?>
<!-- Generator: Adobe Illustrator 18.0.0, SVG Export Plug-In . SVG Version: 6.00 Build 0)  -->
<!DOCTYPE svg PUBLIC "-//W3C//DTD SVG 1.1//EN" "http://www.w3.org/Graphics/SVG/1.1/DTD/svg11.dtd">
<svg version="1.1" id="Capa_1" xmlns="http://www.w3.org/2000/svg" xmlns:xlink="http://www.w3.org/1999/xlink" x="0px" y="0px"
	 viewBox="0 0 404.725 404.725" style="enable-background:new 0 0 404.725 404.725;" xml:space="preserve">
<g>
	<g>
		<path style="fill:none;" d="M296.444,23.998H108.28c-6.826,0-12.379,5.555-12.379,12.379v266.551h212.922V36.377
			C308.823,29.553,303.271,23.998,296.444,23.998z M202.362,60.041h-58.039c-6.826,0-12.379,5.553-12.379,12.379v195.359
			c0,6.627-5.373,12-12,12c-6.627,0-12-5.373-12-12V72.42c0-20.059,16.32-36.379,36.379-36.379h58.039c6.627,0,12,5.373,12,12
			C214.362,54.67,208.989,60.041,202.362,60.041z"/>
		<path style="fill:#73D0F4;" d="M95.901,368.346c0,6.826,5.553,12.379,12.379,12.379h188.164c6.826,0,12.379-5.553,12.379-12.379
			v-41.418H95.901V368.346z M193.874,343.619c2.229-2.23,5.328-3.51,8.488-3.51s6.25,1.279,8.48,3.51c2.23,2.23,3.52,5.33,3.52,8.49
			c0,3.16-1.289,6.25-3.52,8.48c-2.23,2.238-5.32,3.52-8.48,3.52s-6.26-1.281-8.488-3.52c-2.23-2.23-3.512-5.32-3.512-8.48
			C190.362,348.949,191.644,345.859,193.874,343.619z"/>
		<path style="fill:#3D6889;" d="M202.362,364.109c3.16,0,6.25-1.281,8.48-3.52c2.23-2.23,3.52-5.32,3.52-8.48
			c0-3.16-1.289-6.26-3.52-8.49c-2.23-2.23-5.32-3.51-8.48-3.51s-6.26,1.279-8.488,3.51c-2.23,2.24-3.512,5.33-3.512,8.49
			c0,3.16,1.281,6.25,3.512,8.48C196.102,362.828,199.202,364.109,202.362,364.109z"/>
		<path style="fill:#3D6889;" d="M296.444,0H108.28C88.222,0,71.901,16.318,71.901,36.377v331.969
			c0,20.059,16.32,36.379,36.379,36.379h188.164c20.061,0,36.379-16.32,36.379-36.379V36.377C332.823,16.318,316.505,0,296.444,0z
			 M308.823,368.346c0,6.826-5.553,12.379-12.379,12.379H108.28c-6.826,0-12.379-5.553-12.379-12.379v-41.418h212.922V368.346z
			 M308.823,302.928H95.901V36.377c0-6.824,5.553-12.379,12.379-12.379h188.164c6.826,0,12.379,5.555,12.379,12.379V302.928z"/>
		<path style="fill:#3D6889;" d="M202.362,36.041h-58.039c-20.059,0-36.379,16.32-36.379,36.379v195.359c0,6.627,5.373,12,12,12
			c6.627,0,12-5.373,12-12V72.42c0-6.826,5.553-12.379,12.379-12.379h58.039c6.627,0,12-5.371,12-12
			C214.362,41.414,208.989,36.041,202.362,36.041z"/>
	</g>
</g>
<g>
</g>
<g>
</g>
<g>
</g>
<g>
</g>
<g>
</g>
<g>
</g>
<g>
</g>
<g>
</g>
<g>
</g>
<g>
</g>
<g>
</g>
<g>
</g>
<g>
</g>
<g>
</g>
<g>
</g>
</svg>
