<?xml version="1.0" encoding="iso-8859-1"?>
<!-- Generator: Adobe Illustrator 18.0.0, SVG Export Plug-In . SVG Version: 6.00 Build 0)  -->
<!DOCTYPE svg PUBLIC "-//W3C//DTD SVG 1.1//EN" "http://www.w3.org/Graphics/SVG/1.1/DTD/svg11.dtd">
<svg version="1.1" id="Capa_1" xmlns="http://www.w3.org/2000/svg" xmlns:xlink="http://www.w3.org/1999/xlink" x="0px" y="0px"
	 viewBox="0 0 423.339 423.339" style="enable-background:new 0 0 423.339 423.339;" xml:space="preserve">
<g>
	<g>
		<path style="fill:none;" d="M108.904,168.515H93.397v86.309h15.507c2.695,0,5.312,0.908,7.428,2.576l76.31,60.145v-211.75
			l-76.31,60.145C114.216,167.606,111.6,168.515,108.904,168.515z"/>
		<path style="fill:#73D0F4;" d="M279.054,120.511l-9.397,14.789c17.157,19.383,27.17,47.346,27.17,76.877
			c0,28.559-9.51,55.959-25.799,75.293l9.314,15.039c21.573-22.32,34.141-55.102,34.141-90.332
			C314.482,176.12,301.433,142.821,279.054,120.511z"/>
		<path style="fill:#73D0F4;" d="M324.213,49.095L314.78,63.94c39.973,25.172,66.925,83.512,66.925,147.891
			c0,63.684-26.633,121.848-66.11,147.32l9.249,14.961c44.952-28.932,74.495-92.432,74.495-162.281
			C399.339,141.534,369.535,77.823,324.213,49.095z"/>
		<path style="fill:#73D0F4;" d="M24,211.669c0,23.795,14.256,43.154,31.779,43.154h13.618v-86.309H55.779
			C38.256,168.515,24,187.874,24,211.669z"/>
		<path style="fill:#3D6889;" d="M396.365,96.173C378.801,62.331,354.33,36.794,325.6,22.317c-5.508-2.773-12.22-0.922-15.527,4.281
			L287.57,62.011c-1.886,2.967-2.375,6.611-1.34,9.971c1.035,3.359,3.491,6.096,6.719,7.486
			c37.522,16.17,64.756,71.836,64.756,132.363c0,59.805-26.867,115.291-63.884,131.938c-3.151,1.418-5.54,4.125-6.552,7.43
			c-1.013,3.305-0.551,6.885,1.267,9.826l22.002,35.59c2.257,3.65,6.178,5.691,10.215,5.691c1.842,0,3.707-0.424,5.449-1.314
			c28.578-14.594,52.901-40.141,70.343-73.883c17.528-33.91,26.794-73.772,26.794-115.277
			C423.339,170.165,414.012,130.171,396.365,96.173z M324.844,374.112l-9.249-14.961c39.478-25.473,66.11-83.637,66.11-147.32
			c0-64.379-26.952-122.719-66.925-147.891l9.433-14.846c45.322,28.729,75.126,92.439,75.126,162.736
			C399.339,281.681,369.796,345.181,324.844,374.112z"/>
		<path style="fill:#3D6889;" d="M338.482,212.177c0-48.521-20.476-93.166-54.772-119.42c-2.671-2.045-6.083-2.873-9.392-2.287
			c-3.313,0.59-6.227,2.541-8.031,5.381l-22.021,34.658c-3.153,4.963-2.245,11.48,2.143,15.393
			c16.295,14.525,26.417,39.922,26.417,66.275c0,25.859-9.382,50.189-25.098,65.084c-4.13,3.914-4.943,10.19-1.947,15.027
			l21.726,35.082c1.801,2.908,4.758,4.91,8.127,5.502c0.69,0.121,1.385,0.18,2.075,0.18c2.68,0,5.306-0.898,7.44-2.584
			C318.545,304.077,338.482,259.856,338.482,212.177z M280.342,302.509l-9.314-15.039c16.289-19.334,25.799-46.734,25.799-75.293
			c0-29.531-10.013-57.494-27.17-76.877l9.397-14.789c22.379,22.31,35.429,55.609,35.429,91.666
			C314.482,247.407,301.915,280.188,280.342,302.509z"/>
		<path style="fill:#3D6889;" d="M209.879,70.261c-4.136-2.006-9.056-1.475-12.665,1.373l-92.47,72.881H90.079h-8.682H55.779
			C25.022,144.515,0,174.64,0,211.669s25.022,67.154,55.779,67.154h25.618h8.682h14.665l92.47,72.883
			c2.157,1.701,4.783,2.576,7.43,2.576c1.781,0,3.571-0.397,5.235-1.203c4.137-2.008,6.763-6.201,6.763-10.797V81.058
			C216.642,76.46,214.016,72.267,209.879,70.261z M69.397,254.823H55.779C38.256,254.823,24,235.464,24,211.669
			s14.256-43.154,31.779-43.154h13.618V254.823z M192.642,317.544l-76.31-60.145c-2.116-1.668-4.732-2.576-7.428-2.576H93.397
			v-86.309h15.507c2.695,0,5.312-0.908,7.428-2.576l76.31-60.145V317.544z"/>
	</g>
</g>
<g>
</g>
<g>
</g>
<g>
</g>
<g>
</g>
<g>
</g>
<g>
</g>
<g>
</g>
<g>
</g>
<g>
</g>
<g>
</g>
<g>
</g>
<g>
</g>
<g>
</g>
<g>
</g>
<g>
</g>
</svg>
