<?xml version="1.0" encoding="iso-8859-1"?>
<!-- Generator: Adobe Illustrator 18.0.0, SVG Export Plug-In . SVG Version: 6.00 Build 0)  -->
<!DOCTYPE svg PUBLIC "-//W3C//DTD SVG 1.1//EN" "http://www.w3.org/Graphics/SVG/1.1/DTD/svg11.dtd">
<svg version="1.1" id="Capa_1" xmlns="http://www.w3.org/2000/svg" xmlns:xlink="http://www.w3.org/1999/xlink" x="0px" y="0px"
	 viewBox="0 0 374.679 374.679" style="enable-background:new 0 0 374.679 374.679;" xml:space="preserve">
<g>
	<g>
		<g>
			<path style="fill:none;" d="M108.904,144.184H93.397v86.309h15.507c2.695,0,5.312,0.908,7.428,2.576l76.31,60.145V81.464
				l-76.31,60.145C114.216,143.276,111.6,144.184,108.904,144.184z"/>
			<path style="fill:#73D0F4;" d="M24,187.339c0,23.795,14.256,43.154,31.779,43.154h13.618v-86.309H55.779
				C38.256,144.184,24,163.544,24,187.339z"/>
			<path style="fill:#3D6889;" d="M209.879,45.93c-4.136-2.006-9.056-1.475-12.665,1.373l-92.47,72.881H90.079h-8.682H55.779
				C25.022,120.184,0,150.309,0,187.339s25.022,67.154,55.779,67.154h25.618h8.682h14.665l92.47,72.883
				c2.157,1.701,4.783,2.576,7.43,2.576c1.781,0,3.571-0.396,5.235-1.203c4.137-2.008,6.763-6.201,6.763-10.797V56.727
				C216.642,52.13,214.016,47.936,209.879,45.93z M69.397,230.493H55.779C38.256,230.493,24,211.134,24,187.339
				s14.256-43.154,31.779-43.154h13.618V230.493z M192.642,293.214l-76.31-60.145c-2.116-1.668-4.732-2.576-7.428-2.576H93.397
				v-86.309h15.507c2.695,0,5.312-0.908,7.428-2.576l76.31-60.145V293.214z"/>
		</g>
		<path style="fill:#3D6889;" d="M324.946,187.339l46.218-46.217c4.687-4.688,4.687-12.285,0-16.971
			c-4.688-4.687-12.285-4.687-16.971,0l-46.218,46.217l-46.217-46.217c-4.686-4.687-12.284-4.687-16.971,0
			c-4.686,4.686-4.686,12.283,0,16.971l46.217,46.217l-46.218,46.218c-4.686,4.686-4.686,12.284,0,16.971
			c2.344,2.343,5.414,3.515,8.485,3.515c3.07,0,6.143-1.172,8.485-3.515l46.218-46.218l46.218,46.218
			c2.344,2.343,5.414,3.515,8.485,3.515c3.07,0,6.143-1.172,8.485-3.515c4.687-4.687,4.687-12.284,0-16.971L324.946,187.339z"/>
	</g>
</g>
<g>
</g>
<g>
</g>
<g>
</g>
<g>
</g>
<g>
</g>
<g>
</g>
<g>
</g>
<g>
</g>
<g>
</g>
<g>
</g>
<g>
</g>
<g>
</g>
<g>
</g>
<g>
</g>
<g>
</g>
</svg>
