<?xml version="1.0" encoding="iso-8859-1"?>
<!-- Generator: Adobe Illustrator 18.0.0, SVG Export Plug-In . SVG Version: 6.00 Build 0)  -->
<!DOCTYPE svg PUBLIC "-//W3C//DTD SVG 1.1//EN" "http://www.w3.org/Graphics/SVG/1.1/DTD/svg11.dtd">
<svg version="1.1" id="Capa_1" xmlns="http://www.w3.org/2000/svg" xmlns:xlink="http://www.w3.org/1999/xlink" x="0px" y="0px"
	 viewBox="0 0 396.994 396.994" style="enable-background:new 0 0 396.994 396.994;" xml:space="preserve">
<g>
	<g>
		<path style="fill:none;" d="M349.143,167.03H47.85c-13.15,0-23.85,10.697-23.85,23.85v156.707c0,13.15,10.699,23.85,23.85,23.85
			h301.293c13.152,0,23.852-10.699,23.852-23.85V190.88C372.994,177.728,362.295,167.03,349.143,167.03z M231.783,286.878v37.877
			c0,6.627-5.373,12-12,12h-42.574c-6.627,0-12-5.373-12-12v-37.877c-10.596-9.434-16.762-22.983-16.762-37.379
			c0-27.598,22.451-50.049,50.049-50.049s50.051,22.451,50.051,50.049C248.547,263.895,242.379,277.444,231.783,286.878z"/>
		<path style="fill:#73D0F4;" d="M76.779,143.03h29.893c2.268-48.689,42.586-87.602,91.824-87.602
			c20.566,0,40.102,6.707,56.107,19.09l21.606-20.965c-21.801-18.133-48.975-27.996-77.713-27.996
			C132.785,25.558,79.068,77.866,76.779,143.03z"/>
		<path style="fill:#73D0F4;" d="M198.496,223.45c-14.363,0-26.049,11.686-26.049,26.049c0,8.664,4.293,16.74,11.484,21.602
			c3.301,2.232,5.277,5.957,5.277,9.941v31.713h18.574v-31.713c0-3.984,1.977-7.709,5.277-9.941
			c7.191-4.861,11.486-12.938,11.486-21.602C224.547,235.136,212.859,223.45,198.496,223.45z"/>
		<path style="fill:#3D6889;" d="M349.143,143.03H130.719c2.242-35.445,31.775-63.602,67.777-63.602
			c18.145,0,35.203,7.066,48.033,19.898c4.639,4.637,12.137,4.691,16.842,0.125l38.664-37.52c2.299-2.229,3.609-5.283,3.643-8.484
			c0.035-3.201-1.213-6.283-3.463-8.561c-27.608-27.941-64.443-43.33-103.719-43.33c-78.947,0-143.434,63.072-145.732,141.473H47.85
			C21.465,143.03,0,164.495,0,190.88v156.707c0,26.385,21.465,47.85,47.85,47.85h301.293c26.385,0,47.852-21.465,47.852-47.85
			V190.88C396.994,164.495,375.527,143.03,349.143,143.03z M276.209,53.554l-21.606,20.965
			c-16.006-12.383-35.541-19.09-56.107-19.09c-49.238,0-89.557,38.912-91.824,87.602H76.779
			c2.289-65.164,56.006-117.473,121.717-117.473C227.234,25.558,254.408,35.421,276.209,53.554z M372.994,347.587
			c0,13.15-10.699,23.85-23.852,23.85H47.85c-13.15,0-23.85-10.699-23.85-23.85V190.88c0-13.152,10.699-23.85,23.85-23.85h301.293
			c13.152,0,23.852,10.697,23.852,23.85V347.587z"/>
		<path style="fill:#3D6889;" d="M198.496,199.45c-27.598,0-50.049,22.451-50.049,50.049c0,14.396,6.166,27.945,16.762,37.379
			v37.877c0,6.627,5.373,12,12,12h42.574c6.627,0,12-5.373,12-12v-37.877c10.596-9.434,16.764-22.983,16.764-37.379
			C248.547,221.901,226.094,199.45,198.496,199.45z M213.061,271.101c-3.301,2.232-5.277,5.957-5.277,9.941v31.713h-18.574v-31.713
			c0-3.984-1.977-7.709-5.277-9.941c-7.191-4.861-11.484-12.938-11.484-21.602c0-14.363,11.686-26.049,26.049-26.049
			c14.363,0,26.051,11.686,26.051,26.049C224.547,258.163,220.252,266.239,213.061,271.101z"/>
	</g>
</g>
<g>
</g>
<g>
</g>
<g>
</g>
<g>
</g>
<g>
</g>
<g>
</g>
<g>
</g>
<g>
</g>
<g>
</g>
<g>
</g>
<g>
</g>
<g>
</g>
<g>
</g>
<g>
</g>
<g>
</g>
</svg>
