<?xml version="1.0" encoding="iso-8859-1"?>
<!-- Generator: Adobe Illustrator 18.0.0, SVG Export Plug-In . SVG Version: 6.00 Build 0)  -->
<!DOCTYPE svg PUBLIC "-//W3C//DTD SVG 1.1//EN" "http://www.w3.org/Graphics/SVG/1.1/DTD/svg11.dtd">
<svg version="1.1" id="Capa_1" xmlns="http://www.w3.org/2000/svg" xmlns:xlink="http://www.w3.org/1999/xlink" x="0px" y="0px"
	 viewBox="0 0 455.916 455.916" style="enable-background:new 0 0 455.916 455.916;" xml:space="preserve">
<g>
	<g>
		<path style="fill:#73D0F4;" d="M227.958,303.564c-12.252,0-22.219,9.967-22.219,22.22c0,12.252,9.967,22.22,22.219,22.22
			c12.252,0,22.221-9.968,22.221-22.22C250.179,313.531,240.21,303.564,227.958,303.564z"/>
		<path style="fill:#3D6889;" d="M331.315,174.075c-30.084-19.509-65.826-29.821-103.357-29.821
			c-37.533,0-73.275,10.313-103.359,29.821c-29.389,19.059-51.617,46.323-62.592,76.771c-2.248,6.235,0.984,13.11,7.219,15.358
			c6.242,2.247,13.111-0.985,15.359-7.22c19.561-54.27,77.178-90.732,143.373-90.732c66.195,0,123.812,36.462,143.375,90.732
			c1.762,4.891,6.373,7.934,11.289,7.934c1.352-0.001,2.725-0.23,4.068-0.715c6.234-2.248,9.467-9.123,7.221-15.358
			C382.936,220.398,360.706,193.134,331.315,174.075z"/>
		<path style="fill:#3D6889;" d="M454.874,219.574c-17.68-39.68-48.242-73.518-88.387-97.855
			c-40.799-24.733-88.701-37.807-138.529-37.807c-49.828,0-97.73,13.073-138.529,37.808c-40.145,24.338-70.709,58.176-88.387,97.856
			c-2.697,6.055,0.023,13.148,6.076,15.846c1.588,0.707,3.246,1.041,4.877,1.041c4.594,0,8.979-2.652,10.969-7.119
			c32.359-72.631,114.74-121.431,204.994-121.431c90.252,0,172.633,48.798,204.994,121.429c2.695,6.054,9.787,8.773,15.844,6.078
			C454.85,232.722,457.571,225.627,454.874,219.574z"/>
		<path style="fill:#3D6889;" d="M290.696,236.179c-17.164-13.884-39.445-21.529-62.738-21.529
			c-23.291,0-45.572,7.646-62.738,21.529c-17.514,14.165-28.168,33.485-30.002,54.401c-0.578,6.603,4.305,12.423,10.906,13.002
			c0.357,0.031,0.711,0.047,1.063,0.047c6.152,0,11.392-4.708,11.939-10.953c2.656-30.296,32.891-54.026,68.832-54.026
			c35.943,0,66.178,23.73,68.832,54.025c0.578,6.602,6.406,11.489,13,10.907c6.604-0.578,11.486-6.399,10.908-13.001
			C318.866,269.665,308.212,250.344,290.696,236.179z"/>
		<path style="fill:#3D6889;" d="M227.958,279.564c-25.486,0-46.219,20.734-46.219,46.22c0,25.485,20.732,46.22,46.219,46.22
			c25.486,0,46.221-20.734,46.221-46.22C274.179,300.298,253.444,279.564,227.958,279.564z M227.958,348.003
			c-12.252,0-22.219-9.968-22.219-22.22c0-12.253,9.967-22.22,22.219-22.22c12.252,0,22.221,9.967,22.221,22.22
			C250.179,338.035,240.21,348.003,227.958,348.003z"/>
	</g>
</g>
<g>
</g>
<g>
</g>
<g>
</g>
<g>
</g>
<g>
</g>
<g>
</g>
<g>
</g>
<g>
</g>
<g>
</g>
<g>
</g>
<g>
</g>
<g>
</g>
<g>
</g>
<g>
</g>
<g>
</g>
</svg>
