<?xml version="1.0" encoding="iso-8859-1"?>
<!-- Generator: Adobe Illustrator 18.0.0, SVG Export Plug-In . SVG Version: 6.00 Build 0)  -->
<!DOCTYPE svg PUBLIC "-//W3C//DTD SVG 1.1//EN" "http://www.w3.org/Graphics/SVG/1.1/DTD/svg11.dtd">
<svg version="1.1" id="Capa_1" xmlns="http://www.w3.org/2000/svg" xmlns:xlink="http://www.w3.org/1999/xlink" x="0px" y="0px"
	 viewBox="0 0 423.614 423.614" style="enable-background:new 0 0 423.614 423.614;" xml:space="preserve">
<g>
	<g>
		<path style="fill:none;" d="M248.691,62.558C223.826,37.693,190.768,24,155.604,24c-35.162,0-68.219,13.692-93.08,38.556
			c-51.328,51.326-51.328,134.842,0,186.17c24.863,24.863,57.92,38.557,93.082,38.557c35.164,0,68.223-13.693,93.086-38.557
			C300.015,197.398,300.015,113.883,248.691,62.558z M235.508,235.542c-21.342,21.342-49.719,33.098-79.902,33.098
			c-30.182,0-58.559-11.756-79.899-33.098c-21.344-21.343-33.098-49.719-33.098-79.902c0-30.182,11.754-58.559,33.098-79.9
			c21.34-21.343,49.717-33.097,79.899-33.097c30.184,0,58.56,11.754,79.902,33.097C279.564,119.797,279.564,191.483,235.508,235.542
			z"/>
		<path style="fill:none;" d="M218.537,92.709c-16.809-16.81-39.158-26.066-62.932-26.066c-23.771,0-46.119,9.257-62.928,26.066
			c-16.811,16.81-26.068,39.159-26.068,62.931c0,23.772,9.258,46.121,26.068,62.931c16.809,16.811,39.156,26.069,62.928,26.069
			c23.773,0,46.123-9.259,62.932-26.069C253.236,183.871,253.236,127.409,218.537,92.709z"/>
		<path style="fill:none;" d="M290.775,264.933l-12.932-12.949c-3.748,4.748-7.803,9.332-12.182,13.712
			c-4.393,4.393-9.006,8.483-13.806,12.276l11.958,11.925L290.775,264.933z"/>
		<path style="fill:#73D0F4;" d="M394.398,368.692l-86.652-86.767l-26.924,24.929l87.81,87.551c0.09,0.082,0.18,0.164,0.268,0.249
			c7.088,6.791,18.5,6.667,25.443-0.276c6.941-6.941,7.064-18.357,0.273-25.449C394.543,368.851,394.47,368.772,394.398,368.692z"/>
		<path style="fill:#3D6889;" d="M235.508,75.739c-21.342-21.343-49.719-33.097-79.902-33.097
			c-30.182,0-58.559,11.754-79.899,33.097c-21.344,21.342-33.098,49.719-33.098,79.9c0,30.184,11.754,58.56,33.098,79.902
			c21.34,21.342,49.717,33.098,79.899,33.098c30.184,0,58.56-11.756,79.902-33.098C279.564,191.483,279.564,119.797,235.508,75.739z
			 M218.537,218.57c-16.809,16.811-39.158,26.069-62.932,26.069c-23.771,0-46.119-9.259-62.928-26.069
			c-16.811-16.81-26.068-39.158-26.068-62.931c0-23.771,9.258-46.121,26.068-62.931c16.809-16.81,39.156-26.066,62.928-26.066
			c23.773,0,46.123,9.257,62.932,26.066C253.236,127.409,253.236,183.871,218.537,218.57z"/>
		<path style="fill:#3D6889;" d="M412.423,352.83c-0.201-0.236-0.414-0.466-0.635-0.688L291.445,231.642
			c33.125-59.258,24.531-135.738-25.783-186.056C236.264,16.19,197.178,0,155.604,0C114.031,0,74.947,16.188,45.553,45.584
			c-60.686,60.685-60.686,159.427,0,220.111c29.396,29.396,68.48,45.587,110.053,45.587c27.016,0,52.975-6.842,75.912-19.696
			l120.595,120.241c0.229,0.228,0.465,0.444,0.707,0.65c8.031,7.434,18.342,11.137,28.648,11.137
			c10.842-0.001,21.68-4.1,29.846-12.267C427.248,395.413,427.689,369.308,412.423,352.83z M394.343,394.378
			c-6.943,6.943-18.355,7.067-25.443,0.276c-0.088-0.085-0.178-0.167-0.268-0.249l-87.81-87.551l26.924-24.929l86.652,86.767
			c0.072,0.079,0.145,0.158,0.219,0.236C401.408,376.021,401.285,387.436,394.343,394.378z M155.606,287.282
			c-35.162,0-68.219-13.693-93.082-38.557c-51.328-51.328-51.328-134.844,0-186.17C87.385,37.692,120.441,24,155.604,24
			c35.164,0,68.223,13.693,93.088,38.558c51.324,51.325,51.324,134.841,0,186.168C223.828,273.589,190.77,287.282,155.606,287.282z
			 M265.662,265.695c4.379-4.38,8.434-8.964,12.182-13.712l12.932,12.949l-26.961,24.964l-11.958-11.925
			C256.656,274.179,261.269,270.088,265.662,265.695z"/>
		<path style="fill:#3D6889;" d="M191.449,143.143h-74.672c-6.627,0-12,5.373-12,12c0,6.627,5.373,12,12,12h25.336h24h25.336
			c6.627,0,12-5.373,12-12C203.449,148.516,198.076,143.143,191.449,143.143z"/>
	</g>
</g>
<g>
</g>
<g>
</g>
<g>
</g>
<g>
</g>
<g>
</g>
<g>
</g>
<g>
</g>
<g>
</g>
<g>
</g>
<g>
</g>
<g>
</g>
<g>
</g>
<g>
</g>
<g>
</g>
<g>
</g>
</svg>
