<?xml version="1.0" encoding="iso-8859-1"?>
<!-- Generator: Adobe Illustrator 18.0.0, SVG Export Plug-In . SVG Version: 6.00 Build 0)  -->
<!DOCTYPE svg PUBLIC "-//W3C//DTD SVG 1.1//EN" "http://www.w3.org/Graphics/SVG/1.1/DTD/svg11.dtd">
<svg version="1.1" id="Capa_1" xmlns="http://www.w3.org/2000/svg" xmlns:xlink="http://www.w3.org/1999/xlink" x="0px" y="0px"
	 viewBox="0 0 423.614 423.614" style="enable-background:new 0 0 423.614 423.614;" xml:space="preserve">
<g>
	<g>
		<path style="fill:none;" d="M248.69,62.558C223.826,37.693,190.768,24,155.604,24c-35.162,0-68.219,13.692-93.082,38.556
			c-51.326,51.326-51.326,134.842,0,186.17c24.863,24.863,57.922,38.557,93.084,38.557s68.221-13.693,93.084-38.557
			C300.016,197.398,300.016,113.883,248.69,62.558z M235.506,235.542c-21.342,21.342-49.717,33.098-79.9,33.098
			s-58.559-11.756-79.9-33.098c-21.342-21.343-33.096-49.719-33.096-79.902c0-30.182,11.754-58.559,33.096-79.9
			c21.342-21.343,49.717-33.097,79.9-33.097s58.559,11.754,79.9,33.097C279.565,119.797,279.565,191.483,235.506,235.542z"/>
		<path style="fill:none;" d="M218.535,92.709c-16.809-16.81-39.158-26.066-62.93-26.066s-46.121,9.257-62.93,26.066
			c-16.809,16.81-26.066,39.159-26.066,62.931c0,23.772,9.258,46.121,26.066,62.931c16.809,16.811,39.158,26.069,62.93,26.069
			s46.121-9.259,62.93-26.069C253.236,183.871,253.236,127.409,218.535,92.709z M191.447,167.143h-25.336v25.336
			c0,6.628-5.371,12-12,12c-6.627,0-12-5.372-12-12v-25.336h-25.336c-6.627,0-12-5.373-12-12c0-6.627,5.373-12,12-12h25.336v-25.335
			c0-6.628,5.373-12,12-12c6.629,0,12,5.372,12,12v25.335h25.336c6.627,0,12,5.373,12,12
			C203.447,161.77,198.074,167.143,191.447,167.143z"/>
		<path style="fill:none;" d="M290.774,264.933l-12.932-12.949c-3.748,4.748-7.801,9.332-12.182,13.712
			c-4.393,4.393-9.006,8.483-13.807,12.276l11.959,11.925L290.774,264.933z"/>
		<path style="fill:#73D0F4;" d="M394.397,368.692l-86.652-86.767l-26.922,24.929l87.809,87.551c0.092,0.082,0.18,0.164,0.268,0.249
			c7.088,6.791,18.502,6.667,25.443-0.276c6.941-6.941,7.064-18.357,0.275-25.449C394.543,368.85,394.469,368.771,394.397,368.692z"
			/>
		<path style="fill:#3D6889;" d="M235.506,75.739c-21.342-21.343-49.717-33.097-79.9-33.097s-58.559,11.754-79.9,33.097
			c-21.342,21.342-33.096,49.719-33.096,79.9c0,30.184,11.754,58.56,33.096,79.902c21.342,21.342,49.717,33.098,79.9,33.098
			s58.559-11.756,79.9-33.098C279.565,191.483,279.565,119.797,235.506,75.739z M218.535,218.57
			c-16.809,16.811-39.158,26.069-62.93,26.069s-46.121-9.259-62.93-26.069c-16.809-16.81-26.066-39.158-26.066-62.931
			c0-23.771,9.258-46.121,26.066-62.931c16.809-16.81,39.158-26.066,62.93-26.066s46.121,9.257,62.93,26.066
			C253.236,127.409,253.236,183.871,218.535,218.57z"/>
		<path style="fill:#3D6889;" d="M412.424,352.83c-0.203-0.236-0.414-0.466-0.637-0.688L291.445,231.642
			c33.123-59.258,24.531-135.738-25.785-186.056C236.264,16.19,197.178,0,155.604,0C114.031,0,74.947,16.188,45.551,45.584
			c-60.684,60.685-60.684,159.427,0,220.111c29.396,29.396,68.48,45.587,110.055,45.587c27.014,0,52.975-6.842,75.91-19.696
			l120.598,120.241c0.229,0.228,0.465,0.444,0.707,0.65c8.029,7.434,18.34,11.137,28.648,11.137
			c10.84-0.001,21.678-4.1,29.844-12.267C427.248,395.413,427.69,369.308,412.424,352.83z M394.342,394.378
			c-6.941,6.943-18.355,7.067-25.443,0.276c-0.088-0.085-0.176-0.167-0.268-0.249l-87.809-87.551l26.922-24.929l86.652,86.767
			c0.072,0.079,0.146,0.158,0.221,0.236C401.406,376.021,401.283,387.436,394.342,394.378z M155.606,287.282
			c-35.162,0-68.221-13.693-93.084-38.557c-51.326-51.328-51.326-134.844,0-186.17C87.385,37.692,120.442,24,155.604,24
			c35.164,0,68.223,13.693,93.086,38.558c51.326,51.325,51.326,134.841,0,186.168C223.826,273.589,190.768,287.282,155.606,287.282z
			 M265.66,265.695c4.381-4.38,8.434-8.964,12.182-13.712l12.932,12.949l-26.961,24.964l-11.959-11.925
			C256.655,274.179,261.268,270.088,265.66,265.695z"/>
		<path style="fill:#3D6889;" d="M191.447,143.143h-25.336v-25.335c0-6.628-5.371-12-12-12c-6.627,0-12,5.372-12,12v25.335h-25.336
			c-6.627,0-12,5.373-12,12c0,6.627,5.373,12,12,12h25.336v25.336c0,6.628,5.373,12,12,12c6.629,0,12-5.372,12-12v-25.336h25.336
			c6.627,0,12-5.373,12-12C203.447,148.516,198.074,143.143,191.447,143.143z"/>
	</g>
</g>
<g>
</g>
<g>
</g>
<g>
</g>
<g>
</g>
<g>
</g>
<g>
</g>
<g>
</g>
<g>
</g>
<g>
</g>
<g>
</g>
<g>
</g>
<g>
</g>
<g>
</g>
<g>
</g>
<g>
</g>
</svg>
