<?xml version="1.0" encoding="iso-8859-1"?>
<!-- Generator: Adobe Illustrator 19.0.0, SVG Export Plug-In . SVG Version: 6.00 Build 0)  -->
<svg version="1.1" id="Capa_1" xmlns="http://www.w3.org/2000/svg" xmlns:xlink="http://www.w3.org/1999/xlink" x="0px" y="0px"
	 viewBox="0 0 296.334 296.334" style="enable-background:new 0 0 296.334 296.334;" xml:space="preserve">
<g>
	<path d="M133.925,55.73c0-22.643,18.291-40.73,40.365-40.73h0.242c22.326,0,40.489,18.322,40.489,41.049
		c0,4.143,3.357,7.416,7.5,7.416c4.143,0,7.5-3.231,7.5-7.374C230.022,25.094,205.129,0,174.532,0h-0.242
		c-30.345,0-55.365,24.816-55.365,55.73V64h15V55.73z"/>
	<path d="M222.425,79.166c-4.143,0-7.5,3.357-7.5,7.5v17c0,4.143,3.357,7.5,7.5,7.5c4.143,0,7.5-3.357,7.5-7.5v-17
		C229.925,82.523,226.567,79.166,222.425,79.166z"/>
	<path d="M263.304,81.697l-12.02-12.022c-2.929-2.929-7.678-2.93-10.607-0.001c-2.93,2.929-2.93,7.678-0.001,10.607l12.02,12.021
		c1.465,1.465,3.384,2.197,5.304,2.197c1.919,0,3.839-0.732,5.303-2.196C266.232,89.375,266.232,84.626,263.304,81.697z"/>
	<path d="M194.066,69.676l-12.02,12.022c-2.929,2.929-2.929,7.678,0.001,10.606c1.464,1.464,3.384,2.196,5.303,2.196
		s3.839-0.732,5.304-2.197l12.021-12.021c2.929-2.929,2.929-7.678-0.001-10.607C201.745,66.747,196.996,66.746,194.066,69.676z"/>
	<path d="M166.091,115.664c-4.794-2.266-9.166-4.142-15.166-5.587V89.044c0-5.5-3.891-10.044-9.391-10.044h-0.276h-31.234
		c-5.5,0-10.099,4.544-10.099,10.044v21.045c-5,1.447-10.04,3.326-14.833,5.595c-32.119,15.197-54.258,47.896-54.258,85.789
		c0,52.391,42.513,94.861,94.903,94.861c52.391,0,94.799-42.471,94.799-94.861C220.536,163.564,198.233,130.854,166.091,115.664z
		 M125.778,263.931c-34.439,0-62.458-28.019-62.458-62.458c0-4.143,3.357-7.5,7.5-7.5c4.143,0,7.5,3.357,7.5,7.5
		c0,26.168,21.29,47.458,47.458,47.458c4.143,0,7.5,3.357,7.5,7.5C133.278,260.573,129.921,263.931,125.778,263.931z"/>
</g>
<g>
</g>
<g>
</g>
<g>
</g>
<g>
</g>
<g>
</g>
<g>
</g>
<g>
</g>
<g>
</g>
<g>
</g>
<g>
</g>
<g>
</g>
<g>
</g>
<g>
</g>
<g>
</g>
<g>
</g>
</svg>
