<?xml version="1.0" encoding="iso-8859-1"?>
<!-- Generator: Adobe Illustrator 19.0.0, SVG Export Plug-In . SVG Version: 6.00 Build 0)  -->
<svg version="1.1" id="Capa_1" xmlns="http://www.w3.org/2000/svg" xmlns:xlink="http://www.w3.org/1999/xlink" x="0px" y="0px"
	 viewBox="0 0 296 296" style="enable-background:new 0 0 296 296;" xml:space="preserve">
<g>
	<path d="M172.333,121c-4.143,0-7.5-3.357-7.5-7.5s3.357-7.5,7.5-7.5h17.397C185.888,89.397,172,76.494,155,73.67V89
		c0,4.143-3.357,7.5-7.5,7.5c-4.143,0-7.5-3.357-7.5-7.5V73.849c-16,3.156-29.297,15.876-33.065,32.151h16.398
		c4.143,0,7.5,3.357,7.5,7.5s-3.357,7.5-7.5,7.5H106.19c2.332,18.239,15.81,32.896,33.81,36.317V138c0-4.143,3.357-7.5,7.5-7.5
		c4.143,0,7.5,3.357,7.5,7.5v19.496c19-3.057,33.101-17.918,35.476-36.496H172.333z"/>
	<path d="M255.666,0H41C27.215,0,16,10.881,16,24.666V206.5c0,13.785,11.215,25.5,25,25.5h74v24h66v-24h74.666
		C269.451,232,280,220.285,280,206.5V24.666C280,10.881,269.451,0,255.666,0z M155,180c0,4.143-3.357,7.5-7.5,7.5
		c-4.143,0-7.5-3.357-7.5-7.5v-7.486c-26-3.66-46.413-24.991-48.904-51.514h-9.763c-4.143,0-7.5-3.357-7.5-7.5s3.357-7.5,7.5-7.5
		h10.313C95.787,81.435,116,62.118,140,58.652V47c0-4.143,3.357-7.5,7.5-7.5c4.143,0,7.5,3.357,7.5,7.5v11.524
		c26,3.08,45.823,22.581,50.019,47.476h9.314c4.143,0,7.5,3.357,7.5,7.5s-3.357,7.5-7.5,7.5h-8.763
		c-2.522,26.859-23.57,48.392-50.57,51.642V180z"/>
	<path d="M237.381,296c-2.375-12-12.317-24-24.067-24H83.43c-11.752,0-21.754,12-24.145,24H237.381z"/>
</g>
<g>
</g>
<g>
</g>
<g>
</g>
<g>
</g>
<g>
</g>
<g>
</g>
<g>
</g>
<g>
</g>
<g>
</g>
<g>
</g>
<g>
</g>
<g>
</g>
<g>
</g>
<g>
</g>
<g>
</g>
</svg>
