<?xml version="1.0" encoding="iso-8859-1"?>
<!-- Generator: Adobe Illustrator 19.0.0, SVG Export Plug-In . SVG Version: 6.00 Build 0)  -->
<svg version="1.1" id="Capa_1" xmlns="http://www.w3.org/2000/svg" xmlns:xlink="http://www.w3.org/1999/xlink" x="0px" y="0px"
	 viewBox="0 0 298 298" style="enable-background:new 0 0 298 298;" xml:space="preserve">
<g>
	<polygon points="215.143,52 264.857,52 215.143,0.265 	"/>
	<path d="M200.143,59.5V0H59.226C45.44,0,33.143,11.381,33.143,25.166v247.668C33.143,286.619,45.44,298,59.226,298h181
		c13.785,0,23.917-11.381,23.917-25.166V67h-55.667C204.333,67,200.143,63.643,200.143,59.5z M203.143,141.5
		c0,4.143-2.524,7.5-6.667,7.5H182.6c0.566,2.439,0.876,4.975,0.876,7.584c0,2.906-0.373,5.726-1.072,8.416h14.072
		c4.143,0,6.667,3.357,6.667,7.5V194c0,4.143-3.357,7.5-7.5,7.5c-4.143,0-7.5-3.357-7.5-7.5v-14h-14.241
		c-6.085,6.217-14.561,10.084-23.926,10.084S132.135,186.217,126.05,180h-16.907v14c0,4.143-3.357,7.5-7.5,7.5s-7.5-3.357-7.5-7.5
		v-21.5c0-4.143,4.19-7.5,8.333-7.5h15.072c-0.699-2.69-1.072-5.51-1.072-8.416c0-2.609,0.31-5.145,0.876-7.584h-14.876
		c-4.143,0-8.333-3.357-8.333-7.5V120c0-4.143,3.357-7.5,7.5-7.5s7.5,3.357,7.5,7.5v14h16.114c2.505-2.74,5.457-5.064,8.741-6.854
		l-15.387-18.618c-2.639-3.193-2.189-7.921,1.003-10.559c3.193-2.638,7.92-2.19,10.559,1.003l19.719,23.859l19.719-23.859
		c2.64-3.192,7.366-3.642,10.56-1.003c3.192,2.639,3.642,7.366,1.003,10.559l-15.337,18.558c3.331,1.798,6.323,4.143,8.857,6.914
		h13.448v-14c0-4.143,3.357-7.5,7.5-7.5c4.143,0,7.5,3.357,7.5,7.5V141.5z"/>
</g>
<g>
</g>
<g>
</g>
<g>
</g>
<g>
</g>
<g>
</g>
<g>
</g>
<g>
</g>
<g>
</g>
<g>
</g>
<g>
</g>
<g>
</g>
<g>
</g>
<g>
</g>
<g>
</g>
<g>
</g>
</svg>
