<?xml version="1.0" encoding="iso-8859-1"?>
<!-- Generator: Adobe Illustrator 19.0.0, SVG Export Plug-In . SVG Version: 6.00 Build 0)  -->
<svg version="1.1" id="Capa_1" xmlns="http://www.w3.org/2000/svg" xmlns:xlink="http://www.w3.org/1999/xlink" x="0px" y="0px"
	 viewBox="0 0 296 296" style="enable-background:new 0 0 296 296;" xml:space="preserve">
<g>
	<path d="M289.068,128.114c-0.719-0.718-1.395-1.38-2.185-1.994C277.491,66.137,230.15,18.755,170.165,9.366
		c-0.443-0.573-0.888-1.131-1.385-1.664C164.217,2.807,157.74,0,150.973,0h-5.279c-6.768,0-13.266,2.807-17.828,7.702
		c-0.497,0.533-0.963,1.091-1.406,1.664C66.475,18.756,19.093,66.137,9.701,126.119c-0.79,0.615-1.717,1.276-2.436,1.995
		C2.687,132.689,0,138.814,0,145.36v5.279c0,6.546,2.687,12.671,7.264,17.246c0.719,0.719,1.564,1.38,2.354,1.995
		c9.392,59.982,56.816,107.363,116.799,116.753c0.443,0.573,0.93,1.131,1.427,1.664c4.563,4.895,11.081,7.702,17.849,7.702h5.279
		c6.768,0,13.266-2.807,17.828-7.702c0.497-0.533,0.963-1.091,1.406-1.664c59.984-9.389,107.367-56.77,116.759-116.753
		c0.79-0.615,1.384-1.276,2.103-1.995c4.577-4.575,6.931-10.7,6.931-17.246v-5.279C296,138.814,293.646,132.689,289.068,128.114z
		 M281,145.36v5.279c0,5.265-3.947,9.325-9.111,9.325c-0.231,0-0.381-0.008-0.615-0.024l-21.245-1.491
		c-5.486-0.385-9.955-5.087-9.955-10.449s4.5-10.064,9.986-10.449l21.292-1.491c0.234-0.017,0.303-0.024,0.534-0.024
		C277.05,136.035,281,140.096,281,145.36z M160.363,24.976l-1.536,21.287c-0.385,5.486-5.109,9.976-10.472,9.976
		c-5.362,0-10.076-4.489-10.461-9.976l-1.496-21.287c-0.385-5.486,3.795-9.976,9.295-9.976h5.459
		C156.652,15,160.748,19.489,160.363,24.976z M56.571,148c0,5.362-4.489,10.064-9.976,10.449l-21.287,1.491
		c-0.234,0.017-0.634,0.024-0.865,0.024c-5.164,0-9.444-4.061-9.444-9.325v-5.279c0-5.265,4.281-9.325,9.444-9.325
		c0.232,0,0.547,0.008,0.782,0.024l21.329,1.491C52.04,137.936,56.571,142.638,56.571,148z M145.693,281
		c-5.5,0-9.686-4.489-9.301-9.976l1.491-21.287c0.385-5.486,5.087-9.976,10.449-9.976c5.362,0,10.064,4.489,10.449,9.976
		l1.491,21.287c0.385,5.486-3.801,9.976-9.301,9.976H145.693z M148.334,208c-33.083,0-60-26.917-60-60s26.917-60,60-60
		c33.084,0,60,26.917,60,60S181.418,208,148.334,208z"/>
</g>
<g>
</g>
<g>
</g>
<g>
</g>
<g>
</g>
<g>
</g>
<g>
</g>
<g>
</g>
<g>
</g>
<g>
</g>
<g>
</g>
<g>
</g>
<g>
</g>
<g>
</g>
<g>
</g>
<g>
</g>
</svg>
