<?xml version="1.0" encoding="iso-8859-1"?>
<!-- Generator: Adobe Illustrator 19.0.0, SVG Export Plug-In . SVG Version: 6.00 Build 0)  -->
<svg version="1.1" id="Capa_1" xmlns="http://www.w3.org/2000/svg" xmlns:xlink="http://www.w3.org/1999/xlink" x="0px" y="0px"
	 viewBox="0 0 296 296" style="enable-background:new 0 0 296 296;" xml:space="preserve">
<g>
	<path d="M184.54,130H89.959V65.722c0-19.657,16.703-35.722,36.36-35.722h0.445c19.657,0,35.194,16.064,35.194,35.722v26.305
		c0,8.284,6.716,15,15,15s15-6.716,15-15V65.722C191.958,29.522,162.963,0,126.764,0h-0.445c-36.199,0-66.36,29.522-66.36,65.722
		v65.556c-10,3.307-17,12.688-17,23.723v116c0,13.785,11.799,25,25.584,25H184.54c13.785,0,24.418-11.215,24.418-25V155
		C208.958,141.215,198.326,130,184.54,130z M96.25,187.725c0-16.568,13.579-30,30.146-30c16.567,0,29.781,13.432,29.781,30
		c0,11.1-6.219,20.787-15.219,25.976v41.782c0,8.221-6.779,14.88-14.999,14.88c-8.221,0-15.001-6.659-15.001-14.88v-41.783
		C101.959,208.511,96.25,198.824,96.25,187.725z"/>
	<path d="M245.542,91h-17c-4.143,0-7.5,3.357-7.5,7.5s3.357,7.5,7.5,7.5h17c4.143,0,7.5-3.357,7.5-7.5S249.684,91,245.542,91z"/>
	<path d="M216.616,82.853c1.919,0,3.839-0.732,5.304-2.196l12.021-12.021c2.929-2.93,2.929-7.678,0-10.608
		c-2.93-2.928-7.678-2.928-10.607,0l-12.021,12.021c-2.929,2.93-2.929,7.678,0,10.608C212.777,82.12,214.697,82.853,216.616,82.853z
		"/>
	<path d="M221.919,116.658c-2.93-2.93-7.679-2.929-10.607,0.001c-2.929,2.929-2.929,7.678,0.001,10.606l12.022,12.02
		c1.465,1.465,3.384,2.196,5.303,2.196s3.84-0.732,5.304-2.197c2.929-2.929,2.929-7.678-0.001-10.606L221.919,116.658z"/>
</g>
<g>
</g>
<g>
</g>
<g>
</g>
<g>
</g>
<g>
</g>
<g>
</g>
<g>
</g>
<g>
</g>
<g>
</g>
<g>
</g>
<g>
</g>
<g>
</g>
<g>
</g>
<g>
</g>
<g>
</g>
</svg>
