<?xml version="1.0" encoding="iso-8859-1"?>
<!-- Generator: Adobe Illustrator 19.0.0, SVG Export Plug-In . SVG Version: 6.00 Build 0)  -->
<svg version="1.1" id="Capa_1" xmlns="http://www.w3.org/2000/svg" xmlns:xlink="http://www.w3.org/1999/xlink" x="0px" y="0px"
	 viewBox="0 0 296 296" style="enable-background:new 0 0 296 296;" xml:space="preserve">
<g>
	<path d="M124,24c0-4.143,3.357-7.5,7.5-7.5c4.143,0,7.5,3.357,7.5,7.5v42h19V24c0-4.143,3.357-7.5,7.5-7.5
		c4.143,0,7.5,3.357,7.5,7.5v42h24V0H99v66h25V24z"/>
	<path d="M165,172v-8.586c0-9.28-7.279-16.414-16.561-16.414h-0.213c-9.281,0-17.227,7.134-17.227,16.414V172H165z"/>
	<path d="M200.167,85.148C196.549,83.146,192.564,82,188.166,82H188h-79.334c-4.449,0-8.83,1.174-12.5,3.22
		C88.466,89.514,83,97.664,83,107v164c0,13.785,11.881,25,25.666,25H188c13.785,0,25-11.215,25-25V107
		C213,97.613,207.886,89.422,200.167,85.148z M185,191.861v35C185,237.89,176.861,247,165.833,247h-35
		C119.805,247,110,237.89,110,226.861v-35c0-5.487,2-10.428,6-14.011v-14.437C116,145.863,130.674,132,148.227,132h0.213
		C165.992,132,180,145.863,180,163.414v15.006C183,181.95,185,186.653,185,191.861z"/>
	<path d="M133.755,201.219c0,4.997,2.245,9.399,6.245,11.984v11.566c0,3.949,3.553,7.146,7.502,7.146
		c3.947,0,7.498-3.197,7.498-7.146v-10.959c5-2.462,7.578-7.177,7.578-12.592c0-7.959-6.453-14.412-14.412-14.412
		C140.208,186.807,133.755,193.26,133.755,201.219z"/>
</g>
<g>
</g>
<g>
</g>
<g>
</g>
<g>
</g>
<g>
</g>
<g>
</g>
<g>
</g>
<g>
</g>
<g>
</g>
<g>
</g>
<g>
</g>
<g>
</g>
<g>
</g>
<g>
</g>
<g>
</g>
</svg>
