<?xml version="1.0" encoding="iso-8859-1"?>
<!-- Generator: Adobe Illustrator 19.0.0, SVG Export Plug-In . SVG Version: 6.00 Build 0)  -->
<svg version="1.1" id="Capa_1" xmlns="http://www.w3.org/2000/svg" xmlns:xlink="http://www.w3.org/1999/xlink" x="0px" y="0px"
	 viewBox="0 0 297.412 297.412" style="enable-background:new 0 0 297.412 297.412;" xml:space="preserve">
<g>
	<path d="M165.373,146.644v-8.773c0-9.28-7.279-17.227-16.561-17.227H148.6c-9.281,0-17.227,7.946-17.227,17.227v8.773H165.373z"/>
	<path d="M253.855,152.988c0.982-4.25,1.518-8.671,1.518-13.22c0-32.309-26.191-58.5-58.5-58.5c-8.709,0-16.967,1.918-24.393,5.331
		c-13.227-19.792-35.766-32.831-61.357-32.831c-40.221,0-72.898,32.204-73.711,72.23C15.436,135.255,0,157.079,0,182.425
		c0,33.752,27.361,61.219,61.115,61.219c32.166,0,171.117,0,191.053,0c24.988,0,45.244-20.361,45.244-45.35
		C297.412,173.872,278.061,153.877,253.855,152.988z M185.373,201.38c0,11.028-8.138,20.264-19.166,20.264h-35
		c-11.028,0-20.834-9.235-20.834-20.264v-35c0-5.486,2-10.396,6-13.948V137.87c0-17.551,14.674-32.227,32.227-32.227h0.213
		c17.553,0,31.561,14.676,31.561,32.227v15.125c3,3.501,5,8.177,5,13.385V201.38z"/>
	<path d="M134.128,175.737c0,4.997,2.246,9.399,6.246,11.984v11.566c0,3.949,3.553,7.146,7.502,7.146
		c3.947,0,7.498-3.197,7.498-7.146v-10.959c4-2.462,7.578-7.177,7.578-12.592c0-7.959-6.453-14.412-14.412-14.412
		C140.582,161.325,134.128,167.778,134.128,175.737z"/>
</g>
<g>
</g>
<g>
</g>
<g>
</g>
<g>
</g>
<g>
</g>
<g>
</g>
<g>
</g>
<g>
</g>
<g>
</g>
<g>
</g>
<g>
</g>
<g>
</g>
<g>
</g>
<g>
</g>
<g>
</g>
</svg>
