<?xml version="1.0" encoding="iso-8859-1"?>
<!-- Generator: Adobe Illustrator 19.0.0, SVG Export Plug-In . SVG Version: 6.00 Build 0)  -->
<svg version="1.1" id="Capa_1" xmlns="http://www.w3.org/2000/svg" xmlns:xlink="http://www.w3.org/1999/xlink" x="0px" y="0px"
	 viewBox="0 0 297.412 297.412" style="enable-background:new 0 0 297.412 297.412;" xml:space="preserve">
<g>
	<path d="M253.856,103.239c0.982-4.25,1.518-8.671,1.518-13.22c0-32.309-26.191-58.5-58.5-58.5c-8.709,0-16.967,1.918-24.393,5.331
		C159.254,17.059,136.715,4.02,111.123,4.02c-40.221,0-72.898,32.204-73.711,72.23C15.436,85.506,0,107.237,0,132.583
		c0,33.752,27.361,61.126,61.115,61.126c7.886,0,22.258,0,39.258,0v-61.814c0-13.785,11.215-25.186,25-25.186h46.5h0.166h-0.166
		c13.785,0,24.5,11.4,24.5,25.186v61.814c27,0,48.776,0,55.795,0c24.988,0,45.244-20.269,45.244-45.257
		C297.412,124.03,278.061,104.128,253.856,103.239z"/>
	
		<line style="fill:none;stroke:#FFFFFF;stroke-width:0;stroke-linecap:round;stroke-linejoin:round;" x1="171.706" y1="106.895" x2="171.706" y2="106.895"/>
	<path d="M187.373,209.709h-6v-77.814c0-5.5-4.167-10.186-9.667-10.186h-46.333c-5.5,0-10,4.686-10,10.186v77.814h-5.335
		c-3.405,0-6.56,0.735-9.332,1.928c-4.199,1.806-7.516,4.93-9.437,9.043c-3.189,6.83-1.811,14.811,3.686,21.377l35.829,42.804
		c4.54,5.425,11.072,8.532,17.921,8.532c6.849,0,13.381-3.112,17.921-8.537l35.832-42.814c5.495-6.564,6.872-14.487,3.683-21.316
		c-1.921-4.112-5.236-7.283-9.435-9.088C193.934,210.443,190.779,209.709,187.373,209.709z M162.951,236.113
		c0,5.415-2.578,10.13-7.578,12.592v10.959c0,3.949-3.551,7.147-7.498,7.147c-3.949,0-7.502-3.197-7.502-7.147v-11.566
		c-4-2.585-6.245-6.987-6.245-11.984c0-7.959,6.453-14.412,14.41-14.412C156.498,221.701,162.951,228.154,162.951,236.113z"/>
</g>
<g>
</g>
<g>
</g>
<g>
</g>
<g>
</g>
<g>
</g>
<g>
</g>
<g>
</g>
<g>
</g>
<g>
</g>
<g>
</g>
<g>
</g>
<g>
</g>
<g>
</g>
<g>
</g>
<g>
</g>
</svg>
