<?xml version="1.0" encoding="iso-8859-1"?>
<!-- Generator: Adobe Illustrator 19.0.0, SVG Export Plug-In . SVG Version: 6.00 Build 0)  -->
<svg version="1.1" id="Capa_1" xmlns="http://www.w3.org/2000/svg" xmlns:xlink="http://www.w3.org/1999/xlink" x="0px" y="0px"
	 viewBox="0 0 299 299" style="enable-background:new 0 0 299 299;" xml:space="preserve">
<g>
	<path d="M299,26.018C299,12.477,287.658,1.5,273.667,1.5H25.333C11.342,1.5,0,12.477,0,26.018v246.965
		C0,286.523,11.342,297.5,25.333,297.5h248.334c13.991,0,25.333-10.977,25.333-24.518V26.018z M234.928,179.371
		c-16.471,0-29.871-13.4-29.871-29.871s13.4-29.871,29.871-29.871s29.871,13.4,29.871,29.871S251.398,179.371,234.928,179.371z
		 M264.799,235.095c0,16.471-13.4,29.871-29.871,29.871s-29.871-13.4-29.871-29.871c0-16.472,13.4-29.873,29.871-29.873
		S264.799,218.623,264.799,235.095z M234.928,93.778c-5.593,0-10.828-1.548-15.309-4.234l-44.512,44.886
		c2.6,4.428,4.097,9.576,4.097,15.07c0,16.471-13.4,29.871-29.871,29.871c-5.405,0-10.475-1.45-14.853-3.972l-44.703,45.079
		c2.438,4.324,3.835,9.309,3.835,14.616c0,16.471-13.401,29.871-29.874,29.871c-16.471,0-29.87-13.4-29.87-29.871
		c0-16.472,13.399-29.873,29.87-29.873c5.732,0,11.091,1.626,15.644,4.438l44.373-44.747c-2.724-4.503-4.293-9.777-4.293-15.412
		c0-16.471,13.4-29.871,29.871-29.871c5.545,0,10.739,1.524,15.194,4.168l44.56-44.935c-1.325-2.282-2.362-4.751-3.049-7.362
		h-27.816c-3.369,12.805-15.043,22.278-28.89,22.278c-13.847,0-25.52-9.474-28.89-22.278H92.63
		c-3.369,12.805-15.044,22.278-28.893,22.278c-16.471,0-29.87-13.401-29.87-29.873c0-16.471,13.399-29.871,29.87-29.871
		c13.917,0,25.641,9.565,28.943,22.466h27.712c3.303-12.9,15.025-22.466,28.94-22.466c13.915,0,25.638,9.565,28.94,22.466h27.713
		c3.304-12.9,15.026-22.466,28.941-22.466c16.471,0,29.871,13.4,29.871,29.871C264.799,80.377,251.398,93.778,234.928,93.778z
		 M179.204,235.095c0,16.471-13.4,29.871-29.871,29.871s-29.871-13.4-29.871-29.871c0-16.472,13.4-29.873,29.871-29.873
		S179.204,218.623,179.204,235.095z M33.867,149.5c0-16.471,13.399-29.871,29.87-29.871c16.473,0,29.874,13.4,29.874,29.871
		s-13.401,29.871-29.874,29.871C47.267,179.371,33.867,165.971,33.867,149.5z"/>
	<path d="M63.737,49.034c-8.199,0-14.87,6.671-14.87,14.871c0,8.201,6.671,14.873,14.87,14.873c8.201,0,14.874-6.672,14.874-14.873
		C78.611,55.705,71.938,49.034,63.737,49.034z"/>
	<path d="M149.333,49.034c-8.2,0-14.871,6.671-14.871,14.871c0,8.201,6.671,14.873,14.871,14.873c8.2,0,14.871-6.672,14.871-14.873
		C164.204,55.705,157.533,49.034,149.333,49.034z"/>
	<path d="M234.928,49.034c-8.2,0-14.871,6.671-14.871,14.871c0,8.201,6.671,14.873,14.871,14.873c8.2,0,14.871-6.672,14.871-14.873
		C249.799,55.705,243.128,49.034,234.928,49.034z"/>
	<path d="M149.333,134.629c-8.2,0-14.871,6.671-14.871,14.871s6.671,14.871,14.871,14.871c8.2,0,14.871-6.671,14.871-14.871
		S157.533,134.629,149.333,134.629z"/>
	<path d="M63.737,220.222c-8.199,0-14.87,6.672-14.87,14.873c0,8.2,6.671,14.871,14.87,14.871c8.201,0,14.874-6.671,14.874-14.871
		C78.611,226.894,71.938,220.222,63.737,220.222z"/>
</g>
<g>
</g>
<g>
</g>
<g>
</g>
<g>
</g>
<g>
</g>
<g>
</g>
<g>
</g>
<g>
</g>
<g>
</g>
<g>
</g>
<g>
</g>
<g>
</g>
<g>
</g>
<g>
</g>
<g>
</g>
</svg>
