<?xml version="1.0" encoding="iso-8859-1"?>
<!-- Generator: Adobe Illustrator 19.0.0, SVG Export Plug-In . SVG Version: 6.00 Build 0)  -->
<svg version="1.1" id="Capa_1" xmlns="http://www.w3.org/2000/svg" xmlns:xlink="http://www.w3.org/1999/xlink" x="0px" y="0px"
	 viewBox="0 0 296.499 296.499" style="enable-background:new 0 0 296.499 296.499;" xml:space="preserve">
<g>
	<path d="M280.58,147.051l-169.601-89V7.499c0-2.73-1.458-5.246-3.848-6.565c-2.387-1.318-5.293-1.237-7.605,0.219
		C-0.407,64.071,10.701,252.458,13.94,289.568c0.338,3.875,3.59,6.932,7.478,6.932h166.551c0.008,0,0.016,0,0.02,0
		c4.143,0,7.5-3.441,7.5-7.584c0-0.525-0.053-1.081-0.156-1.576c-3.436-24.85-29.949-60.91-45.109-79.695l114.383-0.145
		c0,0,0.002,0,0.004,0c3.392,0,6.365-2.093,7.244-5.371l12.5-46.588C285.261,152.152,283.685,148.681,280.58,147.051z
		 M134.254,148.438c-8.283,0-15-6.716-15-15s6.717-15,15-15c8.285,0,15,6.716,15,15S142.539,148.438,134.254,148.438z"/>
</g>
<g>
</g>
<g>
</g>
<g>
</g>
<g>
</g>
<g>
</g>
<g>
</g>
<g>
</g>
<g>
</g>
<g>
</g>
<g>
</g>
<g>
</g>
<g>
</g>
<g>
</g>
<g>
</g>
<g>
</g>
</svg>
