<?xml version="1.0" encoding="iso-8859-1"?>
<!-- Generator: Adobe Illustrator 18.0.0, SVG Export Plug-In . SVG Version: 6.00 Build 0)  -->
<!DOCTYPE svg PUBLIC "-//W3C//DTD SVG 1.1//EN" "http://www.w3.org/Graphics/SVG/1.1/DTD/svg11.dtd">
<svg version="1.1" id="Capa_1" xmlns="http://www.w3.org/2000/svg" xmlns:xlink="http://www.w3.org/1999/xlink" x="0px" y="0px"
	 viewBox="0 0 456.183 456.183" style="enable-background:new 0 0 456.183 456.183;" xml:space="preserve">
<g>
	<g>
		<path style="fill:none;" d="M352.531,232.056V40.703H57.925v187.375c0,1.736-0.377,3.453-1.105,5.029l-17.672,38.291
			l63.053-37.645c1.858-1.111,3.983-1.697,6.149-1.697H352.531z M96.689,84.738h220.847c6.628,0,12,5.373,12,12
			c0,6.627-5.372,12-12,12H96.689c-6.627,0-12-5.373-12-12C84.689,90.111,90.062,84.738,96.689,84.738z M96.689,174.414
			c-6.627,0-12-5.373-12-12c0-6.629,5.373-12,12-12h146.469c6.627,0,12,5.371,12,12c0,6.627-5.373,12-12,12H96.689z"/>
		<path style="fill:#73D0F4;" d="M399.109,355.824V173.457h-22.578v59.334c0,12.828-10.438,23.266-23.266,23.266H112.502v103.346
			H350.25c2.166,0,4.291,0.588,6.15,1.697l60.635,36.199l-16.82-36.445C399.486,359.275,399.109,357.56,399.109,355.824z
			 M293.506,312.871H147.037c-6.627,0-12-5.373-12-12c0-6.627,5.373-12,12-12h146.469c6.627,0,12,5.373,12,12
			C305.506,307.498,300.133,312.871,293.506,312.871z"/>
		<path style="fill:#3D6889;" d="M455.078,422.451l-31.969-69.264V172.439c0-12.674-10.309-22.982-22.981-22.982h-23.597V39.968
			c0-12.828-10.438-23.266-23.266-23.266H57.189c-12.828,0-23.265,10.438-23.265,23.266v185.475L1.105,296.552
			c-2.205,4.777-1.041,10.434,2.87,13.951c2.261,2.033,5.134,3.078,8.028,3.078c2.114,0,4.241-0.559,6.148-1.697l70.35-42v90.537
			c0,12.672,10.309,22.98,22.981,22.98h235.456l91.092,54.383c1.907,1.139,4.033,1.695,6.148,1.695c2.895,0,5.767-1.045,8.027-3.078
			C456.119,432.884,457.282,427.228,455.078,422.451z M356.4,361.099c-1.859-1.109-3.984-1.697-6.15-1.697H112.502V256.056h240.764
			c12.828,0,23.266-10.438,23.266-23.266v-59.334h22.578v182.367c0,1.736,0.377,3.451,1.105,5.029l16.82,36.445L356.4,361.099z
			 M39.148,271.398l17.672-38.291c0.728-1.576,1.105-3.293,1.105-5.029V40.703h294.606v191.353H108.35
			c-2.166,0-4.291,0.586-6.149,1.697L39.148,271.398z"/>
		<path style="fill:#3D6889;" d="M96.689,108.738h220.847c6.628,0,12-5.373,12-12c0-6.627-5.372-12-12-12H96.689
			c-6.627,0-12,5.373-12,12C84.689,103.365,90.062,108.738,96.689,108.738z"/>
		<path style="fill:#3D6889;" d="M255.158,162.414c0-6.629-5.373-12-12-12H96.689c-6.627,0-12,5.371-12,12c0,6.627,5.373,12,12,12
			h146.469C249.785,174.414,255.158,169.041,255.158,162.414z"/>
		<path style="fill:#3D6889;" d="M293.506,288.871H147.037c-6.627,0-12,5.373-12,12c0,6.627,5.373,12,12,12h146.469
			c6.627,0,12-5.373,12-12C305.506,294.244,300.133,288.871,293.506,288.871z"/>
	</g>
</g>
<g>
</g>
<g>
</g>
<g>
</g>
<g>
</g>
<g>
</g>
<g>
</g>
<g>
</g>
<g>
</g>
<g>
</g>
<g>
</g>
<g>
</g>
<g>
</g>
<g>
</g>
<g>
</g>
<g>
</g>
</svg>
